<svg width="24" height="17" viewBox="0 0 24 17" fill="none" xmlns="http://www.w3.org/2000/svg">
<path d="M0.326882 9.53119L7.46887 16.6732C7.90462 17.1089 8.61133 17.1089 9.04708 16.6732C9.48292 16.2373 9.48292 15.5308 9.04708 15.095L3.81012 9.85803L22.8841 9.85803C23.5003 9.85803 24 9.35836 24 8.74209C24 8.12592 23.5003 7.62616 22.8841 7.62616L3.81012 7.62615L9.0469 2.3892C9.48274 1.95336 9.48274 1.24684 9.0469 0.810996C8.82907 0.593255 8.54339 0.48416 8.2578 0.48416C7.97221 0.48416 7.68662 0.593255 7.4687 0.810996L0.326882 7.95299C-0.108958 8.38883 -0.108959 9.09535 0.326882 9.53119Z" fill="#1AA38C"/>
</svg>
