<svg width="16" height="16" viewBox="0 0 16 16" fill="none" xmlns="http://www.w3.org/2000/svg">
<path d="M0.468994 8.78577C0.562134 8.78577 0.660278 8.78613 0.762695 8.78662C0.872803 8.78711 0.989014 8.78772 1.11047 8.78772C1.77588 8.78772 2.59631 8.77148 3.38794 8.64612C4.55347 8.4613 5.40637 8.08655 5.99548 7.50012C6.58203 6.91626 6.87952 6.13892 6.87952 5.18958C6.87952 4.28271 7.19592 3.53955 7.84692 2.91797C8.41211 2.3783 9.22986 1.93884 10.2772 1.61194C12.0613 1.05505 14.1189 0.93811 15.531 0.93811C15.79 0.93811 16 0.728149 16 0.468994C16 0.209961 15.79 0 15.531 0C14.0537 0 11.8945 0.124268 9.99768 0.716431C8.81128 1.08679 7.86963 1.59924 7.1991 2.2395C6.3645 3.03638 5.94141 4.02905 5.94141 5.18958C5.94141 5.88989 5.74255 6.42822 5.33362 6.83533C4.29932 7.86487 2.08789 7.85474 0.76709 7.84851C0.663086 7.84802 0.563477 7.84766 0.468994 7.84766C0.209961 7.84766 0 8.05762 0 8.31665C0 8.57568 0.209961 8.78577 0.468994 8.78577Z" fill="black"/>
<path d="M15.531 1.78271C14.4187 1.78271 12.8124 1.90723 11.4761 2.50085C9.90088 3.20056 9.06836 4.40552 9.06836 5.9856C9.06836 6.04211 9.07007 6.10132 9.07288 6.16309C8.26562 6.33545 7.65808 7.05383 7.65808 7.91174C7.65808 8.14612 7.70288 8.3739 7.78943 8.58594C7.41003 8.97998 7.19214 9.50903 7.19214 10.0664C7.19214 10.8048 7.56946 11.4784 8.17773 11.866C8.17786 12.0471 8.20483 12.2584 8.27393 12.4751C6.91577 13.7224 4.29309 14.3546 0.468994 14.3546C0.209961 14.3546 0 14.5646 0 14.8236C0 15.0826 0.209961 15.2927 0.468994 15.2927C4.47742 15.2927 7.20557 14.6335 8.77991 13.2809C9.24512 13.7178 9.88538 13.877 10.4534 13.9188V15.4139C10.4534 15.6731 10.6633 15.8831 10.9224 15.8831C11.1815 15.8831 11.3915 15.6731 11.3915 15.4139V13.8943C12.4716 13.7543 13.0298 13.2396 13.3138 12.7971C13.5074 12.4956 13.6119 12.1616 13.6405 11.8827C14.2643 11.4979 14.6526 10.8157 14.6526 10.0664C14.6526 9.50903 14.4348 8.97998 14.0554 8.58594C14.142 8.37378 14.1868 8.14612 14.1868 7.91174C14.1868 7.01953 13.5299 6.27771 12.6743 6.14465C12.4808 5.36633 11.776 4.78784 10.9387 4.78784C10.6685 4.78784 10.4122 4.84839 10.1824 4.95618C10.4437 4.26697 10.9979 3.73962 11.8568 3.35815C12.5115 3.06738 13.6803 2.7207 15.5309 2.7207C15.7899 2.7207 16 2.51074 16 2.25171C16 1.99268 15.79 1.78271 15.531 1.78271ZM10.9387 5.72595C11.4064 5.72595 11.7871 6.10571 11.7889 6.573L11.7883 6.59119C11.7858 6.72571 11.8412 6.85498 11.9404 6.94592C12.0397 7.03687 12.1733 7.08081 12.307 7.06653C12.3379 7.06323 12.3687 7.06165 12.3984 7.06165C12.8672 7.06165 13.2487 7.44299 13.2487 7.91174C13.2487 8.09448 13.1915 8.26868 13.0834 8.41541C13.0079 8.51758 12.9773 8.64612 12.9983 8.77136C13.0194 8.89661 13.0903 9.00806 13.1949 9.08008C13.5203 9.30396 13.7145 9.67273 13.7145 10.0665C13.7145 10.5488 13.4274 10.9817 12.983 11.1693C12.8662 11.2188 12.7743 11.3132 12.7284 11.4314C12.6924 11.5238 12.6869 11.6245 12.7114 11.7191C12.7131 11.8173 12.6681 12.1582 12.3988 12.4537C12.0729 12.8118 11.5337 12.9933 10.7965 12.9933C10.0975 12.9933 9.59106 12.8225 9.33179 12.4994C9.09888 12.2091 9.10645 11.8485 9.12256 11.7546C9.15869 11.65 9.15686 11.5354 9.11646 11.4314C9.07043 11.3132 8.97852 11.2188 8.86169 11.1693C8.41736 10.9817 8.13025 10.5487 8.13025 10.0664C8.13025 9.67261 8.32446 9.30383 8.64978 9.08008C8.75452 9.00794 8.82544 8.89661 8.84656 8.77124C8.86755 8.646 8.83679 8.51758 8.76147 8.41528C8.65332 8.26856 8.59619 8.09448 8.59619 7.91174C8.59619 7.44299 8.97754 7.06152 9.44641 7.06152C9.48267 7.06152 9.51941 7.06409 9.55884 7.06934C9.69421 7.08704 9.83093 7.04504 9.93286 6.95398C10.0348 6.86279 10.0918 6.73181 10.0891 6.59509L10.0885 6.57398C10.0897 6.1062 10.4707 5.72595 10.9387 5.72595Z" fill="black"/>
<path d="M1.52441 5.97144H3.63513C4.47571 5.97144 5.15955 5.28748 5.15955 4.4469C5.15955 3.62463 4.50513 2.95227 3.6897 2.92346C3.41479 2.49097 2.93494 2.21899 2.40393 2.21899C1.84985 2.21899 1.34692 2.51917 1.07947 2.98853C0.44812 3.17993 0 3.76477 0 4.4469C0 5.28748 0.683838 5.97144 1.52441 5.97144ZM1.45837 3.8645C1.63831 3.84448 1.79065 3.72278 1.84985 3.55164C1.93152 3.31567 2.15417 3.1571 2.40393 3.1571C2.65857 3.1571 2.88269 3.3197 2.96143 3.56165C3.03613 3.79114 3.27295 3.92639 3.5083 3.87463C3.55029 3.86536 3.59302 3.8606 3.63525 3.8606C3.9585 3.8606 4.22156 4.12366 4.22156 4.4469C4.22156 4.77026 3.9585 5.03333 3.63525 5.03333H1.52441C1.20117 5.03333 0.93811 4.77026 0.93811 4.4469C0.93811 4.14783 1.16174 3.89746 1.45837 3.8645Z" fill="black"/>
</svg>
