<svg width="20" height="23" viewBox="0 0 20 23" fill="none" xmlns="http://www.w3.org/2000/svg">
<path d="M2.74927 16.5H17.1006C17.5423 16.5 17.9775 16.3936 18.3693 16.1899C18.7612 15.9861 19.0982 15.691 19.3519 15.3294C19.6056 14.9678 19.7684 14.5505 19.8267 14.1126C19.8849 13.6748 19.8368 13.2294 19.6865 12.8141L17.0722 5.58617C16.6257 3.9799 15.6654 2.56409 14.338 1.55528C13.0107 0.546471 11.3895 0.000194405 9.72235 9.32535e-10C7.98685 -2.71263e-05 6.30323 0.591789 4.94946 1.67774C3.59569 2.76368 2.65273 4.27882 2.27627 5.973L0.1221 12.9397C-0.00473022 13.351 -0.0332429 13.7863 0.0388562 14.2107C0.110955 14.635 0.281653 15.0365 0.537214 15.3828C0.792776 15.7291 1.12606 16.0107 1.51026 16.2047C1.89446 16.3987 2.31885 16.4999 2.74927 16.5Z" fill="#1AA38C"/>
<path d="M5.52832 18.3334C5.73871 19.3695 6.30082 20.301 7.11942 20.9701C7.93801 21.6391 8.96274 22.0046 10.02 22.0046C11.0772 22.0046 12.102 21.6391 12.9206 20.9701C13.7392 20.301 14.3013 19.3695 14.5117 18.3334H5.52832Z" fill="#1AA38C"/>
</svg>
