<svg width="16" height="14" viewBox="0 0 16 14" fill="none" xmlns="http://www.w3.org/2000/svg">
<path d="M15.0397 1.69788H9.53725C9.52968 1.69788 9.52297 1.69385 9.51979 1.68738L8.95229 0.536256C8.79213 0.21045 8.454 0 8.09071 0H4.76429C4.23475 0 3.80396 0.430909 3.80396 0.960573V1.9021H2.86207C2.33265 1.9021 1.90186 2.33289 1.90186 2.86243V3.80396H0.960329C0.430787 3.80396 0 4.23475 0 4.76429V12.5353C0 13.0648 0.430787 13.4956 0.960329 13.4956H11.2359C11.7654 13.4956 12.1962 13.0648 12.1962 12.5353V11.5936H13.1378C13.6674 11.5936 14.0982 11.1629 14.0982 10.6334V9.69191H15.0397C15.5692 9.69191 16 9.26113 16 8.73158V2.65845C16 2.12879 15.5692 1.69788 15.0397 1.69788ZM11.2359 12.5545H0.960329C0.949831 12.5545 0.941164 12.5459 0.941164 12.5353V4.76429C0.941164 4.75367 0.949831 4.74513 0.960329 4.74513H4.287C4.29017 4.74513 4.29322 4.74622 4.29591 4.74769C4.29627 4.74793 4.29676 4.74781 4.29713 4.74806C4.29823 4.74879 4.29884 4.75013 4.29981 4.75099C4.3014 4.75257 4.30323 4.75392 4.30421 4.75587L4.87196 5.90736C5.03492 6.23768 5.365 6.44301 5.73329 6.44301H11.2359C11.2384 6.44301 11.241 6.44349 11.2433 6.44447C11.2501 6.4474 11.2549 6.45424 11.2549 6.46217C11.2549 9.78102 11.255 12.505 11.255 12.5353C11.255 12.5459 11.2465 12.5545 11.2359 12.5545ZM13.157 10.6334C13.157 10.6439 13.1485 10.6525 13.138 10.6525H12.1962V6.46217C12.1962 5.93251 11.7653 5.50172 11.2357 5.50172H5.73329C5.72621 5.50172 5.71937 5.49745 5.7162 5.49098L5.14833 4.33949C4.98548 4.00953 4.65553 3.80396 4.28712 3.80396H2.84302V2.86243C2.84302 2.85181 2.85157 2.84327 2.86207 2.84327H6.18886C6.19618 2.84327 6.20277 2.8473 6.20607 2.85413L6.77394 4.00562C6.93703 4.33595 7.26698 4.54115 7.63515 4.54115H13.138C13.1485 4.54115 13.157 4.54969 13.157 4.56031V10.6334ZM15.0589 8.73158C15.0589 8.7422 15.0503 8.75075 15.0397 8.75075H14.0982V4.56031C14.0982 4.03077 13.6675 3.59998 13.138 3.59998H7.63515C7.62794 3.59998 7.62123 3.59571 7.61794 3.58912L7.05019 2.43799C6.88747 2.10743 6.55739 1.9021 6.18886 1.9021H4.74513V0.960573C4.74513 0.949831 4.75367 0.941164 4.76417 0.941164H8.09059C8.09779 0.941164 8.10451 0.945192 8.1078 0.951906L8.67568 2.10376C8.83864 2.43384 9.16872 2.63904 9.53725 2.63904H15.0397C15.0502 2.63904 15.0587 2.64771 15.0587 2.65857V8.73158H15.0589Z" fill="black"/>
<path d="M8.36267 10.5083C8.10278 10.5083 7.89209 10.719 7.89209 10.9789V11.251C7.89209 11.5109 8.10278 11.7216 8.36267 11.7216C8.62256 11.7216 8.83325 11.5109 8.83325 11.251V10.9789C8.83325 10.719 8.62256 10.5083 8.36267 10.5083Z" fill="black"/>
<path d="M9.73377 10.5083C9.47388 10.5083 9.26318 10.719 9.26318 10.9789V11.251C9.26318 11.5109 9.47388 11.7216 9.73377 11.7216C9.99365 11.7216 10.2043 11.5109 10.2043 11.251V10.9789C10.2043 10.719 9.99365 10.5083 9.73377 10.5083Z" fill="black"/>
</svg>
