<svg width="16" height="15" viewBox="0 0 16 15" fill="none" xmlns="http://www.w3.org/2000/svg">
<path d="M15.226 11.0038L16 10.557C15.8519 10.1338 15.6498 9.62741 15.4286 9.25878C15.1941 8.84497 14.8839 8.45825 14.59 8.11484L13.8158 8.56181C13.7335 8.50884 13.6488 8.45988 13.5618 8.41503V7.52116C13.1028 7.42178 12.6239 7.37241 12.1467 7.37253C11.6694 7.37269 11.1939 7.42238 10.7418 7.52116V8.41503C10.6548 8.45991 10.5701 8.50884 10.4878 8.56181L9.71362 8.11481C9.51522 8.34547 9.29606 8.61681 9.11041 8.88488L8.30641 8.6845L8.13544 7.85656C8.72419 7.37184 9.10406 6.64216 9.11697 5.82484C9.66475 5.63116 10.0583 5.10803 10.0583 4.49484C10.0583 4.00984 9.81166 3.58116 9.43731 3.32725C9.62234 3.00331 9.72319 2.63375 9.72319 2.25066C9.72319 1.00963 8.71353 0 7.47253 0H3.37087C2.87503 0.588313 2.59547 1.372 2.72478 2.10334C2.79894 2.56891 3.01041 3.00931 3.33672 3.39072C3.01137 3.64928 2.80216 4.048 2.80216 4.49481C2.80216 5.10825 3.19587 5.63147 3.74391 5.825C3.75681 6.64216 4.13653 7.37166 4.72506 7.85631L4.55403 8.6845L2.44275 9.21066C1.61916 9.41591 0.97275 10.021 0.713594 10.8292L0 13.0547H8.88203C9.11563 13.4637 9.42269 13.8464 9.71359 14.1865L10.4878 13.7395C10.5701 13.7924 10.6548 13.8414 10.7418 13.8863V14.7801C11.1799 14.8633 11.7282 14.9417 12.1518 14.9344C12.6307 14.9377 13.1183 14.8626 13.5618 14.7801V13.8863C13.6488 13.8414 13.7335 13.7924 13.8158 13.7395L14.59 14.1865C14.8824 13.8466 15.2199 13.4185 15.4286 13.0425C15.6697 12.6325 15.8495 12.1705 16 11.7443L15.226 11.2974C15.233 11.1145 15.2274 11.0623 15.226 11.0038ZM3.85678 0.937469H7.4725C8.19659 0.937469 8.78566 1.52656 8.78566 2.25113C8.78566 2.34803 8.77403 2.44341 8.75219 2.53575C8.42544 2.1075 7.81297 1.90578 7.24956 1.95047C7.04341 2.2835 6.67212 3.00966 5.74831 3.08469H4.36688C3.97019 2.77072 3.71725 2.37434 3.65056 1.95584C3.59575 1.61169 3.66691 1.26344 3.85678 0.937469ZM4.21228 4.96747C3.95166 4.96747 3.73962 4.75544 3.73962 4.49481C3.73962 4.23431 3.95156 4.02228 4.21187 4.02216H5.74834C6.73978 4.02216 7.42466 3.32434 7.73472 2.92625C7.99419 3.01653 8.18091 3.26359 8.18091 3.55344V4.02141L8.64888 4.02219C8.90906 4.02263 9.12075 4.23462 9.12075 4.49481C9.12075 4.75531 8.90881 4.96734 8.64831 4.96747L8.17975 4.96769V5.78188C8.17975 6.74647 7.395 7.53125 6.43041 7.53125C5.46581 7.53125 4.68106 6.7465 4.68106 5.78188V4.9675H4.21228V4.96747ZM6.43041 8.46872C6.72591 8.46872 7.01006 8.42003 7.27622 8.33153L7.38644 8.86519L6.42963 9.55494L5.47381 8.86591L5.58419 8.33141C5.85047 8.42 6.13478 8.46872 6.43041 8.46872ZM1.60631 11.1154C1.76566 10.6185 2.16306 10.2465 2.66944 10.1203L4.85516 9.57559L6.42963 10.7106L8.00438 9.57537L8.63069 9.73147C8.50478 10.0062 8.39831 10.2887 8.30356 10.557L9.07756 11.0038C9.07616 11.0623 9.07063 11.1145 9.07756 11.2974L8.30356 11.7443C8.34534 11.8636 8.39153 11.9896 8.44109 12.1172H1.28513L1.60631 11.1154ZM14.2177 11.7978L14.834 12.1536C14.7682 12.2967 14.6956 12.4371 14.6167 12.5738C14.5379 12.7103 14.4525 12.8435 14.3615 12.972L13.744 12.6155C13.4234 12.9076 13.0138 13.14 12.6243 13.2627V13.9749C12.4675 13.9895 12.3097 13.9968 12.1518 13.9968C11.994 13.9968 11.8362 13.9895 11.6793 13.9749V13.2627C11.265 13.1302 10.8617 12.8925 10.5597 12.6155L9.94219 12.972C9.85112 12.8434 9.76578 12.7103 9.68694 12.5738C9.60809 12.4372 9.53547 12.2967 9.46969 12.1536L10.086 11.7978C9.99303 11.3623 9.99772 10.9051 10.086 10.5035L9.46969 10.1477C9.53547 10.0045 9.60806 9.86406 9.68694 9.72747C9.76578 9.59087 9.85112 9.45778 9.94219 9.32928L10.5596 9.68575C10.8803 9.39363 11.2899 9.16122 11.6793 9.03859V8.32631C11.8362 8.31172 11.994 8.30444 12.1518 8.30444C12.3097 8.30444 12.4675 8.31172 12.6243 8.32631V9.03859C13.0387 9.17109 13.442 9.40872 13.7441 9.68575L14.3615 9.32928C14.4526 9.45775 14.5379 9.59088 14.6167 9.72753C14.6956 9.86409 14.7682 10.0046 14.834 10.1477L14.2177 10.5035C14.3107 10.939 14.3059 11.3962 14.2177 11.7978Z" fill="black"/>
<path d="M12.1519 9.74048C11.3743 9.74048 10.7417 10.3731 10.7417 11.1506C10.7417 11.9282 11.3743 12.5608 12.1519 12.5608C12.9294 12.5608 13.562 11.9282 13.562 11.1506C13.562 10.3731 12.9294 9.74048 12.1519 9.74048ZM12.1519 11.6233C11.8912 11.6233 11.6792 11.4113 11.6792 11.1506C11.6792 10.89 11.8912 10.678 12.1519 10.678C12.4125 10.678 12.6245 10.89 12.6245 11.1506C12.6245 11.4113 12.4125 11.6233 12.1519 11.6233Z" fill="black"/>
</svg>
