<svg width="16" height="16" viewBox="0 0 16 16" fill="none" xmlns="http://www.w3.org/2000/svg">
<path d="M16 6.9135V4.101H10.452L8.96725 2.8125H10.9688V0H7.53125V2.37987L5.548 4.101H0V6.9135H0.71875V13.1875H0V16H16V13.1875H15.2812V6.9135H16ZM15.0625 5.0385V5.976H12.6126L11.5323 5.0385H15.0625ZM10.3594 13.1875V8.59375H5.64062V13.1875H4.03125V6.91344H11.9688V13.1875H10.3594ZM6.57812 13.1875V9.53125H7.53125V13.1875H6.57812ZM8.46875 9.53125H9.42188V13.1875H8.46875V9.53125ZM8 3.21441L11.1822 5.97594H4.81784L8 3.21441ZM8.46875 0.9375H10.0312V1.875H8.46875V0.9375ZM0.9375 5.0385H4.46769L3.38741 5.976H0.9375V5.0385ZM1.65625 6.9135H3.09375V13.1875H1.65625V6.9135ZM15.0625 15.0625H0.9375V14.125H15.0625V15.0625ZM14.3438 13.1875H12.9062V6.9135H14.3438V13.1875Z" fill="black"/>
</svg>
