<svg width="18" height="21" viewBox="0 0 18 21" fill="none" xmlns="http://www.w3.org/2000/svg">
<path d="M16.5912 7.6539H16.111V5.33648C16.111 5.32193 16.1087 5.30748 16.1068 5.29271C16.106 5.20079 16.0767 5.11033 16.0138 5.03883L12.1577 0.634126C12.1565 0.632886 12.1553 0.632521 12.1546 0.63139C12.1316 0.605601 12.1048 0.584262 12.0765 0.565877C12.068 0.560151 12.0596 0.555445 12.0508 0.550594C12.0263 0.537279 12.0002 0.526081 11.9734 0.51802C11.9661 0.516123 11.9597 0.513132 11.9524 0.511162C11.9232 0.504304 11.893 0.5 11.8624 0.5H2.38549C1.95273 0.5 1.6012 0.851966 1.6012 1.28433V7.65368H1.12105C0.501961 7.65368 0 8.15546 0 8.77462V14.604C0 15.2229 0.501961 15.7252 1.12105 15.7252H1.6012V19.7157C1.6012 20.1481 1.95273 20.5 2.38549 20.5H15.3267C15.7591 20.5 16.111 20.1481 16.111 19.7157V15.7252H16.5912C17.2101 15.7252 17.7121 15.2231 17.7121 14.6042V8.77484C17.7122 8.1555 17.2101 7.6539 16.5912 7.6539ZM2.38549 1.28433H11.4702V5.29701C11.4702 5.51369 11.646 5.68918 11.8624 5.68918H15.3267V7.65387H2.38549V1.28433ZM8.2897 11.9239C7.31649 11.585 6.68241 11.0465 6.68241 10.1953C6.68241 9.19564 7.51631 8.43093 8.89777 8.43093C9.55826 8.43093 10.0449 8.56995 10.3922 8.72665L10.0971 9.79543C9.86252 9.6821 9.44551 9.51704 8.8718 9.51704C8.29849 9.51704 8.02046 9.77781 8.02046 10.0819C8.02046 10.4557 8.35047 10.6206 9.10675 10.9074C10.1405 11.2897 10.6271 11.8281 10.6271 12.6537C10.6271 13.6353 9.87131 14.4698 8.26373 14.4698C7.59481 14.4698 6.93418 14.2956 6.60413 14.1134L6.87333 13.0185C7.22979 13.2014 7.77705 13.3835 8.34204 13.3835C8.95015 13.3835 9.27177 13.1315 9.27177 12.7489C9.27159 12.3838 8.99338 12.1755 8.2897 11.9239ZM1.39029 11.5413C1.39029 9.54304 2.81559 8.43093 4.58765 8.43093C5.27422 8.43093 5.79551 8.56995 6.03028 8.69171L5.76064 9.74283C5.49144 9.63033 5.11747 9.52619 4.64842 9.52619C3.59707 9.52619 2.78057 10.16 2.78057 11.4631C2.78057 12.6361 3.4755 13.3745 4.65754 13.3745C5.05685 13.3745 5.50005 13.2877 5.76064 13.1834L5.96064 14.2174C5.71727 14.3392 5.17004 14.4698 4.45749 14.4698C2.43302 14.4698 1.39029 13.2095 1.39029 11.5413ZM15.3267 19.5031H2.38549V15.7252H15.3267V19.5031ZM14.4507 14.3825H12.9041L11.0273 8.52665H12.4787L13.1909 11.0032C13.3908 11.698 13.5731 12.3669 13.7125 13.0969H13.7383C13.886 12.393 14.0683 11.6979 14.2682 11.0289L15.0155 8.52665H16.4235L14.4507 14.3825Z" fill="#0A4BF4"/>
</svg>
