<svg width="26" height="30" viewBox="0 0 26 30" fill="none" xmlns="http://www.w3.org/2000/svg">
<path d="M17.215 13.9104C19.1346 12.5105 20.3846 10.2448 20.3846 7.6923C20.3846 3.45076 16.9338 0 12.6923 0C8.45074 0 4.99998 3.45076 4.99998 7.6923C4.99998 10.2448 6.24996 12.5105 8.16961 13.9104C3.39773 15.7365 0 20.3631 0 25.7692C0 28.1021 1.89791 30 4.23076 30H21.1538C23.4867 30 25.3846 28.1021 25.3846 25.7692C25.3846 20.3631 21.9868 15.7365 17.215 13.9104ZM7.3077 7.6923C7.3077 4.72324 9.72322 2.30771 12.6923 2.30771C15.6613 2.30771 18.0769 4.72324 18.0769 7.6923C18.0769 10.6614 15.6613 13.077 12.6923 13.077C9.72322 13.077 7.3077 10.6614 7.3077 7.6923ZM21.1538 27.6923H4.23076C3.17039 27.6923 2.30771 26.8296 2.30771 25.7692C2.30771 20.043 6.96615 15.3846 12.6923 15.3846C18.4185 15.3846 23.077 20.043 23.077 25.7692C23.0769 26.8296 22.2142 27.6923 21.1538 27.6923Z" fill="#1AA38C"/>
</svg>
