<svg width="29" height="30" viewBox="0 0 29 30" fill="none" xmlns="http://www.w3.org/2000/svg">
<path d="M27.3966 28.2422H25.0778V0.878906C25.0778 0.393516 24.6843 0 24.1989 0H4.07648C3.59109 0 3.19758 0.393516 3.19758 0.878906V28.2422H0.878906C0.393516 28.2422 0 28.6357 0 29.1211C0 29.6065 0.393516 30 0.878906 30H27.3966C27.882 30 28.2755 29.6065 28.2755 29.1211C28.2755 28.6357 27.882 28.2422 27.3966 28.2422ZM11.1418 28.2422V22.2503H17.1336V28.2422H11.1418ZM18.8914 28.2422V21.3714C18.8914 20.886 18.4979 20.4925 18.0125 20.4925H10.2629C9.77748 20.4925 9.38396 20.886 9.38396 21.3714V28.2422H4.95539V1.75781H23.32V28.2422H18.8914Z" fill="#1AA38C"/>
<path d="M12.2478 3.88525H7.94067C7.45528 3.88525 7.06177 4.27877 7.06177 4.76416V9.07127C7.06177 9.55666 7.45528 9.95018 7.94067 9.95018H12.2478C12.7332 9.95018 13.1267 9.55666 13.1267 9.07127V4.76416C13.1267 4.27877 12.7332 3.88525 12.2478 3.88525ZM11.3689 8.19236H8.81958V5.64307H11.3689V8.19236Z" fill="#1AA38C"/>
<path d="M20.3348 3.88525H16.0277C15.5423 3.88525 15.1488 4.27877 15.1488 4.76416V9.07127C15.1488 9.55666 15.5423 9.95018 16.0277 9.95018H20.3348C20.8202 9.95018 21.2137 9.55666 21.2137 9.07127V4.76416C21.2137 4.27877 20.8202 3.88525 20.3348 3.88525ZM19.4559 8.19236H16.9066V5.64307H19.4559V8.19236Z" fill="#1AA38C"/>
<path d="M12.2478 12.0674H7.94067C7.45528 12.0674 7.06177 12.4609 7.06177 12.9463V17.2534C7.06177 17.7388 7.45528 18.1323 7.94067 18.1323H12.2478C12.7332 18.1323 13.1267 17.7388 13.1267 17.2534V12.9463C13.1267 12.4609 12.7332 12.0674 12.2478 12.0674ZM11.3689 16.3745H8.81958V13.8252H11.3689V16.3745Z" fill="#1AA38C"/>
<path d="M20.3348 12.0674H16.0277C15.5423 12.0674 15.1488 12.4609 15.1488 12.9463V17.2534C15.1488 17.7388 15.5423 18.1323 16.0277 18.1323H20.3348C20.8202 18.1323 21.2137 17.7388 21.2137 17.2534V12.9463C21.2137 12.4609 20.8202 12.0674 20.3348 12.0674ZM19.4559 16.3745H16.9066V13.8252H19.4559V16.3745Z" fill="#1AA38C"/>
</svg>
