<svg width="30" height="30" viewBox="0 0 30 30" fill="none" xmlns="http://www.w3.org/2000/svg">
<g clip-path="url(#clip0_1115_1192)">
<path d="M24.1406 7.03125C26.0791 7.03125 27.6562 5.45414 27.6562 3.51562C27.6562 1.57711 26.0791 0 24.1406 0C22.2021 0 20.625 1.57711 20.625 3.51562C20.625 5.45414 22.2021 7.03125 24.1406 7.03125ZM24.1406 2.34375C24.7868 2.34375 25.3125 2.86945 25.3125 3.51562C25.3125 4.1618 24.7868 4.6875 24.1406 4.6875C23.4945 4.6875 22.9688 4.1618 22.9688 3.51562C22.9688 2.86945 23.4945 2.34375 24.1406 2.34375Z" fill="#1AA38C"/>
<path d="M17.1094 27.6562H2.34375V19.1602H14.7656C15.4129 19.1602 15.9375 18.6355 15.9375 17.9883C15.9375 17.3411 15.4129 16.8164 14.7656 16.8164H4.45312V11.9531C4.45312 11.307 4.97883 10.7812 5.625 10.7812H10.3125C10.9587 10.7812 11.4844 11.307 11.4844 11.9531V13.3008C11.4844 13.948 12.009 14.4727 12.6562 14.4727C13.3035 14.4727 13.8281 13.948 13.8281 13.3008V11.9531C13.8281 10.0146 12.251 8.4375 10.3125 8.4375H5.625C3.68648 8.4375 2.10938 10.0146 2.10938 11.9531V16.8164H1.17188C0.524648 16.8164 0 17.3411 0 17.9883V30H17.1094C17.7566 30 18.2812 29.4754 18.2812 28.8281C18.2812 28.1809 17.7566 27.6562 17.1094 27.6562Z" fill="#1AA38C"/>
<path d="M8.26172 7.08984C10.2002 7.08984 11.7773 5.51273 11.7773 3.57422C11.7773 1.6357 10.2002 0.0585938 8.26172 0.0585938C6.3232 0.0585938 4.74609 1.6357 4.74609 3.57422C4.74609 5.51273 6.3232 7.08984 8.26172 7.08984ZM8.26172 2.40234C8.90789 2.40234 9.43359 2.92805 9.43359 3.57422C9.43359 4.22039 8.90789 4.74609 8.26172 4.74609C7.61555 4.74609 7.08984 4.22039 7.08984 3.57422C7.08984 2.92805 7.61555 2.40234 8.26172 2.40234Z" fill="#1AA38C"/>
<path d="M26.4844 8.14453H21.7969C19.8584 8.14453 18.2812 9.72164 18.2812 11.6602V18.0469C18.2812 19.5747 19.2609 20.8781 20.625 21.3617V28.8281C20.625 29.4754 21.1496 30 21.7969 30C22.4441 30 22.9688 29.4754 22.9688 28.8281V20.3906C22.9688 19.7434 22.4441 19.2188 21.7969 19.2188C21.1507 19.2188 20.625 18.693 20.625 18.0469V11.6602C20.625 11.014 21.1507 10.4883 21.7969 10.4883H26.4844C27.1305 10.4883 27.6562 11.014 27.6562 11.6602V18.0469C27.6562 18.693 27.1305 19.2188 26.4844 19.2188C25.8371 19.2188 25.3125 19.7434 25.3125 20.3906V28.8281C25.3125 29.4754 25.8371 30 26.4844 30C27.1316 30 27.6562 29.4754 27.6562 28.8281V21.3617C29.0204 20.878 30 19.5747 30 18.0469V11.6602C30 9.72164 28.4229 8.14453 26.4844 8.14453Z" fill="#1AA38C"/>
</g>
<defs>
<clipPath id="clip0_1115_1192">
<rect width="30" height="30" fill="white"/>
</clipPath>
</defs>
</svg>
