<svg width="16" height="16" viewBox="0 0 16 16" fill="currentColor" xmlns="http://www.w3.org/2000/svg">
<path d="M15.5688 6.95924C15.5683 6.95888 15.5679 6.95839 15.5676 6.95802L9.0408 0.431519C8.76261 0.153199 8.39273 0 7.9993 0C7.60587 0 7.23599 0.153199 6.95767 0.431519L0.434343 6.95473C0.432146 6.95692 0.429827 6.95924 0.427752 6.96144C-0.143539 7.53603 -0.142562 8.46828 0.430559 9.0414C0.692401 9.30336 1.0381 9.45498 1.40786 9.47097C1.42299 9.47243 1.43813 9.47316 1.45339 9.47316H1.7134V14.2762C1.7134 15.2267 2.48684 16 3.4374 16H5.99087C6.24978 16 6.45962 15.7901 6.45962 15.5313V11.7656C6.45962 11.3319 6.81253 10.9791 7.24625 10.9791H8.75235C9.18607 10.9791 9.53885 11.3319 9.53885 11.7656V15.5313C9.53885 15.7901 9.74869 16 10.0076 16H12.5611C13.5118 16 14.2851 15.2267 14.2851 14.2762V9.47316H14.5263C14.9196 9.47316 15.2895 9.31997 15.5679 9.04152C16.1416 8.46755 16.1419 7.53358 15.5688 6.95924ZM14.905 8.37868C14.8038 8.47988 14.6692 8.53566 14.5263 8.53566H13.8163C13.5574 8.53566 13.3476 8.7455 13.3476 9.00441V14.2762C13.3476 14.7097 12.9948 15.0625 12.5611 15.0625H10.4764V11.7656C10.4764 10.8151 9.70304 10.0416 8.75235 10.0416H7.24625C6.29556 10.0416 5.52212 10.8151 5.52212 11.7656V15.0625H3.4374C3.00381 15.0625 2.6509 14.7097 2.6509 14.2762V9.00441C2.6509 8.7455 2.44106 8.53566 2.18215 8.53566H1.48439C1.47707 8.53517 1.46987 8.53481 1.46242 8.53469C1.32277 8.53224 1.19179 8.47682 1.09365 8.37856C0.884906 8.16982 0.884906 7.83009 1.09365 7.62123C1.09377 7.62123 1.09377 7.62111 1.09389 7.62099L1.09426 7.62062L7.62076 1.09436C7.72183 0.993166 7.85623 0.937502 7.9993 0.937502C8.14224 0.937502 8.27664 0.993166 8.37784 1.09436L14.9029 7.61928C14.9039 7.62025 14.905 7.62123 14.9059 7.62221C15.1136 7.83131 15.1132 8.17031 14.905 8.37868Z" fill="currentColor"/>
</svg>
