<svg width="30" height="29" viewBox="0 0 30 29" fill="none" xmlns="http://www.w3.org/2000/svg">
<path d="M28.5488 20.6322L30 19.7943C29.7223 19.001 29.3435 18.0514 28.9287 17.3602C28.4889 16.5843 27.9073 15.8592 27.3562 15.2153L25.9046 16.0534C25.7503 15.9541 25.5914 15.8623 25.4284 15.7782V14.1022C24.5678 13.9158 23.6698 13.8233 22.775 13.8235C21.8802 13.8238 20.9886 13.917 20.1409 14.1022V15.7782C19.9778 15.8623 19.819 15.9541 19.6647 16.0534L18.213 15.2153C17.841 15.6478 17.4301 16.1565 17.082 16.6591L15.5745 16.2834L15.2539 14.7311C16.3579 13.8222 17.0701 12.454 17.0943 10.9216C18.1214 10.5584 18.8593 9.57756 18.8593 8.42783C18.8593 7.51846 18.3969 6.71467 17.695 6.23859C18.0419 5.63121 18.231 4.93828 18.231 4.21998C18.231 1.89305 16.3379 0 14.011 0H6.32039C5.39068 1.10309 4.8665 2.5725 5.10896 3.94377C5.24801 4.8167 5.64451 5.64246 6.25635 6.3576C5.64633 6.8424 5.25404 7.59 5.25404 8.42777C5.25404 9.57797 5.99227 10.559 7.01982 10.9219C7.04402 12.454 7.756 13.8219 8.85949 14.7306L8.53881 16.2834L4.58016 17.27C3.03592 17.6548 1.82391 18.7893 1.33799 20.3047L0 24.4775H16.6538C17.0918 25.2445 17.6675 25.962 18.213 26.5996L19.6646 25.7615C19.819 25.8608 19.9778 25.9526 20.1409 26.0367V27.7126C20.9623 27.8687 21.9904 28.0158 22.7846 28.002C23.6825 28.0082 24.5968 27.8674 25.4284 27.7126V26.0367C25.5915 25.9526 25.7503 25.8608 25.9046 25.7615L27.3563 26.5996C27.9045 25.9624 28.5373 25.1596 28.9287 24.4547C29.3807 23.686 29.7178 22.8197 30 22.0205L28.5488 21.1826C28.5619 20.8396 28.5514 20.7418 28.5488 20.6322ZM7.23146 1.75775H14.0109C15.3686 1.75775 16.4731 2.8623 16.4731 4.22086C16.4731 4.40256 16.4513 4.58139 16.4104 4.75453C15.7977 3.95156 14.6493 3.57334 13.5929 3.65713C13.2064 4.28156 12.5102 5.64311 10.7781 5.78379H8.18789C7.4441 5.1951 6.96984 4.45189 6.8448 3.66721C6.74203 3.02191 6.87545 2.36895 7.23146 1.75775ZM7.89803 9.314C7.40936 9.314 7.0118 8.91645 7.0118 8.42777C7.0118 7.93934 7.40918 7.54178 7.89727 7.54154H10.7781C12.6371 7.54154 13.9212 6.23314 14.5026 5.48672C14.9891 5.656 15.3392 6.11924 15.3392 6.6627V7.54014L16.2166 7.5416C16.7045 7.54242 17.1014 7.93992 17.1014 8.42777C17.1014 8.91621 16.704 9.31377 16.2156 9.314L15.337 9.31441V10.841C15.337 12.6496 13.8656 14.1211 12.057 14.1211C10.2484 14.1211 8.77699 12.6497 8.77699 10.841V9.31406H7.89803V9.314ZM12.057 15.8788C12.6111 15.8788 13.1439 15.7876 13.6429 15.6216L13.8496 16.6222L12.0555 17.9155L10.2634 16.6236L10.4704 15.6214C10.9696 15.7875 11.5027 15.8788 12.057 15.8788ZM3.01184 20.8414C3.31061 19.9097 4.05574 19.2122 5.0052 18.9756L9.10342 17.9542L12.0555 20.0824L15.0082 17.9538L16.1825 18.2465C15.9465 18.7617 15.7468 19.2913 15.5692 19.7943L17.0204 20.6322C17.0178 20.7418 17.0074 20.8396 17.0204 21.1826L15.5692 22.0205C15.6475 22.2442 15.7341 22.4804 15.8271 22.7197H2.40961L3.01184 20.8414ZM26.6583 22.1208L27.8137 22.7879C27.6905 23.0562 27.5543 23.3196 27.4064 23.5758C27.2585 23.8319 27.0985 24.0815 26.9278 24.3224L25.7701 23.654C25.1689 24.2017 24.401 24.6376 23.6706 24.8675V26.203C23.3766 26.2304 23.0807 26.244 22.7847 26.244C22.4888 26.244 22.1928 26.2304 21.8988 26.203V24.8675C21.1218 24.619 20.3656 24.1734 19.7994 23.654L18.6416 24.3224C18.4709 24.0814 18.3108 23.8319 18.163 23.5758C18.0152 23.3197 17.879 23.0563 17.7557 22.7879L18.9112 22.1208C18.7369 21.3043 18.7457 20.447 18.9112 19.694L17.7557 19.0269C17.879 18.7585 18.0151 18.4951 18.163 18.239C18.3108 17.9829 18.4709 17.7333 18.6416 17.4924L19.7993 18.1608C20.4005 17.613 21.1685 17.1773 21.8988 16.9474V15.6118C22.1928 15.5845 22.4888 15.5708 22.7847 15.5708C23.0807 15.5708 23.3766 15.5845 23.6706 15.6118V16.9474C24.4476 17.1958 25.2038 17.6413 25.7701 18.1608L26.9278 17.4924C27.0986 17.7333 27.2586 17.9829 27.4064 18.2391C27.5543 18.4952 27.6904 18.7586 27.8137 19.0269L26.6582 19.694C26.8325 20.5106 26.8236 21.3678 26.6583 22.1208Z" fill="#1AA38C"/>
<path d="M22.7847 18.2634C21.3268 18.2634 20.1407 19.4495 20.1407 20.9075C20.1407 22.3654 21.3268 23.5515 22.7847 23.5515C24.2427 23.5515 25.4288 22.3654 25.4288 20.9075C25.4288 19.4495 24.2427 18.2634 22.7847 18.2634ZM22.7847 21.7937C22.2961 21.7937 21.8985 21.3961 21.8985 20.9075C21.8985 20.4188 22.2961 20.0212 22.7847 20.0212C23.2734 20.0212 23.671 20.4188 23.671 20.9075C23.671 21.3961 23.2734 21.7937 22.7847 21.7937Z" fill="#1AA38C"/>
</svg>
