<svg width="23" height="30" viewBox="0 0 23 30" fill="none" xmlns="http://www.w3.org/2000/svg">
<path d="M21.9099 2.70299C21.3017 2.0935 20.4929 1.75781 19.6323 1.75781H18.1787V1.46484C18.1787 0.657129 17.5216 0 16.7139 0H6.16699C5.35928 0 4.70215 0.657129 4.70215 1.46484V1.75781H3.24334C1.47024 1.75781 0.0260761 3.20191 0.024084 4.97689L1.96592e-06 26.7738C-0.000935534 27.6352 0.333459 28.4453 0.941604 29.0548C1.54981 29.6643 2.35869 30 3.21926 30H19.6082C21.3813 30 22.8255 28.5559 22.8274 26.7809L22.8516 4.98404C22.8526 4.12254 22.5181 3.31242 21.9099 2.70299ZM6.45996 1.75781H16.4209V3.51562H6.45996V1.75781ZM21.0715 26.7789C21.0705 27.5858 20.4141 28.2422 19.6082 28.2422H3.21926C2.82809 28.2422 2.46041 28.0896 2.18397 27.8126C1.90752 27.5355 1.75553 27.1673 1.75594 26.7758L1.78002 4.97889C1.7809 4.17199 2.43733 3.51562 3.24334 3.51562H4.70215V3.80859C4.70215 4.61631 5.35928 5.27344 6.16699 5.27344H16.7139C17.5216 5.27344 18.1787 4.61631 18.1787 3.80859V3.51562H19.6323C20.0235 3.51562 20.3912 3.6682 20.6676 3.94523C20.944 4.22227 21.0961 4.59053 21.0956 4.98205L21.0715 26.7789Z" fill="#1AA38C"/>
<path d="M4.80469 11.7188H11.0491C11.5345 11.7188 11.928 11.3252 11.928 10.8398C11.928 10.3545 11.5345 9.96094 11.0491 9.96094H4.80469C4.3193 9.96094 3.92578 10.3545 3.92578 10.8398C3.92578 11.3252 4.3193 11.7188 4.80469 11.7188Z" fill="#1AA38C"/>
<path d="M4.80469 17.5781H17.969C18.4544 17.5781 18.8479 17.1846 18.8479 16.6992C18.8479 16.2138 18.4544 15.8203 17.969 15.8203L4.80469 15.8203C4.3193 15.8203 3.92578 16.2138 3.92578 16.6992C3.92578 17.1846 4.3193 17.5781 4.80469 17.5781Z" fill="#1AA38C"/>
<path d="M17.994 21.6797L4.80469 21.6797C4.3193 21.6797 3.92578 22.0732 3.92578 22.5586C3.92578 23.044 4.3193 23.4375 4.80469 23.4375H17.994C18.4794 23.4375 18.8729 23.044 18.8729 22.5586C18.8729 22.0732 18.4795 21.6797 17.994 21.6797Z" fill="#1AA38C"/>
</svg>
