<svg width="26" height="30" viewBox="0 0 26 30" fill="none" xmlns="http://www.w3.org/2000/svg">
<path d="M17.8397 19.2872C18.7749 18.1301 19.3359 16.6587 19.3359 15.0586V12.2849C19.7521 12.1233 20.1679 11.9467 20.5832 11.755C20.8944 11.6113 21.0938 11.2999 21.0938 10.957V8.49609C21.0938 8.0107 20.7002 7.61719 20.2148 7.61719H19.8697C19.7155 6.31734 19.219 5.09566 18.41 4.04344C17.5915 2.97867 16.4807 2.1515 15.2344 1.66816V0.878906C15.2344 0.393516 14.8409 0 14.3555 0H10.8398C10.3545 0 9.96094 0.393516 9.96094 0.878906V1.66816C8.71459 2.1515 7.60377 2.97867 6.78527 4.04344C5.97639 5.09566 5.4798 6.31734 5.32559 7.61719H4.98047C4.49508 7.61719 4.10156 8.0107 4.10156 8.49609V10.957C4.10156 11.2999 4.3009 11.6113 4.61215 11.755C5.02746 11.9467 5.44318 12.1233 5.85938 12.2849V15.0586C5.85938 16.6587 6.42041 18.1301 7.35557 19.2872C3.06076 20.5445 0 24.5046 0 29.1211C0 29.3542 0.0926368 29.5777 0.257461 29.7425C0.422285 29.9074 0.645762 30 0.878906 30H24.3164C24.8018 30 25.1953 29.6065 25.1953 29.1211C25.1953 24.5046 22.1346 20.5445 17.8397 19.2872ZM9.96094 3.60041V4.39453C9.96094 4.87992 10.3545 5.27344 10.8398 5.27344C11.3252 5.27344 11.7188 4.87992 11.7188 4.39453V1.75781H13.4766V4.39453C13.4766 4.87992 13.8701 5.27344 14.3555 5.27344C14.8409 5.27344 15.2344 4.87992 15.2344 4.39453V3.60041C16.7488 4.41861 17.8166 5.909 18.0929 7.61719H7.10244C7.37871 5.90906 8.44646 4.41861 9.96094 3.60041ZM5.85938 10.3867V9.375H19.3359V10.3867C14.8073 12.3346 10.388 12.3346 5.85938 10.3867ZM1.80281 28.2422C2.07908 25.5592 3.6065 23.2254 5.8217 21.8719L8.36977 28.2422H1.80281ZM11.7188 28.2422H10.263L7.41229 21.1154C7.90758 20.9406 8.42484 20.8099 8.95998 20.7283C9.77637 21.2539 10.713 21.608 11.7188 21.7396V28.2422ZM7.61719 15.0586V12.8777C9.27434 13.352 10.936 13.5892 12.5977 13.5892C14.2593 13.5892 15.921 13.352 17.5781 12.8777V15.0586C17.5781 17.8048 15.3439 20.0391 12.5977 20.0391C9.85143 20.0391 7.61719 17.8048 7.61719 15.0586ZM13.4766 28.2422V21.7396C14.4823 21.608 15.4189 21.2539 16.2353 20.7283C16.7704 20.8099 17.2877 20.9405 17.783 21.1154L14.9323 28.2422H13.4766ZM16.8255 28.2422L19.3737 21.8719C21.5889 23.2254 23.1162 25.5592 23.3926 28.2422H16.8255Z" fill="#1AA38C"/>
</svg>
