<svg width="16" height="16" viewBox="0 0 16 16" fill="none" xmlns="http://www.w3.org/2000/svg">
<path d="M12.9109 1.22861H12.3141V0.624722C12.3141 0.279688 12.0344 0 11.6894 0C11.3444 0 11.0647 0.279688 11.0647 0.624722V1.22861H4.9353V0.624722C4.9353 0.279688 4.65561 0 4.31058 0C3.96555 0 3.68586 0.279688 3.68586 0.624722V1.22861H3.08909C1.38576 1.22861 0 2.61437 0 4.31767V12.9038C0 14.6071 1.38576 15.9929 3.08909 15.9929H12.9109C14.6142 15.9929 16 14.6071 16 12.9038V4.31767C16 2.61437 14.6142 1.22861 12.9109 1.22861ZM3.08909 2.47805H3.68586V3.69626C3.68586 4.04129 3.96555 4.32098 4.31058 4.32098C4.65561 4.32098 4.9353 4.04129 4.9353 3.69626V2.47805H11.0647V3.69626C11.0647 4.04129 11.3444 4.32098 11.6894 4.32098C12.0345 4.32098 12.3141 4.04129 12.3141 3.69626V2.47805H12.9109C13.9253 2.47805 14.7506 3.30331 14.7506 4.31767V4.91447H1.24944V4.31767C1.24944 3.30331 2.0747 2.47805 3.08909 2.47805ZM12.9109 14.7434H3.08909C2.0747 14.7434 1.24944 13.9182 1.24944 12.9038V6.16391H14.7506V12.9038C14.7506 13.9182 13.9253 14.7434 12.9109 14.7434ZM5.54962 8.62116C5.54962 8.96619 5.26993 9.24588 4.9249 9.24588H3.69629C3.35126 9.24588 3.07157 8.96619 3.07157 8.62116C3.07157 8.27613 3.35126 7.99644 3.69629 7.99644H4.9249C5.2699 7.99644 5.54962 8.27613 5.54962 8.62116ZM12.9285 8.62116C12.9285 8.96619 12.6488 9.24588 12.3037 9.24588H11.0751C10.7301 9.24588 10.4504 8.96619 10.4504 8.62116C10.4504 8.27613 10.7301 7.99644 11.0751 7.99644H12.3037C12.6487 7.99644 12.9285 8.27613 12.9285 8.62116ZM9.23548 8.62116C9.23548 8.96619 8.95579 9.24588 8.61076 9.24588H7.38215C7.03712 9.24588 6.75743 8.96619 6.75743 8.62116C6.75743 8.27613 7.03712 7.99644 7.38215 7.99644H8.61076C8.95576 7.99644 9.23548 8.27613 9.23548 8.62116ZM5.54962 12.307C5.54962 12.6521 5.26993 12.9317 4.9249 12.9317H3.69629C3.35126 12.9317 3.07157 12.6521 3.07157 12.307C3.07157 11.962 3.35126 11.6823 3.69629 11.6823H4.9249C5.2699 11.6823 5.54962 11.962 5.54962 12.307ZM12.9285 12.307C12.9285 12.6521 12.6488 12.9317 12.3037 12.9317H11.0751C10.7301 12.9317 10.4504 12.6521 10.4504 12.307C10.4504 11.962 10.7301 11.6823 11.0751 11.6823H12.3037C12.6487 11.6823 12.9285 11.962 12.9285 12.307ZM9.23548 12.307C9.23548 12.6521 8.95579 12.9317 8.61076 12.9317H7.38215C7.03712 12.9317 6.75743 12.6521 6.75743 12.307C6.75743 11.962 7.03712 11.6823 7.38215 11.6823H8.61076C8.95576 11.6823 9.23548 11.962 9.23548 12.307Z" fill="#092B84"/>
</svg>
