<svg width="14" height="14" viewBox="0 0 14 14" fill="none" xmlns="http://www.w3.org/2000/svg">
<path d="M13.4167 14H0.583333C0.2625 14 0 13.7375 0 13.4166C0 13.0958 0.2625 12.8333 0.583333 12.8333H13.4167C13.7375 12.8333 14 13.0958 14 13.4166C14 13.7375 13.7375 14 13.4167 14ZM8.61583 11.0016L12.32 7.06414C12.8275 6.55664 12.9733 5.83331 12.6992 5.17414C12.425 4.51497 11.8125 4.10081 11.095 4.09497H9.91667V1.74414C9.9225 0.769974 9.12333 -0.00585938 8.155 -0.00585938H5.83333C4.865 -0.00585938 4.08333 0.775807 4.08333 1.74414V4.07747H2.9925C2.31 4.07747 1.65083 4.43331 1.35333 5.04581C1.02083 5.73414 1.155 6.50997 1.66833 7.02914L5.3375 10.9958C5.78667 11.445 6.38167 11.6725 6.97667 11.6725C7.57167 11.6725 8.16083 11.445 8.61583 10.9958V11.0016Z" fill="#092B84"/>
</svg>
