<svg width="18" height="21" viewBox="0 0 18 21" fill="none" xmlns="http://www.w3.org/2000/svg">
<path d="M16.5914 7.6539H16.1112V5.3367C16.1112 5.32226 16.1089 5.3077 16.1072 5.29293C16.1064 5.20101 16.0769 5.11065 16.0139 5.03905L12.1577 0.634126C12.1565 0.632995 12.1553 0.632594 12.1546 0.63139C12.1316 0.60571 12.1048 0.584335 12.0764 0.565877C12.068 0.56026 12.0596 0.555554 12.0508 0.550594C12.0263 0.537279 12.0002 0.526081 11.9734 0.51802C11.9661 0.516123 11.9596 0.513132 11.9524 0.511235C11.9232 0.504304 11.893 0.5 11.8624 0.5H2.38549C1.95276 0.5 1.60119 0.851966 1.60119 1.28433V7.65368H1.12101C0.50196 7.65368 0 8.15546 0 8.77473V14.6042C0 15.2229 0.50196 15.7252 1.12101 15.7252H1.60119V19.7157C1.60119 20.1481 1.95276 20.5 2.38549 20.5H15.3266C15.759 20.5 16.1109 20.1481 16.1109 19.7157V15.7252H16.5912C17.2101 15.7252 17.7121 15.2231 17.7121 14.6042V8.77495C17.7121 8.1555 17.2104 7.6539 16.5914 7.6539ZM2.38549 1.28433H11.4702V5.29701C11.4702 5.51369 11.6459 5.68918 11.8624 5.68918H15.3267V7.65387H2.38549V1.28433ZM10.3309 11.9779C9.56032 11.7094 9.05753 11.2832 9.05753 10.6084C9.05753 9.81691 9.71812 9.21143 10.8127 9.21143C11.3354 9.21143 11.721 9.32137 11.996 9.44536L11.7622 10.2916C11.5765 10.2024 11.2462 10.0714 10.792 10.0714C10.3378 10.0714 10.1176 10.2779 10.1176 10.5188C10.1176 10.8149 10.3792 10.9455 10.9777 11.1725C11.7965 11.4755 12.1819 11.9021 12.1819 12.5558C12.1819 13.3336 11.5832 13.9943 10.31 13.9943C9.78021 13.9943 9.25724 13.8568 8.9957 13.712L9.20883 12.845C9.49109 12.9894 9.92477 13.1341 10.3719 13.1341C10.8541 13.1341 11.1083 12.9346 11.1083 12.6317C11.1085 12.3429 10.8883 12.1774 10.3309 11.9779ZM8.55593 13.0444V13.9256H5.65824V9.28665H6.71158V13.0444H8.55593ZM2.29356 13.9256H1.09617L2.43808 11.5782L1.14414 9.28647H2.34864L2.75445 10.1331C2.89211 10.4153 2.99542 10.6421 3.10565 10.904H3.11904C3.22945 10.608 3.31882 10.4016 3.43547 10.1331L3.82782 9.28647H5.02525L3.71762 11.5504L5.09427 13.9252H3.88316L3.46312 13.0854C3.29135 12.7624 3.18116 12.5213 3.05035 12.2529H3.03667C2.94019 12.5213 2.82346 12.7624 2.6788 13.0854L2.29356 13.9256ZM15.3267 19.5033H2.38549V15.7252H15.3266V19.5033H15.3267ZM15.3338 13.9256L14.9138 13.0858C14.7418 12.7625 14.6318 12.5217 14.5009 12.2532H14.4876C14.3911 12.5217 14.2739 12.7625 14.1291 13.0858L13.7443 13.9256H12.5465L13.8884 11.5782L12.5946 9.28647H13.799L14.2053 10.1331C14.3429 10.4153 14.4458 10.6421 14.5562 10.904H14.5699C14.6798 10.608 14.7691 10.4016 14.8862 10.1331L15.2784 9.28647H16.4761L15.1685 11.5504L16.5449 13.9252H15.3338V13.9256Z" fill="#1AA38C"/>
</svg>
