<svg width="15" height="10" viewBox="0 0 15 10" fill="none" xmlns="http://www.w3.org/2000/svg">
<path d="M14.4491 4.95244C13.131 2.38066 10.5216 0.640625 7.53369 0.640625C4.5458 0.640625 1.93563 2.38188 0.618262 4.95268C0.562661 5.06267 0.533691 5.18418 0.533691 5.30742C0.533691 5.43066 0.562661 5.55218 0.618262 5.66216C1.93635 8.23394 4.5458 9.97398 7.53369 9.97398C10.5216 9.97398 13.1318 8.23272 14.4491 5.66192C14.5047 5.55193 14.5337 5.43042 14.5337 5.30718C14.5337 5.18394 14.5047 5.06242 14.4491 4.95244ZM7.53369 8.80731C6.84146 8.80731 6.16476 8.60204 5.58919 8.21745C5.01362 7.83286 4.56501 7.28624 4.30011 6.6467C4.0352 6.00715 3.96589 5.30342 4.10094 4.62448C4.23599 3.94555 4.56933 3.32191 5.05881 2.83242C5.5483 2.34294 6.17194 2.00959 6.85087 1.87455C7.52981 1.7395 8.23354 1.80881 8.87309 2.07372C9.51263 2.33862 10.0593 2.78723 10.4438 3.3628C10.8284 3.93837 11.0337 4.61506 11.0337 5.3073C11.0339 5.76699 10.9435 6.22222 10.7677 6.64696C10.5919 7.0717 10.3341 7.45763 10.0091 7.78268C9.68402 8.10773 9.29809 8.36553 8.87335 8.54134C8.44861 8.71715 7.99338 8.80753 7.53369 8.80731ZM7.53369 2.97396C7.32542 2.97687 7.1185 3.00786 6.91852 3.06608C7.08336 3.2901 7.16247 3.56578 7.14149 3.84312C7.12051 4.12046 7.00083 4.3811 6.80416 4.57777C6.60749 4.77444 6.34685 4.89411 6.06951 4.9151C5.79217 4.93608 5.51649 4.85697 5.29247 4.69213C5.16491 5.1621 5.18793 5.66024 5.35831 6.11643C5.52869 6.57263 5.83784 6.96392 6.24224 7.23521C6.64665 7.50651 7.12594 7.64415 7.61268 7.62878C8.09941 7.6134 8.56907 7.44578 8.95554 7.1495C9.34201 6.85322 9.62585 6.4432 9.76709 5.97716C9.90833 5.51112 9.89987 5.01252 9.7429 4.55154C9.58593 4.09055 9.28835 3.6904 8.89204 3.40741C8.49574 3.12441 8.02067 2.97282 7.53369 2.97396Z" fill="#092B84"/>
</svg>
