<svg width="16" height="16" viewBox="0 0 16 16" fill="none" xmlns="http://www.w3.org/2000/svg">
<path d="M15.8627 2.63731L13.3627 0.137313C13.2748 0.0494063 13.1556 0 13.0312 0H11.2812V4.53125C11.2812 4.79012 11.0714 5 10.8125 5H3.3125C3.05363 5 2.84375 4.79012 2.84375 4.53125V0H0.46875C0.209875 0 0 0.209875 0 0.46875V15.5312C0 15.7901 0.209875 16 0.46875 16C0.613906 16 15.3363 16 15.5312 16C15.7901 16 16 15.7901 16 15.5312V2.96875C16 2.84444 15.9506 2.72522 15.8627 2.63731ZM12.2188 15.0625H3.78125V8.5H12.2188V15.0625Z" fill="white"/>
</svg>
