<svg width="16" height="16" viewBox="0 0 16 16" fill="none" xmlns="http://www.w3.org/2000/svg">
<path d="M14.4412 0.601127C13.5626 0.213501 12.4048 0 11.181 0C9.95723 0 8.79941 0.213501 7.92081 0.601127C6.92028 1.04257 6.36924 1.67607 6.36924 2.38492V6.42459C5.90527 6.27849 5.4118 6.19952 4.90024 6.19952C2.19823 6.19952 0 8.39775 0 11.0998C0 13.8017 2.19823 16 4.90024 16C6.75912 16 8.3795 14.9596 9.20979 13.4305C9.82404 13.5601 10.4976 13.6282 11.181 13.6282C12.4048 13.6282 13.5626 13.4147 14.4412 13.0271C15.4418 12.5857 15.9928 11.9522 15.9928 11.2433V2.38492C15.9928 1.67607 15.4417 1.04257 14.4412 0.601127ZM8.29925 1.45885C9.06122 1.12266 10.0847 0.937504 11.181 0.937504C12.2774 0.937504 13.3008 1.12266 14.0628 1.45885C14.675 1.72894 15.0553 2.08382 15.0553 2.38492C15.0553 2.68601 14.675 3.04086 14.0628 3.31098C13.3008 3.64717 12.2774 3.83233 11.181 3.83233C10.0847 3.83233 9.06122 3.64717 8.29925 3.31098C7.68706 3.04086 7.30675 2.68604 7.30675 2.38492C7.30675 2.08379 7.68706 1.72894 8.29925 1.45885ZM4.90021 15.0625C2.71514 15.0625 0.937472 13.2848 0.937472 11.0998C0.937472 8.91469 2.71514 7.13703 4.90021 7.13703C7.08525 7.13703 8.86294 8.91469 8.86294 11.0998C8.86294 13.2848 7.08528 15.0625 4.90021 15.0625ZM14.0628 12.1694C13.3008 12.5055 12.2774 12.6907 11.181 12.6907C10.6277 12.6907 10.0839 12.642 9.58176 12.5487C9.70319 12.1572 9.77654 11.7448 9.79535 11.3184C10.2405 11.3812 10.7042 11.4136 11.181 11.4136C12.4048 11.4136 13.5626 11.2001 14.4412 10.8125C14.6699 10.7116 14.8748 10.6006 15.0553 10.481V11.2433C15.0553 11.5444 14.675 11.8993 14.0628 12.1694ZM14.0628 9.95476C13.3008 10.2909 12.2774 10.4761 11.181 10.4761C10.6822 10.4761 10.2009 10.4375 9.74501 10.3625C9.67379 9.89251 9.53535 9.44435 9.34019 9.02785C9.9167 9.13985 10.5424 9.19901 11.181 9.19901C12.4048 9.19901 13.5626 8.98553 14.4412 8.59791C14.6699 8.497 14.8748 8.38597 15.0553 8.26641V9.02869C15.0553 9.32982 14.675 9.68466 14.0628 9.95476ZM14.0628 7.74019C13.3008 8.07638 12.2774 8.26153 11.181 8.26153C10.2117 8.26153 9.28651 8.11378 8.55988 7.84494C8.20172 7.44269 7.7785 7.09965 7.30675 6.83256V6.05184C7.48725 6.1714 7.69216 6.28243 7.92081 6.38331C8.79941 6.77093 9.95723 6.98443 11.181 6.98443C12.4048 6.98443 13.5626 6.77093 14.4412 6.38331C14.6699 6.2824 14.8748 6.1714 15.0553 6.05184V6.81412C15.0553 7.11522 14.675 7.47006 14.0628 7.74019ZM14.0628 5.52555C13.3008 5.86174 12.2774 6.0469 11.181 6.0469C10.0847 6.0469 9.06122 5.86174 8.29925 5.52555C7.68706 5.25546 7.30675 4.90061 7.30675 4.59949V3.8372C7.48725 3.95677 7.69216 4.0678 7.92081 4.1687C8.79941 4.55633 9.95723 4.7698 11.181 4.7698C12.4048 4.7698 13.5626 4.55633 14.4412 4.1687C14.6699 4.0678 14.8748 3.95677 15.0553 3.8372V4.59949C15.0553 4.90061 14.675 5.25546 14.0628 5.52555Z" fill="black"/>
<path d="M5.52608 10.5954H4.52061C4.29426 10.5954 4.11011 10.4113 4.11011 10.1849C4.11011 9.95859 4.29426 9.77444 4.52061 9.77444H6.2182V8.83694H5.36892V8.20447H4.43142V8.84022C3.72961 8.88634 3.17261 9.47166 3.17261 10.1849C3.17261 10.9282 3.77733 11.5329 4.52061 11.5329H5.52608C5.77204 11.5329 5.97214 11.7331 5.97214 11.979C5.97214 12.225 5.77204 12.4251 5.52608 12.4251H3.35942V13.3626H4.43142V13.9951H5.36892V13.3626H5.52608C6.28898 13.3626 6.90964 12.7419 6.90964 11.979C6.90964 11.2161 6.28898 10.5954 5.52608 10.5954Z" fill="black"/>
</svg>
