<svg width="14" height="14" viewBox="0 0 14 14" fill="none" xmlns="http://www.w3.org/2000/svg">
<g clip-path="url(#clip0_74_814)">
<path d="M8.75 1.40936V2.63436C9.91762 3.04718 10.9017 3.85948 11.5283 4.9277C12.155 5.99592 12.3838 7.25128 12.1744 8.4719C11.965 9.69251 11.3308 10.7998 10.3839 11.598C9.43703 12.3963 8.23845 12.8341 7 12.8341C5.76154 12.8341 4.56296 12.3963 3.61609 11.598C2.66922 10.7998 2.03503 9.69251 1.8256 8.4719C1.61618 7.25128 1.845 5.99592 2.47164 4.9277C3.09827 3.85948 4.08237 3.04718 5.25 2.63436V1.40936C3.75994 1.83175 2.47294 2.77882 1.62647 4.07581C0.780006 5.3728 0.431205 6.93218 0.644431 8.4662C0.857657 10.0002 1.61852 11.4053 2.78662 12.4223C3.95472 13.4393 5.45123 13.9994 7 13.9994C8.54876 13.9994 10.0453 13.4393 11.2134 12.4223C12.3815 11.4053 13.1423 10.0002 13.3556 8.4662C13.5688 6.93218 13.22 5.3728 12.3735 4.07581C11.5271 2.77882 10.2401 1.83175 8.75 1.40936Z" fill="#FF5F61"/>
<path d="M7.58332 0H6.41666V4.66667H7.58332V0Z" fill="#FF5F61"/>
</g>
<defs>
<clipPath id="clip0_74_814">
<rect width="14" height="14" fill="white"/>
</clipPath>
</defs>
</svg>
