<svg width="16" height="16" viewBox="0 0 16 16" fill="none" xmlns="http://www.w3.org/2000/svg">
<path d="M15.9519 8.2869L14.0108 1.04243C13.8101 0.293462 13.0375 -0.152632 12.2885 0.0480868L2.02553 2.79802C1.27653 2.99871 0.830469 3.77134 1.03116 4.52031L1.34431 5.68906C0.597531 5.72162 0 6.33912 0 7.09374V14.5937C0 15.3691 0.630844 16 1.40625 16H12.0312C12.8067 16 13.4375 15.3691 13.4375 14.5937V10.4165L14.9576 10.0092C15.7066 9.80846 16.1526 9.03587 15.9519 8.2869ZM13.6309 3.24712L13.8736 4.15268L8.14556 5.68749H4.52334L13.6309 3.24712ZM2.26819 3.70359L12.5312 0.953618C12.7808 0.886712 13.0383 1.0354 13.1053 1.28509L13.3883 2.34156L2.21978 5.33415L1.93669 4.27768C1.86981 4.02802 2.0185 3.77049 2.26819 3.70359ZM12.5 14.5937C12.5 14.8522 12.2897 15.0625 12.0312 15.0625H1.40625C1.14778 15.0625 0.9375 14.8522 0.9375 14.5937V7.09374C0.9375 6.83527 1.14778 6.62499 1.40625 6.62499H12.0312C12.2897 6.62499 12.5 6.83527 12.5 7.09374V14.5937ZM14.7149 9.10365L13.4375 9.44593V7.09374C13.4375 6.31834 12.8067 5.68749 12.0312 5.68749H11.7678L14.1162 5.05824L15.0463 8.52956C15.1133 8.77918 14.9646 9.03674 14.7149 9.10365Z" fill="black"/>
<path d="M2.34375 10.375H5.46875C5.72762 10.375 5.9375 10.1651 5.9375 9.90625V8.03125C5.9375 7.77237 5.72762 7.5625 5.46875 7.5625H2.34375C2.08487 7.5625 1.875 7.77237 1.875 8.03125V9.90625C1.875 10.1651 2.08487 10.375 2.34375 10.375ZM2.8125 8.5H5V9.4375H2.8125V8.5Z" fill="black"/>
<path d="M11.0938 7.5625H9.53125C9.27237 7.5625 9.0625 7.77237 9.0625 8.03125C9.0625 8.29013 9.27237 8.5 9.53125 8.5H11.0938C11.3526 8.5 11.5625 8.29013 11.5625 8.03125C11.5625 7.77237 11.3526 7.5625 11.0938 7.5625Z" fill="black"/>
<path d="M11.0938 9.4375H9.53125C9.27237 9.4375 9.0625 9.64737 9.0625 9.90625C9.0625 10.1651 9.27237 10.375 9.53125 10.375H11.0938C11.3526 10.375 11.5625 10.1651 11.5625 9.90625C11.5625 9.64737 11.3526 9.4375 11.0938 9.4375Z" fill="black"/>
<path d="M5.46875 13.1875H2.34375C2.08487 13.1875 1.875 13.3974 1.875 13.6562C1.875 13.9151 2.08487 14.125 2.34375 14.125H5.46875C5.72762 14.125 5.9375 13.9151 5.9375 13.6562C5.9375 13.3974 5.72762 13.1875 5.46875 13.1875Z" fill="black"/>
<path d="M2.34375 12.25H3.28125C3.54013 12.25 3.75 12.0401 3.75 11.7812C3.75 11.5224 3.54013 11.3125 3.28125 11.3125H2.34375C2.08487 11.3125 1.875 11.5224 1.875 11.7812C1.875 12.0401 2.08487 12.25 2.34375 12.25Z" fill="black"/>
<path d="M6.09375 11.3125H5.15625C4.89737 11.3125 4.6875 11.5224 4.6875 11.7812C4.6875 12.0401 4.89737 12.25 5.15625 12.25H6.09375C6.35263 12.25 6.5625 12.0401 6.5625 11.7812C6.5625 11.5224 6.35263 11.3125 6.09375 11.3125Z" fill="black"/>
<path d="M8.90625 11.3125H7.96875C7.70987 11.3125 7.5 11.5224 7.5 11.7812C7.5 12.0401 7.70987 12.25 7.96875 12.25H8.90625C9.16513 12.25 9.375 12.0401 9.375 11.7812C9.375 11.5224 9.16513 11.3125 8.90625 11.3125Z" fill="black"/>
</svg>
