<svg width="18" height="21" viewBox="0 0 18 21" fill="none" xmlns="http://www.w3.org/2000/svg">
<path d="M4.6796 10.7467C4.6796 10.2081 4.30564 9.88672 3.64569 9.88672C3.37648 9.88672 3.19409 9.91268 3.09845 9.93872V11.6681C3.21152 11.6938 3.35052 11.7025 3.54115 11.7025C4.24525 11.7025 4.6796 11.3464 4.6796 10.7467Z" fill="#FF5F61"/>
<path d="M8.76419 9.9043C8.46843 9.9043 8.27773 9.93033 8.16437 9.9564V13.788C8.27751 13.8145 8.46001 13.8145 8.62515 13.8145C9.82402 13.8229 10.606 13.1629 10.606 11.7639C10.6148 10.547 9.90216 9.9043 8.76419 9.9043Z" fill="#FF5F61"/>
<path d="M16.5912 7.65391H16.1109V5.3367C16.1109 5.32225 16.1086 5.30769 16.1067 5.29306C16.106 5.20104 16.0767 5.11067 16.0137 5.03906L12.1576 0.634132C12.1564 0.633006 12.1553 0.632607 12.1545 0.631372C12.1315 0.605701 12.1047 0.58435 12.0764 0.565868C12.068 0.56024 12.0596 0.555519 12.0508 0.550654C12.0262 0.537255 12.0002 0.526144 11.9734 0.518119C11.9661 0.516086 11.9596 0.513108 11.9523 0.51122C11.9232 0.504321 11.893 0.5 11.8623 0.5H2.38547C1.95272 0.5 1.60116 0.85196 1.60116 1.28435V7.65373H1.12102C0.50196 7.65373 0 8.15547 0 8.77475V14.6043C0 15.2231 0.50196 15.7252 1.12102 15.7252H1.6012V19.7157C1.6012 20.148 1.95276 20.5 2.38551 20.5H15.3267C15.759 20.5 16.111 20.148 16.111 19.7157V15.7252H16.5912C17.2101 15.7252 17.7122 15.2231 17.7122 14.6043V8.77493C17.7121 8.15569 17.2101 7.65391 16.5912 7.65391ZM2.38547 1.28449H11.4702V5.2973C11.4702 5.51397 11.6459 5.68946 11.8623 5.68946H15.3266V7.65416H2.38547V1.28449ZM12.0136 11.7209C12.0136 12.842 11.6054 13.615 11.0397 14.0931C10.4235 14.6057 9.48491 14.8489 8.33836 14.8489C7.65209 14.8489 7.16564 14.8055 6.83506 14.7622V9.00997C7.32159 8.93194 7.95627 8.88847 8.62533 8.88847C9.73687 8.88847 10.4582 9.08847 11.0233 9.51396C11.6312 9.96585 12.0136 10.6869 12.0136 11.7209ZM1.78634 14.7882V9.00997C2.19451 8.94083 2.76826 8.88847 3.57632 8.88847C4.39298 8.88847 4.97526 9.0449 5.36611 9.3579C5.73982 9.65314 5.9912 10.1398 5.9912 10.7133C5.9912 11.287 5.80057 11.7735 5.45275 12.1035C5.00097 12.5293 4.33202 12.7206 3.54981 12.7206C3.37632 12.7206 3.21938 12.7118 3.09829 12.6944V14.7884H1.78634V14.7882ZM15.3267 19.5033H2.38547V15.7252H15.3266V19.5033H15.3267ZM16.4631 10.018H14.2122V11.3561H16.3151V12.4336H14.2122V14.7883H12.8835V8.93194H16.4631V10.018Z" fill="#FF5F61"/>
</svg>
