<svg width="16" height="15" viewBox="0 0 16 15" fill="none" xmlns="http://www.w3.org/2000/svg">
<path d="M10.3109 11.9297H5.68862C5.39409 11.9297 5.15527 12.1685 5.15527 12.463C5.15527 12.7576 5.39405 12.9964 5.68862 12.9964H10.3108C10.6054 12.9964 10.8442 12.7576 10.8442 12.463C10.8442 12.1685 10.6054 11.9297 10.3109 11.9297Z" fill="#092B84"/>
<path d="M10.3109 10.248H5.68862C5.39409 10.248 5.15527 10.4868 5.15527 10.7814C5.15527 11.076 5.39405 11.3147 5.68862 11.3147H10.3108C10.6054 11.3147 10.8442 11.076 10.8442 10.7814C10.8442 10.4868 10.6054 10.248 10.3109 10.248Z" fill="#092B84"/>
<path d="M14.7556 3.62006H13.0586V0.533344C13.0586 0.238812 12.8198 0 12.5253 0H3.47475C3.18022 0 2.94141 0.238781 2.94141 0.533344V3.62006H1.24444C0.55825 3.62006 0 4.17834 0 4.86453V10.2302C0 10.9164 0.55825 11.4747 1.24444 11.4747H2.9415V14.3376C2.9415 14.6321 3.18028 14.8709 3.47484 14.8709H12.5252C12.8197 14.8709 13.0585 14.6322 13.0585 14.3376V11.4747H14.7556C15.4418 11.4747 16 10.9164 16 10.2302V4.86453C16 4.17837 15.4418 3.62006 14.7556 3.62006ZM4.00806 1.06669H11.9919V3.62006H4.00806V1.06669ZM11.9918 13.8042H4.00819C4.00819 13.7 4.00819 9.56978 4.00819 9.44088H11.9918C11.9918 9.57303 11.9918 13.704 11.9918 13.8042ZM12.5253 6.75178H11.1677C10.8731 6.75178 10.6343 6.513 10.6343 6.21844C10.6343 5.92387 10.8731 5.68509 11.1677 5.68509H12.5253C12.8198 5.68509 13.0586 5.92387 13.0586 6.21844C13.0586 6.513 12.8198 6.75178 12.5253 6.75178Z" fill="#092B84"/>
</svg>
