<svg width="13" height="16" viewBox="0 0 13 16" fill="none" xmlns="http://www.w3.org/2000/svg">
<path d="M11.6853 1.44159C11.3609 1.11653 10.9295 0.9375 10.4706 0.9375H9.69531V0.78125C9.69531 0.350469 9.34484 0 8.91406 0H3.28906C2.85828 0 2.50781 0.350469 2.50781 0.78125V0.9375H1.72978C0.784126 0.9375 0.0139073 1.70769 0.0128448 2.65434L1.04849e-06 14.2793C-0.000498952 14.7388 0.177845 15.1708 0.502189 15.4959C0.826564 15.821 1.25797 16 1.71694 16H10.4577C11.4034 16 12.1736 15.2298 12.1746 14.2832L12.1875 2.65816C12.188 2.19869 12.0097 1.76663 11.6853 1.44159ZM3.44531 0.9375H8.75781V1.875H3.44531V0.9375ZM11.2381 14.2821C11.2376 14.7124 10.8875 15.0625 10.4577 15.0625H1.71694C1.50831 15.0625 1.31222 14.9811 1.16478 14.8334C1.01734 14.6856 0.936282 14.4892 0.936501 14.2804L0.949345 2.65541C0.949813 2.22506 1.29991 1.875 1.72978 1.875H2.50781V2.03125C2.50781 2.46203 2.85828 2.8125 3.28906 2.8125H8.91406C9.34484 2.8125 9.69531 2.46203 9.69531 2.03125V1.875H10.4706C10.6792 1.875 10.8753 1.95638 11.0227 2.10413C11.1702 2.25187 11.2513 2.44828 11.251 2.65709L11.2381 14.2821Z" fill="black"/>
<path d="M2.5625 6.25H5.89284C6.15172 6.25 6.36159 6.04013 6.36159 5.78125C6.36159 5.52237 6.15172 5.3125 5.89284 5.3125H2.5625C2.30362 5.3125 2.09375 5.52237 2.09375 5.78125C2.09375 6.04013 2.30362 6.25 2.5625 6.25Z" fill="black"/>
<path d="M2.5625 9.375H9.58349C9.84236 9.375 10.0522 9.16513 10.0522 8.90625C10.0522 8.64737 9.84236 8.4375 9.58349 8.4375L2.5625 8.4375C2.30362 8.4375 2.09375 8.64737 2.09375 8.90625C2.09375 9.16513 2.30362 9.375 2.5625 9.375Z" fill="black"/>
<path d="M9.5968 11.5625L2.5625 11.5625C2.30362 11.5625 2.09375 11.7724 2.09375 12.0312C2.09375 12.2901 2.30362 12.5 2.5625 12.5H9.5968C9.85568 12.5 10.0656 12.2901 10.0656 12.0312C10.0656 11.7724 9.85571 11.5625 9.5968 11.5625Z" fill="black"/>
</svg>
