<svg width="16" height="16" viewBox="0 0 16 16" fill="none" xmlns="http://www.w3.org/2000/svg">
<path d="M14.6115 15.0625H13.3748V0.46875C13.3748 0.209875 13.165 0 12.9061 0H2.17413C1.91525 0 1.70538 0.209875 1.70538 0.46875V15.0625H0.46875C0.209875 15.0625 0 15.2724 0 15.5312C0 15.7901 0.209875 16 0.46875 16H14.6115C14.8704 16 15.0803 15.7901 15.0803 15.5312C15.0803 15.2724 14.8704 15.0625 14.6115 15.0625ZM5.94228 15.0625V11.8668H9.13794V15.0625H5.94228ZM10.0754 15.0625V11.3981C10.0754 11.1392 9.86556 10.9293 9.60669 10.9293H5.47353C5.21466 10.9293 5.00478 11.1392 5.00478 11.3981V15.0625H2.64288V0.9375H12.4373V15.0625H10.0754Z" fill="#0D0D0D"/>
<path d="M6.53223 2.07214H4.23511C3.97623 2.07214 3.76636 2.28202 3.76636 2.54089V4.83802C3.76636 5.09689 3.97623 5.30677 4.23511 5.30677H6.53223C6.79111 5.30677 7.00098 5.09689 7.00098 4.83802V2.54089C7.00098 2.28202 6.79111 2.07214 6.53223 2.07214ZM6.06348 4.36927H4.70386V3.00964H6.06348V4.36927Z" fill="#0D0D0D"/>
<path d="M10.8452 2.07214H8.5481C8.28922 2.07214 8.07935 2.28202 8.07935 2.54089V4.83802C8.07935 5.09689 8.28922 5.30677 8.5481 5.30677H10.8452C11.1041 5.30677 11.314 5.09689 11.314 4.83802V2.54089C11.314 2.28202 11.1041 2.07214 10.8452 2.07214ZM10.3765 4.36927H9.01685V3.00964H10.3765V4.36927Z" fill="#0D0D0D"/>
<path d="M6.53223 6.43604H4.23511C3.97623 6.43604 3.76636 6.64591 3.76636 6.90479V9.20191C3.76636 9.46079 3.97623 9.67066 4.23511 9.67066H6.53223C6.79111 9.67066 7.00098 9.46079 7.00098 9.20191V6.90479C7.00098 6.64591 6.79111 6.43604 6.53223 6.43604ZM6.06348 8.73316H4.70386V7.37354H6.06348V8.73316Z" fill="#0D0D0D"/>
<path d="M10.8452 6.43604H8.5481C8.28922 6.43604 8.07935 6.64591 8.07935 6.90479V9.20191C8.07935 9.46079 8.28922 9.67066 8.5481 9.67066H10.8452C11.1041 9.67066 11.314 9.46079 11.314 9.20191V6.90479C11.314 6.64591 11.1041 6.43604 10.8452 6.43604ZM10.3765 8.73316H9.01685V7.37354H10.3765V8.73316Z" fill="#0D0D0D"/>
</svg>
