<svg width="15" height="16" viewBox="0 0 15 16" fill="none" xmlns="http://www.w3.org/2000/svg">
<path d="M7.34375 12.7188H4.84375C4.58484 12.7188 4.375 12.9286 4.375 13.1875C4.375 13.4464 4.58484 13.6562 4.84375 13.6562H7.34375C7.60262 13.6562 7.8125 13.4464 7.8125 13.1875C7.8125 12.9286 7.60262 12.7188 7.34375 12.7188Z" fill="black"/>
<path d="M7.34375 10.8438H4.84375C4.58484 10.8438 4.375 11.0536 4.375 11.3125C4.375 11.5714 4.58484 11.7812 4.84375 11.7812H7.34375C7.60262 11.7812 7.8125 11.5714 7.8125 11.3125C7.8125 11.0536 7.60262 10.8438 7.34375 10.8438Z" fill="black"/>
<path d="M14.724 9.229L13.1773 7.68219C12.9944 7.49925 12.6974 7.49916 12.5144 7.68219L12.1875 8.00906V1.875C12.1875 1.61612 11.9776 1.40625 11.7188 1.40625H8.90625V0.46875C8.90625 0.209875 8.69637 0 8.4375 0H3.75C3.49109 0 3.28125 0.209875 3.28125 0.46875V1.40625H0.46875C0.209844 1.40625 0 1.61612 0 1.875V15.5312C0 15.7901 0.209844 16 0.46875 16H11.7188C11.9776 16 12.1875 15.7901 12.1875 15.5312V12.4284L14.724 9.89188C14.9071 9.70884 14.9071 9.41203 14.724 9.229ZM7.96875 0.9375V2.8125H4.21875V0.9375H7.96875ZM11.25 15.0625H0.9375V2.34375H3.28125V3.28125C3.28125 3.54012 3.49109 3.75 3.75 3.75H8.4375C8.69637 3.75 8.90625 3.54012 8.90625 3.28125V2.34375H11.25V8.94656L8.88728 11.3092C8.79934 11.3972 8.75 11.5164 8.75 11.6407V13.1875C8.75 13.4464 8.95984 13.6562 9.21875 13.6562H10.7656C10.8899 13.6562 11.0091 13.6069 11.097 13.5189L11.25 13.3659V15.0625ZM10.5714 12.7188H9.6875V11.8349L12.8458 8.67656L13.7297 9.56044L10.5714 12.7188Z" fill="black"/>
<path d="M9.0131 6.77213C9.12888 6.54057 9.03503 6.25901 8.80347 6.14323L6.30347 4.89323C6.1715 4.82726 6.01619 4.82726 5.88422 4.89323L3.38422 6.14323C3.15266 6.25901 3.05881 6.54057 3.1746 6.77213C3.2816 6.98616 3.53019 7.08216 3.7501 7.00407V9.21876C3.7501 9.47763 3.95994 9.68751 4.21885 9.68751H7.96884C8.22772 9.68751 8.43759 9.47763 8.43759 9.21876V7.00435C8.65953 7.08313 8.90691 6.98454 9.0131 6.77213ZM6.5626 8.75001V8.28126C6.5626 8.02238 6.35272 7.81251 6.09385 7.81251C5.83494 7.81251 5.6251 8.02238 5.6251 8.28126V8.75001H4.6876V6.5397L6.09385 5.83657L7.50009 6.5397V8.75001H6.5626Z" fill="black"/>
</svg>
