<svg width="16" height="16" viewBox="0 0 16 16" fill="none" xmlns="http://www.w3.org/2000/svg">
<g clip-path="url(#clip0_1115_885)">
<path d="M12.25 9.40625H11.3125C11.054 9.40625 10.8438 9.19597 10.8438 8.9375H9.90625C9.90625 9.71291 10.5371 10.3438 11.3125 10.3438V11.2812H12.25V10.3438C13.0254 10.3438 13.6562 9.71291 13.6562 8.9375C13.6562 8.16209 13.0254 7.53125 12.25 7.53125H11.3125C11.054 7.53125 10.8438 7.32097 10.8438 7.0625C10.8438 6.80403 11.054 6.59375 11.3125 6.59375H12.25C12.5085 6.59375 12.7188 6.80403 12.7188 7.0625H13.6562C13.6562 6.28709 13.0254 5.65625 12.25 5.65625V4.71875H11.3125V5.65625C10.5371 5.65625 9.90625 6.28709 9.90625 7.0625C9.90625 7.83791 10.5371 8.46875 11.3125 8.46875H12.25C12.5085 8.46875 12.7188 8.67903 12.7188 8.9375C12.7188 9.19597 12.5085 9.40625 12.25 9.40625Z" fill="black"/>
<path d="M8.96875 4.71875H0V11.2812H8.96875V4.71875ZM8.03125 5.65625V6.59375H0.9375V5.65625H8.03125ZM0.9375 10.3438V7.53125H8.03125V10.3438H0.9375Z" fill="black"/>
<path d="M6.15625 8.46875H7.09375V9.40625H6.15625V8.46875Z" fill="black"/>
<path d="M1.875 8.46875H5.21875V9.40625H1.875V8.46875Z" fill="black"/>
<path d="M13.6569 2.34313C12.1459 0.832156 10.1369 0 8.00001 0C5.96245 0 4.04192 0.761438 2.57373 2.12097V0.5H1.63623V3.78125H4.91748V2.84375H3.17292C4.47373 1.62219 6.18439 0.9375 8.00001 0.9375C9.88648 0.9375 11.66 1.67212 12.9939 3.00606C14.3279 4.34 15.0625 6.11353 15.0625 8C15.0625 9.88647 14.3279 11.66 12.9939 12.9939C11.66 14.3279 9.88648 15.0625 8.00001 15.0625C5.8362 15.0625 3.8212 14.0904 2.4717 12.3955L1.73826 12.9795C3.26667 14.8991 5.54898 16 8.00001 16C10.1369 16 12.1459 15.1678 13.6569 13.6569C15.1679 12.1458 16 10.1369 16 8C16 5.86312 15.1679 3.85416 13.6569 2.34313Z" fill="black"/>
</g>
<defs>
<clipPath id="clip0_1115_885">
<rect width="16" height="16" fill="white"/>
</clipPath>
</defs>
</svg>
