<svg width="14" height="16" viewBox="0 0 14 16" fill="#092b84" xmlns="http://www.w3.org/2000/svg">
<path d="M9.51453 10.2865C10.0133 9.66941 10.3125 8.88466 10.3125 8.03125V6.55197C10.5344 6.46575 10.7562 6.37156 10.9777 6.26934C11.1437 6.19272 11.25 6.02659 11.25 5.84375V4.53125C11.25 4.27238 11.0401 4.0625 10.7812 4.0625H10.5972C10.5149 3.36925 10.2501 2.71769 9.81869 2.1565C9.38216 1.58863 8.78972 1.14747 8.125 0.889687V0.46875C8.125 0.209875 7.91512 0 7.65625 0H5.78125C5.52238 0 5.3125 0.209875 5.3125 0.46875V0.889687C4.64778 1.14747 4.05534 1.58863 3.61881 2.1565C3.18741 2.71769 2.92256 3.36925 2.84031 4.0625H2.65625C2.39738 4.0625 2.1875 4.27238 2.1875 4.53125V5.84375C2.1875 6.02659 2.29381 6.19272 2.45981 6.26934C2.68131 6.37156 2.90303 6.46578 3.125 6.55197V8.03125C3.125 8.88466 3.42422 9.66941 3.92297 10.2865C1.63241 10.9571 0 13.0691 0 15.5312C0 15.6556 0.0494063 15.7748 0.137313 15.8627C0.225219 15.9506 0.344406 16 0.46875 16H12.9688C13.2276 16 13.4375 15.7901 13.4375 15.5312C13.4375 13.0691 11.8051 10.9571 9.51453 10.2865ZM5.3125 1.92022V2.34375C5.3125 2.60262 5.52238 2.8125 5.78125 2.8125C6.04012 2.8125 6.25 2.60262 6.25 2.34375V0.9375H7.1875V2.34375C7.1875 2.60262 7.39738 2.8125 7.65625 2.8125C7.91512 2.8125 8.125 2.60262 8.125 2.34375V1.92022C8.93272 2.35659 9.50219 3.15147 9.64953 4.0625H3.78797C3.93531 3.1515 4.50478 2.35659 5.3125 1.92022ZM3.125 5.53956V5H10.3125V5.53956C7.89722 6.57844 5.54028 6.57844 3.125 5.53956ZM0.9615 15.0625C1.10884 13.6316 1.92347 12.3869 3.10491 11.665L4.46387 15.0625H0.9615ZM6.25 15.0625H5.47359L3.95322 11.2616C4.21738 11.1683 4.49325 11.0986 4.77866 11.0551C5.21406 11.3354 5.71362 11.5243 6.25 11.5944V15.0625ZM4.0625 8.03125V6.86809C4.94631 7.12106 5.83253 7.24759 6.71875 7.24759C7.60497 7.24759 8.49119 7.12106 9.375 6.86809V8.03125C9.375 9.49591 8.18341 10.6875 6.71875 10.6875C5.25409 10.6875 4.0625 9.49591 4.0625 8.03125ZM7.1875 15.0625V11.5944C7.72388 11.5243 8.22344 11.3354 8.65884 11.0551C8.94422 11.0986 9.22013 11.1683 9.48428 11.2616L7.96387 15.0625H7.1875ZM8.97363 15.0625L10.3326 11.665C11.5141 12.3869 12.3287 13.6316 12.476 15.0625H8.97363Z" fill="#092b84"/>
</svg>
