<svg width="16" height="16" viewBox="0 0 16 16" fill="none" xmlns="http://www.w3.org/2000/svg">
<mask id="path-1-inside-1_1623_4459" fill="white">
<path fill-rule="evenodd" clip-rule="evenodd" d="M10.3658 14.138C10.4812 14.0817 10.5966 14.021 10.7084 13.9576C11.001 13.792 11.3726 13.8949 11.5384 14.1876C11.7041 14.4803 11.6011 14.8519 11.3084 15.0176C11.175 15.0932 11.0373 15.1655 10.8994 15.2327C10.8776 15.2434 10.8555 15.2526 10.833 15.2603C10.8132 15.2725 10.7927 15.2841 10.771 15.2942C9.76641 15.7625 8.69101 16 7.57458 16C7.15033 16 6.73145 15.9649 6.32104 15.8969L6.31815 15.8965L6.31066 15.8956L6.29659 15.893C4.7598 15.6333 3.34404 14.9063 2.21964 13.7819C2.10949 13.6717 2.00364 13.5585 1.90113 13.4429L1.89303 13.4348C1.88886 13.4306 1.88468 13.4265 1.88074 13.422C1.77948 13.3068 1.68046 13.1871 1.58681 13.0662C1.58513 13.064 1.58363 13.0618 1.58214 13.0596L1.58213 13.0596C1.58069 13.0574 1.57925 13.0552 1.57765 13.0532C0.61896 11.8156 0.072526 10.3215 0.00846863 8.74126C0.00738144 8.73029 0.0059309 8.71938 0.00553608 8.70821C0.00194454 8.61288 0 8.51623 0 8.42087C0 8.36271 0.000692368 8.3039 0.00204277 8.24603C0.00231647 8.23463 0.00335693 8.22349 0.00439835 8.21235L0.00504112 8.2054C0.0545015 6.47097 0.684731 4.83605 1.80261 3.52428L1.80895 3.51661L1.81641 3.50764L1.81876 3.50517C1.94618 3.35659 2.0797 3.21206 2.21961 3.07215C3.63985 1.65197 5.52477 0.865686 7.53151 0.854581L7.52601 0.202471C7.5243 -0.000345862 7.65129 -0.0610754 7.80821 0.0674024L9.20779 1.21398C9.36483 1.34249 9.36648 1.55506 9.21184 1.68618L7.83163 2.85609C7.67696 2.9872 7.54888 2.92861 7.5472 2.72577L7.5417 2.07237C7.06495 2.07481 6.60037 2.12987 6.15358 2.23228L6.14917 2.23356C6.14733 2.23412 6.14547 2.2347 6.14357 2.23512C6.11302 2.24217 6.08251 2.24948 6.05222 2.257L6.04834 2.25769C4.0003 2.76445 2.34061 4.26687 1.61502 6.21984C1.60869 6.23685 1.60246 6.25388 1.5963 6.27102C1.58305 6.3075 1.57007 6.34407 1.55752 6.38078L1.54387 6.42204C1.33368 7.05259 1.2195 7.72675 1.2195 8.427C1.2195 9.1258 1.33318 9.79848 1.54249 10.4279C1.55318 10.4602 1.56442 10.4923 1.57568 10.5246L1.57572 10.5247L1.57582 10.525L1.58137 10.5408C2.45455 13.0089 4.81121 14.782 7.57458 14.782C7.81424 14.782 8.05142 14.7688 8.28597 14.7429L8.29015 14.7422C8.41787 14.7276 8.54701 14.7089 8.67391 14.6865C8.67799 14.6857 8.68205 14.6853 8.6861 14.6849L8.68614 14.6849L8.69463 14.6838C9.23286 14.5884 9.75534 14.4239 10.2564 14.1903C10.2747 14.1818 10.2931 14.1743 10.3116 14.1679C10.3291 14.1571 10.3471 14.1472 10.3658 14.138ZM10.611 7.55433C10.4202 8.11556 10.0097 8.23445 9.83437 8.2851C9.69544 8.32533 8.6642 8.55 8.26954 8.6356L8.15467 8.97369L9.18595 10.2087C9.42313 10.4926 9.54805 10.6804 9.35907 11.236L9.01355 12.2526L9.17161 12.3063C9.24407 12.331 9.28316 12.4104 9.25847 12.4828L9.04768 13.1029C9.02304 13.1753 8.94362 13.2144 8.87133 13.1898L3.77466 11.4568C3.70227 11.4321 3.66316 11.3528 3.6878 11.2804L3.89863 10.6602C3.92327 10.5878 4.00272 10.5487 4.07505 10.5734L4.23321 10.6271L4.57166 9.63163C4.7625 9.07039 5.17304 8.9516 5.34834 8.90088L5.34839 8.90086C5.48722 8.86076 6.51846 8.63607 6.91309 8.55042L7.02806 8.21234L5.99671 6.97732C5.75959 6.69331 5.63457 6.50565 5.82355 5.94992L6.22375 4.77273L6.06561 4.71895C5.99328 4.69431 5.95417 4.61496 5.97875 4.5426L6.18967 3.92235C6.21429 3.84999 6.2937 3.81088 6.36606 3.83549L11.4627 5.56848C11.5352 5.59309 11.5742 5.67241 11.5496 5.7448L11.3387 6.36508C11.314 6.43747 11.2347 6.47656 11.1623 6.45191L11.0041 6.3982L10.611 7.55433ZM8.80197 10.5294L7.68046 9.18655C7.62461 9.1195 7.60757 9.02832 7.63568 8.94564L7.8414 8.34056C7.8697 8.25732 7.93966 8.19508 8.0255 8.17649C8.63612 8.04449 9.58483 7.83643 9.69534 7.80444L9.69538 7.80443C9.8368 7.7635 10.0304 7.70747 10.1372 7.39323L10.5304 6.23706L6.69752 4.93383L6.29729 6.11102C6.2417 6.2744 6.22193 6.38383 6.23676 6.44568C6.24908 6.49722 6.29466 6.55346 6.38073 6.6565L6.38412 6.66062L7.50223 7.99947C7.55815 8.06647 7.57508 8.15771 7.54704 8.24035L7.34126 8.84551C7.31299 8.92867 7.2431 8.99099 7.15729 9.00954C6.5466 9.14164 5.59793 9.34963 5.48735 9.38159C5.34595 9.42252 5.15223 9.4786 5.04537 9.7928L4.70699 10.7882L8.53977 12.0915L8.88537 11.0749C8.94092 10.9116 8.96079 10.8021 8.94593 10.7402C8.93357 10.6887 8.888 10.6325 8.80197 10.5294ZM12.8516 4.88349C12.9692 5.05843 13.1616 5.15283 13.3576 5.15283C13.4744 5.15283 13.5925 5.11932 13.6967 5.04927C13.9758 4.86167 14.05 4.48336 13.8625 4.20419C13.7768 4.07683 13.6863 3.95053 13.593 3.82884C13.3887 3.56167 13.0066 3.51086 12.7394 3.71516C12.4723 3.91952 12.4215 4.30176 12.6259 4.56883C12.704 4.67102 12.78 4.77689 12.8516 4.88349ZM13.7319 6.85513C13.7 6.73008 13.664 6.6047 13.6249 6.48241C13.5223 6.16212 13.6988 5.8193 14.0192 5.71669C14.3394 5.61408 14.6823 5.79066 14.7847 6.11095C14.8314 6.25646 14.8742 6.40564 14.9121 6.55435C14.9952 6.8802 14.7983 7.2118 14.4724 7.29483C14.422 7.30768 14.3713 7.31385 14.3216 7.31385C14.0498 7.31385 13.8021 7.1306 13.7319 6.85513ZM13.237 12.5253C12.9825 12.3053 12.598 12.3332 12.378 12.5876C12.2938 12.685 12.2056 12.781 12.1158 12.8729C11.8807 13.1134 11.8852 13.499 12.1258 13.7341C12.2443 13.8498 12.3979 13.9075 12.5513 13.9075C12.7096 13.9075 12.8677 13.8462 12.987 13.7241C13.0939 13.6146 13.1991 13.5003 13.2993 13.3843C13.5192 13.1298 13.4913 12.7452 13.237 12.5253ZM13.9282 8.62202C13.9382 8.28588 14.2184 8.02141 14.5551 8.03153C14.8913 8.04158 15.1555 8.32236 15.1456 8.65843C15.1411 8.81215 15.1316 8.96752 15.1175 9.12038C15.0886 9.43635 14.8229 9.6737 14.5119 9.6737C14.4932 9.6737 14.4744 9.67288 14.4555 9.67113C14.1206 9.64039 13.8739 9.34392 13.9047 9.00904C13.9165 8.88099 13.9244 8.75076 13.9282 8.62202ZM14.2844 10.3937C13.9711 10.271 13.6179 10.4255 13.4953 10.7387C13.4484 10.8585 13.3971 10.9786 13.3429 11.0955C13.2016 11.4007 13.3343 11.7626 13.6395 11.904C13.7224 11.9424 13.8094 11.9606 13.8951 11.9606C14.1251 11.9606 14.3451 11.8298 14.4481 11.6075C14.5125 11.4683 14.5736 11.3254 14.6294 11.1828C14.752 10.8696 14.5976 10.5163 14.2844 10.3937ZM12.0834 2.34232C12.3538 2.54247 12.4106 2.92382 12.2104 3.19415C12.091 3.35545 11.907 3.44076 11.7207 3.44076C11.5947 3.44076 11.4677 3.40181 11.3587 3.32118C11.2553 3.2446 11.1482 3.17017 11.0401 3.09998C10.7582 2.9166 10.6784 2.53944 10.8617 2.25751C11.045 1.97554 11.4222 1.89567 11.7041 2.07898C11.8327 2.16261 11.9603 2.25115 12.0834 2.34232Z"/>
</mask>
<path fill-rule="evenodd" clip-rule="evenodd" d="M10.3658 14.138C10.4812 14.0817 10.5966 14.021 10.7084 13.9576C11.001 13.792 11.3726 13.8949 11.5384 14.1876C11.7041 14.4803 11.6011 14.8519 11.3084 15.0176C11.175 15.0932 11.0373 15.1655 10.8994 15.2327C10.8776 15.2434 10.8555 15.2526 10.833 15.2603C10.8132 15.2725 10.7927 15.2841 10.771 15.2942C9.76641 15.7625 8.69101 16 7.57458 16C7.15033 16 6.73145 15.9649 6.32104 15.8969L6.31815 15.8965L6.31066 15.8956L6.29659 15.893C4.7598 15.6333 3.34404 14.9063 2.21964 13.7819C2.10949 13.6717 2.00364 13.5585 1.90113 13.4429L1.89303 13.4348C1.88886 13.4306 1.88468 13.4265 1.88074 13.422C1.77948 13.3068 1.68046 13.1871 1.58681 13.0662C1.58513 13.064 1.58363 13.0618 1.58214 13.0596L1.58213 13.0596C1.58069 13.0574 1.57925 13.0552 1.57765 13.0532C0.61896 11.8156 0.072526 10.3215 0.00846863 8.74126C0.00738144 8.73029 0.0059309 8.71938 0.00553608 8.70821C0.00194454 8.61288 0 8.51623 0 8.42087C0 8.36271 0.000692368 8.3039 0.00204277 8.24603C0.00231647 8.23463 0.00335693 8.22349 0.00439835 8.21235L0.00504112 8.2054C0.0545015 6.47097 0.684731 4.83605 1.80261 3.52428L1.80895 3.51661L1.81641 3.50764L1.81876 3.50517C1.94618 3.35659 2.0797 3.21206 2.21961 3.07215C3.63985 1.65197 5.52477 0.865686 7.53151 0.854581L7.52601 0.202471C7.5243 -0.000345862 7.65129 -0.0610754 7.80821 0.0674024L9.20779 1.21398C9.36483 1.34249 9.36648 1.55506 9.21184 1.68618L7.83163 2.85609C7.67696 2.9872 7.54888 2.92861 7.5472 2.72577L7.5417 2.07237C7.06495 2.07481 6.60037 2.12987 6.15358 2.23228L6.14917 2.23356C6.14733 2.23412 6.14547 2.2347 6.14357 2.23512C6.11302 2.24217 6.08251 2.24948 6.05222 2.257L6.04834 2.25769C4.0003 2.76445 2.34061 4.26687 1.61502 6.21984C1.60869 6.23685 1.60246 6.25388 1.5963 6.27102C1.58305 6.3075 1.57007 6.34407 1.55752 6.38078L1.54387 6.42204C1.33368 7.05259 1.2195 7.72675 1.2195 8.427C1.2195 9.1258 1.33318 9.79848 1.54249 10.4279C1.55318 10.4602 1.56442 10.4923 1.57568 10.5246L1.57572 10.5247L1.57582 10.525L1.58137 10.5408C2.45455 13.0089 4.81121 14.782 7.57458 14.782C7.81424 14.782 8.05142 14.7688 8.28597 14.7429L8.29015 14.7422C8.41787 14.7276 8.54701 14.7089 8.67391 14.6865C8.67799 14.6857 8.68205 14.6853 8.6861 14.6849L8.68614 14.6849L8.69463 14.6838C9.23286 14.5884 9.75534 14.4239 10.2564 14.1903C10.2747 14.1818 10.2931 14.1743 10.3116 14.1679C10.3291 14.1571 10.3471 14.1472 10.3658 14.138ZM10.611 7.55433C10.4202 8.11556 10.0097 8.23445 9.83437 8.2851C9.69544 8.32533 8.6642 8.55 8.26954 8.6356L8.15467 8.97369L9.18595 10.2087C9.42313 10.4926 9.54805 10.6804 9.35907 11.236L9.01355 12.2526L9.17161 12.3063C9.24407 12.331 9.28316 12.4104 9.25847 12.4828L9.04768 13.1029C9.02304 13.1753 8.94362 13.2144 8.87133 13.1898L3.77466 11.4568C3.70227 11.4321 3.66316 11.3528 3.6878 11.2804L3.89863 10.6602C3.92327 10.5878 4.00272 10.5487 4.07505 10.5734L4.23321 10.6271L4.57166 9.63163C4.7625 9.07039 5.17304 8.9516 5.34834 8.90088L5.34839 8.90086C5.48722 8.86076 6.51846 8.63607 6.91309 8.55042L7.02806 8.21234L5.99671 6.97732C5.75959 6.69331 5.63457 6.50565 5.82355 5.94992L6.22375 4.77273L6.06561 4.71895C5.99328 4.69431 5.95417 4.61496 5.97875 4.5426L6.18967 3.92235C6.21429 3.84999 6.2937 3.81088 6.36606 3.83549L11.4627 5.56848C11.5352 5.59309 11.5742 5.67241 11.5496 5.7448L11.3387 6.36508C11.314 6.43747 11.2347 6.47656 11.1623 6.45191L11.0041 6.3982L10.611 7.55433ZM8.80197 10.5294L7.68046 9.18655C7.62461 9.1195 7.60757 9.02832 7.63568 8.94564L7.8414 8.34056C7.8697 8.25732 7.93966 8.19508 8.0255 8.17649C8.63612 8.04449 9.58483 7.83643 9.69534 7.80444L9.69538 7.80443C9.8368 7.7635 10.0304 7.70747 10.1372 7.39323L10.5304 6.23706L6.69752 4.93383L6.29729 6.11102C6.2417 6.2744 6.22193 6.38383 6.23676 6.44568C6.24908 6.49722 6.29466 6.55346 6.38073 6.6565L6.38412 6.66062L7.50223 7.99947C7.55815 8.06647 7.57508 8.15771 7.54704 8.24035L7.34126 8.84551C7.31299 8.92867 7.2431 8.99099 7.15729 9.00954C6.5466 9.14164 5.59793 9.34963 5.48735 9.38159C5.34595 9.42252 5.15223 9.4786 5.04537 9.7928L4.70699 10.7882L8.53977 12.0915L8.88537 11.0749C8.94092 10.9116 8.96079 10.8021 8.94593 10.7402C8.93357 10.6887 8.888 10.6325 8.80197 10.5294ZM12.8516 4.88349C12.9692 5.05843 13.1616 5.15283 13.3576 5.15283C13.4744 5.15283 13.5925 5.11932 13.6967 5.04927C13.9758 4.86167 14.05 4.48336 13.8625 4.20419C13.7768 4.07683 13.6863 3.95053 13.593 3.82884C13.3887 3.56167 13.0066 3.51086 12.7394 3.71516C12.4723 3.91952 12.4215 4.30176 12.6259 4.56883C12.704 4.67102 12.78 4.77689 12.8516 4.88349ZM13.7319 6.85513C13.7 6.73008 13.664 6.6047 13.6249 6.48241C13.5223 6.16212 13.6988 5.8193 14.0192 5.71669C14.3394 5.61408 14.6823 5.79066 14.7847 6.11095C14.8314 6.25646 14.8742 6.40564 14.9121 6.55435C14.9952 6.8802 14.7983 7.2118 14.4724 7.29483C14.422 7.30768 14.3713 7.31385 14.3216 7.31385C14.0498 7.31385 13.8021 7.1306 13.7319 6.85513ZM13.237 12.5253C12.9825 12.3053 12.598 12.3332 12.378 12.5876C12.2938 12.685 12.2056 12.781 12.1158 12.8729C11.8807 13.1134 11.8852 13.499 12.1258 13.7341C12.2443 13.8498 12.3979 13.9075 12.5513 13.9075C12.7096 13.9075 12.8677 13.8462 12.987 13.7241C13.0939 13.6146 13.1991 13.5003 13.2993 13.3843C13.5192 13.1298 13.4913 12.7452 13.237 12.5253ZM13.9282 8.62202C13.9382 8.28588 14.2184 8.02141 14.5551 8.03153C14.8913 8.04158 15.1555 8.32236 15.1456 8.65843C15.1411 8.81215 15.1316 8.96752 15.1175 9.12038C15.0886 9.43635 14.8229 9.6737 14.5119 9.6737C14.4932 9.6737 14.4744 9.67288 14.4555 9.67113C14.1206 9.64039 13.8739 9.34392 13.9047 9.00904C13.9165 8.88099 13.9244 8.75076 13.9282 8.62202ZM14.2844 10.3937C13.9711 10.271 13.6179 10.4255 13.4953 10.7387C13.4484 10.8585 13.3971 10.9786 13.3429 11.0955C13.2016 11.4007 13.3343 11.7626 13.6395 11.904C13.7224 11.9424 13.8094 11.9606 13.8951 11.9606C14.1251 11.9606 14.3451 11.8298 14.4481 11.6075C14.5125 11.4683 14.5736 11.3254 14.6294 11.1828C14.752 10.8696 14.5976 10.5163 14.2844 10.3937ZM12.0834 2.34232C12.3538 2.54247 12.4106 2.92382 12.2104 3.19415C12.091 3.35545 11.907 3.44076 11.7207 3.44076C11.5947 3.44076 11.4677 3.40181 11.3587 3.32118C11.2553 3.2446 11.1482 3.17017 11.0401 3.09998C10.7582 2.9166 10.6784 2.53944 10.8617 2.25751C11.045 1.97554 11.4222 1.89567 11.7041 2.07898C11.8327 2.16261 11.9603 2.25115 12.0834 2.34232Z" fill="#092B84"/>
<path d="M10.7084 13.9576L10.2159 13.0874L10.2154 13.0876L10.7084 13.9576ZM10.3658 14.138L9.9275 13.2392L9.92681 13.2395L10.3658 14.138ZM11.5384 14.1876L12.4086 13.6949L12.4085 13.6948L11.5384 14.1876ZM11.3084 15.0176L11.801 15.8879L11.8012 15.8878L11.3084 15.0176ZM10.8994 15.2327L11.338 16.1315L11.3381 16.1314L10.8994 15.2327ZM10.833 15.2603L10.5077 14.3147L10.4024 14.3509L10.3078 14.4094L10.833 15.2603ZM10.771 15.2942L10.3488 14.3877L10.3485 14.3878L10.771 15.2942ZM6.32104 15.8969L6.48437 14.9103L6.46907 14.9078L6.4537 14.9058L6.32104 15.8969ZM6.31815 15.8965L6.45082 14.9053L6.43729 14.9036L6.31815 15.8965ZM6.31066 15.8956L6.12646 16.8785L6.15882 16.8846L6.19152 16.8885L6.31066 15.8956ZM6.29659 15.893L6.4808 14.9101L6.47202 14.9085L6.46321 14.907L6.29659 15.893ZM2.21964 13.7819L2.92676 13.0748L2.92664 13.0746L2.21964 13.7819ZM1.90113 13.4429L2.64931 12.7794L2.63067 12.7584L2.61089 12.7385L1.90113 13.4429ZM1.89303 13.4348L2.60282 12.7303L2.59565 12.7232L1.89303 13.4348ZM1.88074 13.422L1.12965 14.0822L1.13006 14.0827L1.88074 13.422ZM1.58681 13.0662L2.3773 12.4537L2.37723 12.4536L1.58681 13.0662ZM1.58214 13.0596L0.750085 13.6143L0.75063 13.6151L1.58214 13.0596ZM1.58213 13.0596L2.41418 12.5049L2.41344 12.5038L1.58213 13.0596ZM1.57765 13.0532L2.37098 12.4444L2.36819 12.4407L1.57765 13.0532ZM0.00846863 8.74126L1.00765 8.70076L1.00647 8.67165L1.0036 8.64267L0.00846863 8.74126ZM0.00553608 8.70821L1.00491 8.67289L1.00483 8.67056L0.00553608 8.70821ZM0.00204277 8.24603L-0.99767 8.22204L-0.997685 8.2227L0.00204277 8.24603ZM0.00439835 8.21235L1.00006 8.30538L1.00014 8.30455L0.00439835 8.21235ZM0.00504112 8.2054L1.00078 8.2976L1.00372 8.26582L1.00463 8.23391L0.00504112 8.2054ZM1.80261 3.52428L2.56372 4.1729L2.56843 4.16737L2.57306 4.16178L1.80261 3.52428ZM1.80895 3.51661L1.04007 2.87722L1.0385 2.87912L1.80895 3.51661ZM1.81641 3.50764L1.09034 2.82002L1.06816 2.84344L1.04753 2.86825L1.81641 3.50764ZM1.81876 3.50517L2.54483 4.19278L2.56178 4.17488L2.57783 4.15617L1.81876 3.50517ZM2.21961 3.07215L1.51252 2.36503L1.5125 2.36505L2.21961 3.07215ZM7.53151 0.854581L7.53705 1.85457L8.53994 1.84902L8.53148 0.846143L7.53151 0.854581ZM7.52601 0.202471L8.52597 0.194033L8.52597 0.194022L7.52601 0.202471ZM7.80821 0.0674024L8.44193 -0.706156L8.44172 -0.70633L7.80821 0.0674024ZM9.20779 1.21398L8.57406 1.98754L8.57449 1.9879L9.20779 1.21398ZM9.21184 1.68618L9.85844 2.44901L9.85854 2.44892L9.21184 1.68618ZM7.83163 2.85609L7.18503 2.09326L7.18501 2.09328L7.83163 2.85609ZM7.5472 2.72577L8.54716 2.71748L8.54716 2.71734L7.5472 2.72577ZM7.5417 2.07237L8.54166 2.06395L8.53327 1.06729L7.53658 1.07238L7.5417 2.07237ZM6.15358 2.23228L5.93016 1.25756L5.90305 1.26378L5.87633 1.27149L6.15358 2.23228ZM6.14917 2.23356L5.87192 1.27276L5.86343 1.27521L5.85498 1.27781L6.14917 2.23356ZM6.14357 2.23512L5.9276 1.25867L5.91863 1.26074L6.14357 2.23512ZM6.05222 2.257L6.22739 3.24154L6.26044 3.23566L6.29302 3.22757L6.05222 2.257ZM6.04834 2.25769L5.87317 1.27315L5.84042 1.27898L5.80814 1.28696L6.04834 2.25769ZM1.61502 6.21984L2.55224 6.56858L2.55241 6.56812L1.61502 6.21984ZM1.5963 6.27102L2.53625 6.61233L2.53729 6.60945L1.5963 6.27102ZM1.55752 6.38078L0.611273 6.05716L0.608079 6.06682L1.55752 6.38078ZM1.54387 6.42204L2.49255 6.73828L2.49331 6.73599L1.54387 6.42204ZM1.54249 10.4279L2.49184 10.1137L2.4914 10.1123L1.54249 10.4279ZM1.57568 10.5246L0.631662 10.8545L0.63394 10.8609L1.57568 10.5246ZM1.57572 10.5247L2.52039 10.1965L2.51747 10.1883L1.57572 10.5247ZM1.57582 10.525L0.631187 10.8531L0.631801 10.8548L1.57582 10.525ZM1.58137 10.5408L0.637347 10.8707L0.638634 10.8744L1.58137 10.5408ZM8.28597 14.7429L8.39559 15.7369L8.42625 15.7335L8.45665 15.7283L8.28597 14.7429ZM8.29015 14.7422L8.17635 13.7487L8.14779 13.752L8.11948 13.7569L8.29015 14.7422ZM8.67391 14.6865L8.84804 15.6712L8.85119 15.6706L8.67391 14.6865ZM8.6861 14.6849L8.79355 15.6791L8.80703 15.6776L8.82046 15.6758L8.6861 14.6849ZM8.68614 14.6849L8.56708 13.692L8.55942 13.6929L8.55178 13.6939L8.68614 14.6849ZM8.69463 14.6838L8.8137 15.6767L8.84154 15.6734L8.86915 15.6685L8.69463 14.6838ZM10.2564 14.1903L9.83487 13.2835L9.83381 13.284L10.2564 14.1903ZM10.3116 14.1679L10.6394 15.1127L10.7436 15.0765L10.8374 15.0185L10.3116 14.1679ZM9.83437 8.2851L9.55681 7.32439L9.55618 7.32457L9.83437 8.2851ZM10.611 7.55433L9.66424 7.23239L9.66423 7.23242L10.611 7.55433ZM8.26954 8.6356L8.05755 7.65833L7.50469 7.77826L7.3227 8.3139L8.26954 8.6356ZM8.15467 8.97369L7.20783 8.65198L7.02719 9.18363L7.38708 9.61463L8.15467 8.97369ZM9.18595 10.2087L8.41836 10.8497L8.41855 10.8499L9.18595 10.2087ZM9.35907 11.236L8.41233 10.9141L8.41228 10.9142L9.35907 11.236ZM9.01355 12.2526L8.06675 11.9307L7.74501 12.8773L8.69146 13.1993L9.01355 12.2526ZM9.17161 12.3063L8.84953 13.253L8.84958 13.2531L9.17161 12.3063ZM9.25847 12.4828L8.31197 12.1601L8.31167 12.1609L9.25847 12.4828ZM9.04768 13.1029L9.99437 13.4251L9.99448 13.4247L9.04768 13.1029ZM8.87133 13.1898L8.5494 14.1366L8.54941 14.1366L8.87133 13.1898ZM3.77466 11.4568L3.45197 12.4033L3.45273 12.4036L3.77466 11.4568ZM3.6878 11.2804L4.63444 11.6027L4.6346 11.6022L3.6878 11.2804ZM3.89863 10.6602L2.95199 10.3379L2.95182 10.3384L3.89863 10.6602ZM4.07505 10.5734L3.75287 11.52L3.75332 11.5202L4.07505 10.5734ZM4.23321 10.6271L3.91149 11.5739L4.85816 11.8956L5.17999 10.949L4.23321 10.6271ZM4.57166 9.63163L3.62489 9.30971L3.62488 9.30974L4.57166 9.63163ZM5.34834 8.90088L5.07362 7.93935L5.0704 7.94028L5.34834 8.90088ZM5.34839 8.90086L5.62311 9.86239L5.62591 9.86158L5.34839 8.90086ZM6.91309 8.55042L7.12517 9.52768L7.67779 9.40775L7.85985 8.87238L6.91309 8.55042ZM7.02806 8.21234L7.97481 8.53429L8.15565 8.0025L7.79562 7.57136L7.02806 8.21234ZM5.99671 6.97732L5.22908 7.61821L5.22915 7.6183L5.99671 6.97732ZM5.82355 5.94992L6.77031 6.27187L6.77034 6.27179L5.82355 5.94992ZM6.22375 4.77273L7.17053 5.0946L7.49236 4.14791L6.54571 3.82598L6.22375 4.77273ZM6.06561 4.71895L5.74305 5.6655L5.74365 5.66571L6.06561 4.71895ZM5.97875 4.5426L5.032 4.22064L5.03189 4.22094L5.97875 4.5426ZM6.18967 3.92235L5.24295 3.60032L5.24292 3.6004L6.18967 3.92235ZM6.36606 3.83549L6.04402 4.78222L6.04414 4.78226L6.36606 3.83549ZM11.4627 5.56848L11.1408 6.51524L11.141 6.51534L11.4627 5.56848ZM11.5496 5.7448L10.6029 5.42251L10.6028 5.42286L11.5496 5.7448ZM11.3387 6.36508L12.2853 6.68738L12.2854 6.68702L11.3387 6.36508ZM11.1623 6.45191L11.4846 5.50527L11.4839 5.50503L11.1623 6.45191ZM11.0041 6.3982L11.3258 5.45132L10.3792 5.12983L10.0574 6.07625L11.0041 6.3982ZM7.68046 9.18655L6.91208 9.82655L6.91293 9.82756L7.68046 9.18655ZM8.80197 10.5294L9.56956 9.8885L9.5695 9.88842L8.80197 10.5294ZM7.63568 8.94564L8.58246 9.26753L8.58246 9.26753L7.63568 8.94564ZM7.8414 8.34056L6.89464 8.0186L6.89462 8.01867L7.8414 8.34056ZM8.0255 8.17649L7.8142 7.19907L7.81389 7.19914L8.0255 8.17649ZM9.69534 7.80444L9.97345 8.76505L9.98364 8.76198L9.69534 7.80444ZM9.69538 7.80443L9.41739 6.84378L9.40709 6.84688L9.69538 7.80443ZM10.1372 7.39323L9.19047 7.07127L9.1904 7.07147L10.1372 7.39323ZM10.5304 6.23706L11.4772 6.55902L11.7991 5.61223L10.8523 5.29029L10.5304 6.23706ZM6.69752 4.93383L7.01944 3.98706L6.07264 3.66514L5.75074 4.61194L6.69752 4.93383ZM6.29729 6.11102L7.24399 6.43315L7.24407 6.43291L6.29729 6.11102ZM6.23676 6.44568L7.20934 6.21311L7.20921 6.21255L6.23676 6.44568ZM6.38073 6.6565L7.15253 6.0206L7.1482 6.01543L6.38073 6.6565ZM6.38412 6.66062L5.61232 7.29652L5.61658 7.30162L6.38412 6.66062ZM7.50223 7.99947L8.26993 7.35866L8.26977 7.35848L7.50223 7.99947ZM7.54704 8.24035L8.4938 8.56229L8.49401 8.56167L7.54704 8.24035ZM7.34126 8.84551L6.3945 8.52356L6.39447 8.52366L7.34126 8.84551ZM7.15729 9.00954L6.94597 8.03212L6.94587 8.03214L7.15729 9.00954ZM5.48735 9.38159L5.20967 8.42092L5.20932 8.42102L5.48735 9.38159ZM5.04537 9.7928L4.09863 9.4708L4.09858 9.47095L5.04537 9.7928ZM4.70699 10.7882L3.7602 10.4664L3.43838 11.4131L4.38507 11.735L4.70699 10.7882ZM8.53977 12.0915L8.21785 13.0382L9.16467 13.3602L9.48656 12.4133L8.53977 12.0915ZM8.88537 11.0749L7.93867 10.7527L7.93858 10.753L8.88537 11.0749ZM8.94593 10.7402L7.97353 10.9735L7.9736 10.9738L8.94593 10.7402ZM12.8516 4.88349L13.6817 4.3258L13.6815 4.32553L12.8516 4.88349ZM13.6967 5.04927L13.1389 4.21929L13.1387 4.2194L13.6967 5.04927ZM13.8625 4.20419L14.6925 3.64644L14.6923 3.64618L13.8625 4.20419ZM13.593 3.82884L12.7987 4.43628L12.7994 4.43723L13.593 3.82884ZM12.7394 3.71516L12.132 2.92083L12.1318 2.92096L12.7394 3.71516ZM12.6259 4.56883L13.4203 3.96144L13.42 3.96101L12.6259 4.56883ZM13.6249 6.48241L14.5773 6.17753L14.5772 6.17741L13.6249 6.48241ZM13.7319 6.85513L14.7009 6.60812L14.7008 6.60797L13.7319 6.85513ZM14.0192 5.71669L14.3242 6.66903L14.3243 6.669L14.0192 5.71669ZM14.7847 6.11095L13.8323 6.41569L13.8325 6.41629L14.7847 6.11095ZM14.9121 6.55435L13.9431 6.80128L13.9431 6.80138L14.9121 6.55435ZM14.4724 7.29483L14.2255 6.32579L14.2254 6.32582L14.4724 7.29483ZM12.378 12.5876L11.6216 11.9335L11.6216 11.9335L12.378 12.5876ZM13.237 12.5253L13.8911 11.7689L13.8908 11.7686L13.237 12.5253ZM12.1158 12.8729L11.4008 12.1738L11.4006 12.174L12.1158 12.8729ZM12.1258 13.7341L12.8247 13.0189L12.8247 13.0189L12.1258 13.7341ZM12.987 13.7241L13.7022 14.423L13.7023 14.4229L12.987 13.7241ZM13.2993 13.3843L12.5426 12.7305L12.5425 12.7306L13.2993 13.3843ZM14.5551 8.03153L14.5251 9.03108L14.5252 9.03108L14.5551 8.03153ZM13.9282 8.62202L12.9287 8.59243L12.9286 8.5926L13.9282 8.62202ZM15.1456 8.65843L16.1452 8.688L16.1452 8.68793L15.1456 8.65843ZM15.1175 9.12038L14.1217 9.02894L14.1217 9.0292L15.1175 9.12038ZM14.4555 9.67113L14.5474 8.67537L14.5469 8.67532L14.4555 9.67113ZM13.9047 9.00904L12.9089 8.9173L12.9089 8.91762L13.9047 9.00904ZM13.4953 10.7387L14.4265 11.1033L14.4265 11.1032L13.4953 10.7387ZM14.2844 10.3937L14.6491 9.46254L14.649 9.46249L14.2844 10.3937ZM13.3429 11.0955L12.4357 10.6749L12.4356 10.6752L13.3429 11.0955ZM13.6395 11.904L13.2191 12.8113L13.2192 12.8114L13.6395 11.904ZM14.4481 11.6075L15.3554 12.0279L15.3555 12.0277L14.4481 11.6075ZM14.6294 11.1828L13.6983 10.8181L13.698 10.8186L14.6294 11.1828ZM12.2104 3.19415L11.4068 2.59906L11.4066 2.59924L12.2104 3.19415ZM12.0834 2.34232L11.4881 3.14585L11.4884 3.14602L12.0834 2.34232ZM11.3587 3.32118L10.7637 4.12488L10.7638 4.12496L11.3587 3.32118ZM11.0401 3.09998L10.4949 3.93823L10.4954 3.93858L11.0401 3.09998ZM10.8617 2.25751L10.0233 1.71245L10.0233 1.71248L10.8617 2.25751ZM11.7041 2.07898L12.2494 1.2407L12.2492 1.24058L11.7041 2.07898ZM10.2154 13.0876C10.1216 13.1408 10.0245 13.1919 9.9275 13.2392L10.804 15.0369C10.9378 14.9716 11.0715 14.9013 11.2015 14.8277L10.2154 13.0876ZM12.4085 13.6948C11.9707 12.9216 10.989 12.6498 10.2159 13.0874L11.201 14.8279C11.013 14.9343 10.7746 14.8682 10.6683 14.6804L12.4085 13.6948ZM11.8012 15.8878C12.5741 15.45 12.8466 14.4684 12.4086 13.6949L10.6682 14.6803C10.5617 14.4921 10.6281 14.2537 10.8157 14.1474L11.8012 15.8878ZM11.3381 16.1314C11.4936 16.0555 11.6493 15.9738 11.801 15.8879L10.8158 14.1473C10.7006 14.2126 10.581 14.2754 10.4608 14.3341L11.3381 16.1314ZM11.1584 16.2059C11.2208 16.1844 11.2806 16.1594 11.338 16.1315L10.4609 14.334C10.4746 14.3273 10.4903 14.3207 10.5077 14.3147L11.1584 16.2059ZM11.1932 16.2007C11.2599 16.1696 11.3157 16.1375 11.3583 16.1113L10.3078 14.4094C10.3107 14.4076 10.3254 14.3986 10.3488 14.3877L11.1932 16.2007ZM7.57458 17C8.83596 17 10.0557 16.7309 11.1935 16.2006L10.3485 14.3878C9.47715 14.794 8.54606 15 7.57458 15V17ZM6.15771 16.8835C6.62151 16.9603 7.09501 17 7.57458 17V15C7.20565 15 6.8414 14.9694 6.48437 14.9103L6.15771 16.8835ZM6.18549 16.8877L6.18839 16.8881L6.4537 14.9058L6.4508 14.9054L6.18549 16.8877ZM6.19152 16.8885L6.199 16.8894L6.43729 14.9036L6.42981 14.9028L6.19152 16.8885ZM6.11239 16.8759L6.12646 16.8785L6.49487 14.9127L6.4808 14.9101L6.11239 16.8759ZM1.51252 14.4889C2.78325 15.7597 4.38771 16.5846 6.12997 16.879L6.46321 14.907C5.1319 14.682 3.90484 14.0529 2.92676 13.0748L1.51252 14.4889ZM1.15296 14.1064C1.26708 14.2351 1.38664 14.3631 1.51264 14.4891L2.92664 13.0746C2.83233 12.9804 2.74021 12.8819 2.64931 12.7794L1.15296 14.1064ZM1.18328 14.1392L1.19138 14.1474L2.61089 12.7385L2.60279 12.7303L1.18328 14.1392ZM1.13006 14.0827C1.16089 14.1177 1.19006 14.146 1.19041 14.1463L2.59565 12.7232C2.59254 12.7201 2.59677 12.7242 2.60193 12.7295C2.60785 12.7356 2.61849 12.7467 2.63141 12.7614L1.13006 14.0827ZM0.796322 13.6787C0.902955 13.8163 1.01515 13.952 1.12965 14.0822L2.63182 12.7618C2.54381 12.6617 2.45796 12.5578 2.3773 12.4537L0.796322 13.6787ZM0.75063 13.6151C0.750668 13.6151 0.75631 13.6236 0.763022 13.6333C0.770317 13.6438 0.781726 13.6599 0.796391 13.6788L2.37723 12.4536C2.39022 12.4704 2.40004 12.4843 2.40579 12.4925C2.41096 12.5 2.4151 12.5062 2.41364 12.504L0.75063 13.6151ZM0.750079 13.6143L0.750085 13.6143L2.41419 12.5049L2.41418 12.5049L0.750079 13.6143ZM0.784323 13.662C0.772322 13.6463 0.763231 13.6334 0.757951 13.6258C0.753213 13.619 0.749394 13.6132 0.750816 13.6154L2.41344 12.5038C2.41342 12.5037 2.40816 12.4958 2.40195 12.4868C2.39519 12.4771 2.38457 12.4621 2.37097 12.4444L0.784323 13.662ZM-0.990711 8.78176C-0.918256 10.5692 -0.299198 12.2633 0.787112 13.6656L2.36819 12.4407C1.53712 11.368 1.06331 10.0739 1.00765 8.70076L-0.990711 8.78176ZM-0.99384 8.74353C-0.992561 8.7797 -0.989813 8.80909 -0.988323 8.82403C-0.987588 8.8314 -0.986854 8.83816 -0.986646 8.8401C-0.986291 8.84339 -0.986447 8.842 -0.986659 8.83986L1.0036 8.64267C1.00284 8.63504 1.0021 8.62817 1.00186 8.62598C1.00148 8.62244 1.00162 8.62372 1.00181 8.62559C1.0022 8.62954 1.00403 8.64789 1.00491 8.67289L-0.99384 8.74353ZM-1 8.42087C-1 8.52964 -0.997786 8.63887 -0.993755 8.74586L1.00483 8.67056C1.00167 8.5869 1 8.50283 1 8.42087H-1ZM-0.997685 8.2227C-0.999216 8.28829 -1 8.35488 -1 8.42087H1C1 8.37054 1.0006 8.3195 1.00177 8.26936L-0.997685 8.2227ZM-0.991264 8.11931C-0.991815 8.12521 -0.996431 8.17045 -0.997669 8.22204L1.00175 8.27002C1.00136 8.28657 1.0005 8.29898 1.00007 8.30464C0.999856 8.30753 0.999693 8.30934 0.999692 8.30936C0.999689 8.30939 0.99971 8.30916 0.999774 8.30846C0.999844 8.30771 0.999922 8.30687 1.00006 8.30538L-0.991264 8.11931ZM-0.990699 8.1132L-0.991342 8.12014L1.00014 8.30455L1.00078 8.2976L-0.990699 8.1132ZM1.04149 2.87566C-0.224376 4.36109 -0.938601 6.21485 -0.994553 8.1769L1.00463 8.23391C1.0476 6.72708 1.59384 5.311 2.56372 4.1729L1.04149 2.87566ZM1.0385 2.87912L1.03216 2.88678L2.57306 4.16178L2.5794 4.15411L1.0385 2.87912ZM1.04753 2.86825L1.04007 2.87722L2.57783 4.15601L2.5853 4.14703L1.04753 2.86825ZM1.09268 2.81755L1.09034 2.82002L2.54249 4.19525L2.54483 4.19278L1.09268 2.81755ZM1.5125 2.36505C1.35404 2.52351 1.20322 2.6868 1.05968 2.85417L2.57783 4.15617C2.68914 4.02638 2.80536 3.90062 2.92672 3.77926L1.5125 2.36505ZM7.52598 -0.145404C5.25602 -0.132842 3.11899 0.75863 1.51252 2.36503L2.9267 3.77927C4.16071 2.54532 5.79352 1.86421 7.53705 1.85457L7.52598 -0.145404ZM6.52605 0.210909L6.53155 0.863019L8.53148 0.846143L8.52597 0.194033L6.52605 0.210909ZM8.44172 -0.70633C8.25982 -0.855266 7.75932 -1.17047 7.17599 -0.891349C6.59241 -0.612103 6.52406 -0.0242976 6.52605 0.210919L8.52597 0.194022C8.52625 0.226422 8.52054 0.682455 8.03925 0.912751C7.55823 1.14292 7.19968 0.861593 7.17469 0.841135L8.44172 -0.70633ZM9.84151 0.440424L8.44193 -0.706156L7.17448 0.840961L8.57406 1.98754L9.84151 0.440424ZM9.85854 2.44892C10.1473 2.20406 10.33 1.842 10.3267 1.44078C10.3233 1.03939 10.1345 0.680166 9.84108 0.44007L8.57449 1.9879C8.43813 1.87631 8.32865 1.68762 8.32673 1.45743C8.32481 1.2274 8.43098 1.03718 8.56514 0.923434L9.85854 2.44892ZM8.47824 3.61892L9.85844 2.44901L8.56524 0.92335L7.18503 2.09326L8.47824 3.61892ZM6.54723 2.73405C6.54918 2.96949 6.6275 3.55601 7.21568 3.82536C7.80361 4.0946 8.29874 3.77107 8.47825 3.6189L7.18501 2.09328C7.20985 2.07222 7.5636 1.78495 8.04841 2.00696C8.53346 2.22909 8.54689 2.68489 8.54716 2.71748L6.54723 2.73405ZM6.54173 2.08079L6.54723 2.73419L8.54716 2.71734L8.54166 2.06395L6.54173 2.08079ZM6.37701 3.207C6.75256 3.12092 7.14394 3.07442 7.54681 3.07236L7.53658 1.07238C6.98596 1.0752 6.44818 1.13882 5.93016 1.25756L6.37701 3.207ZM6.42643 3.19435L6.43084 3.19308L5.87633 1.27149L5.87192 1.27276L6.42643 3.19435ZM6.35952 3.21152C6.38624 3.20561 6.40777 3.19973 6.42114 3.19591C6.42796 3.19396 6.43354 3.19229 6.43711 3.19121C6.44041 3.19021 6.4433 3.18932 6.44336 3.1893L5.85498 1.27781C5.85248 1.27858 5.86121 1.27586 5.87165 1.27287C5.88315 1.26959 5.90279 1.2642 5.92761 1.25871L6.35952 3.21152ZM6.29302 3.22757C6.31819 3.22133 6.34342 3.21528 6.3685 3.20949L5.91863 1.26074C5.88262 1.26906 5.84682 1.27764 5.81143 1.28642L6.29302 3.22757ZM6.2235 3.24223L6.22739 3.24154L5.87706 1.27246L5.87317 1.27315L6.2235 3.24223ZM2.55241 6.56812C3.16401 4.92195 4.56483 3.65492 6.28853 3.22841L5.80814 1.28696C3.43578 1.87398 1.5172 3.6118 0.677622 5.87157L2.55241 6.56812ZM2.53729 6.60945C2.54228 6.59558 2.54725 6.58198 2.55224 6.56858L0.677793 5.87111C0.670127 5.89172 0.662644 5.91219 0.65531 5.93258L2.53729 6.60945ZM2.50371 6.70438C2.5138 6.67489 2.52462 6.64436 2.53625 6.61233L0.656349 5.92971C0.641489 5.97063 0.626344 6.01326 0.611322 6.05718L2.50371 6.70438ZM2.49331 6.73599L2.50695 6.69474L0.608079 6.06682L0.594437 6.10808L2.49331 6.73599ZM2.2195 8.427C2.2195 7.83608 2.31576 7.26863 2.49255 6.73828L0.595195 6.10579C0.351594 6.83656 0.2195 7.61742 0.2195 8.427H2.2195ZM2.4914 10.1123C2.31534 9.58291 2.2195 9.0167 2.2195 8.427H0.2195C0.2195 9.2349 0.351024 10.014 0.593583 10.7434L2.4914 10.1123ZM2.51968 10.1946C2.50796 10.1611 2.49948 10.1367 2.49184 10.1137L0.593142 10.7421C0.606875 10.7836 0.620884 10.8236 0.631684 10.8545L2.51968 10.1946ZM2.51747 10.1883L2.51742 10.1882L0.63394 10.8609L0.633983 10.861L2.51747 10.1883ZM2.52045 10.1968L2.52036 10.1965L0.631094 10.8528L0.631188 10.8531L2.52045 10.1968ZM2.52539 10.2109L2.51984 10.1951L0.631801 10.8548L0.637354 10.8707L2.52539 10.2109ZM7.57458 13.782C5.24925 13.782 3.26082 12.2896 2.52411 10.2073L0.638634 10.8744C1.64829 13.7282 4.37316 15.782 7.57458 15.782V13.782ZM8.17635 13.749C7.978 13.7709 7.77741 13.782 7.57458 13.782V15.782C7.85106 15.782 8.12484 15.7668 8.39559 15.7369L8.17635 13.749ZM8.11948 13.7569L8.11529 13.7576L8.45665 15.7283L8.46083 15.7276L8.11948 13.7569ZM8.49977 13.7017C8.39343 13.7206 8.28442 13.7363 8.17635 13.7487L8.40396 15.7357C8.55132 15.7188 8.70059 15.6973 8.84804 15.6712L8.49977 13.7017ZM8.57864 13.6906C8.57808 13.6907 8.56719 13.6919 8.55484 13.6934C8.54143 13.6951 8.52108 13.6979 8.49662 13.7023L8.85119 15.6706C8.83082 15.6743 8.81453 15.6765 8.80519 15.6777C8.7969 15.6787 8.79007 15.6794 8.79355 15.6791L8.57864 13.6906ZM8.55178 13.6939L8.55173 13.6939L8.82046 15.6758L8.8205 15.6758L8.55178 13.6939ZM8.57557 13.6909L8.56708 13.692L8.8052 15.6777L8.8137 15.6767L8.57557 13.6909ZM9.83381 13.284C9.41175 13.4808 8.97267 13.619 8.52011 13.6992L8.86915 15.6685C9.49306 15.5579 10.0989 15.3671 10.679 15.0966L9.83381 13.284ZM9.98381 13.2232C9.93227 13.2411 9.8826 13.2613 9.83487 13.2835L10.6779 15.0971C10.6668 15.1023 10.6539 15.1076 10.6394 15.1127L9.98381 13.2232ZM9.92681 13.2395C9.87753 13.2636 9.83056 13.2897 9.78584 13.3173L10.8374 15.0185C10.8276 15.0246 10.8166 15.0307 10.8047 15.0365L9.92681 13.2395ZM10.1119 9.24581C10.2118 9.21696 10.5015 9.13718 10.7989 8.92437C11.1124 8.7 11.3932 8.36026 11.5578 7.87624L9.66423 7.23242C9.64881 7.27776 9.63548 7.29592 9.63343 7.29865C9.63137 7.30141 9.6322 7.2999 9.63486 7.298C9.63541 7.2976 9.63227 7.30259 9.55681 7.32439L10.1119 9.24581ZM8.48152 9.61288C8.84283 9.5345 9.93024 9.29843 10.1125 9.24563L9.55618 7.32457C9.5639 7.32234 9.55372 7.32532 9.50968 7.3359C9.47228 7.3449 9.42288 7.35643 9.36329 7.37009C9.24443 7.39734 9.09293 7.43126 8.93154 7.46701C8.60922 7.53842 8.25445 7.61562 8.05755 7.65833L8.48152 9.61288ZM9.10151 9.29539L9.21638 8.95731L7.3227 8.3139L7.20783 8.65198L9.10151 9.29539ZM9.95354 9.5678L8.92226 8.33274L7.38708 9.61463L8.41836 10.8497L9.95354 9.5678ZM10.3058 11.558C10.4282 11.1982 10.5059 10.7996 10.4035 10.3822C10.3047 9.97953 10.0654 9.70164 9.95334 9.56757L8.41855 10.8499C8.4456 10.8823 8.46362 10.9045 8.47734 10.9223C8.48383 10.9307 8.48837 10.9368 8.49147 10.9412C8.49299 10.9433 8.49409 10.9449 8.49482 10.946C8.49554 10.9471 8.49587 10.9476 8.49587 10.9476C8.49586 10.9476 8.49019 10.9387 8.48282 10.9223C8.47516 10.9053 8.46723 10.8836 8.46111 10.8587C8.455 10.8338 8.45217 10.8115 8.45125 10.794C8.45036 10.7771 8.45146 10.7684 8.45125 10.7703C8.45099 10.7726 8.44943 10.7849 8.44353 10.8094C8.43761 10.8339 8.42793 10.8682 8.41233 10.9141L10.3058 11.558ZM9.96034 12.5744L10.3059 11.5579L8.41228 10.9142L8.06675 11.9307L9.96034 12.5744ZM9.4937 11.3596L9.33563 11.3058L8.69146 13.1993L8.84953 13.253L9.4937 11.3596ZM10.205 12.8054C10.4082 12.2095 10.0886 11.562 9.49365 11.3596L8.84958 13.2531C8.3995 13.1 8.15815 12.6113 8.31197 12.1601L10.205 12.8054ZM9.99448 13.4247L10.2053 12.8046L8.31167 12.1609L8.10088 12.7811L9.99448 13.4247ZM8.54941 14.1366C9.14493 14.3391 9.79198 14.0198 9.99437 13.4251L8.101 12.7807C8.2541 12.3309 8.74231 12.0897 9.19325 12.2431L8.54941 14.1366ZM3.45273 12.4036L8.5494 14.1366L9.19326 12.2431L4.09659 10.51L3.45273 12.4036ZM2.74116 10.9581C2.53813 11.5545 2.85827 12.2009 3.45198 12.4033L4.09735 10.5103C4.54626 10.6634 4.78818 11.1512 4.63444 11.6027L2.74116 10.9581ZM2.95182 10.3384L2.741 10.9586L4.6346 11.6022L4.84543 10.982L2.95182 10.3384ZM4.39723 9.62667C3.80231 9.42421 3.15469 9.74251 2.95199 10.3379L4.84526 10.9825C4.69186 11.4331 4.20313 11.6733 3.75287 11.52L4.39723 9.62667ZM4.55494 9.68026L4.39677 9.62652L3.75332 11.5202L3.91149 11.5739L4.55494 9.68026ZM3.62488 9.30974L3.28644 10.3052L5.17999 10.949L5.51844 9.95352L3.62488 9.30974ZM5.0704 7.94028C4.97101 7.96904 4.68121 8.04882 4.3839 8.26157C4.07038 8.48591 3.78949 8.82563 3.62489 9.30971L5.51842 9.95355C5.53383 9.90823 5.54716 9.8901 5.54919 9.88738C5.55125 9.88464 5.5504 9.88615 5.54775 9.88805C5.54725 9.88841 5.55037 9.88344 5.62628 9.86148L5.0704 7.94028ZM5.07367 7.93934L5.07362 7.93935L5.62306 9.8624L5.62311 9.86239L5.07367 7.93934ZM6.70101 7.57317C6.33947 7.65163 5.25259 7.88765 5.07087 7.94014L5.62591 9.86158C5.61844 9.86374 5.62882 9.86072 5.67284 9.85015C5.71029 9.84116 5.75972 9.82962 5.81932 9.81597C5.93821 9.78872 6.08974 9.7548 6.25112 9.71905C6.57346 9.64763 6.92824 9.57041 7.12517 9.52768L6.70101 7.57317ZM6.0813 7.89039L5.96633 8.22847L7.85985 8.87238L7.97481 8.53429L6.0813 7.89039ZM5.22915 7.6183L6.2605 8.85332L7.79562 7.57136L6.76427 6.33634L5.22915 7.6183ZM4.87679 5.62798C4.75441 5.98787 4.67673 6.38646 4.77916 6.80385C4.87795 7.20641 5.11728 7.48431 5.22908 7.61821L6.76434 6.33643C6.73726 6.30399 6.71922 6.28178 6.70547 6.26394C6.69209 6.24659 6.68724 6.23908 6.68685 6.23847C6.68683 6.23844 6.69248 6.24731 6.69984 6.26366C6.70749 6.28067 6.71541 6.30227 6.72153 6.32718C6.72764 6.35211 6.73047 6.37433 6.73139 6.39185C6.73228 6.4088 6.73119 6.41748 6.7314 6.41557C6.73166 6.41328 6.73321 6.40098 6.73911 6.37652C6.74503 6.352 6.75471 6.31774 6.77031 6.27187L4.87679 5.62798ZM5.27696 4.45087L4.87677 5.62806L6.77034 6.27179L7.17053 5.0946L5.27696 4.45087ZM5.74365 5.66571L5.90178 5.71948L6.54571 3.82598L6.38757 3.7722L5.74365 5.66571ZM5.03189 4.22094C4.8296 4.81644 5.14886 5.46302 5.74305 5.6655L6.38817 3.77241C6.8377 3.9256 7.07874 4.41348 6.92561 4.86425L5.03189 4.22094ZM5.24292 3.6004L5.032 4.22064L6.92551 4.86455L7.13643 4.24431L5.24292 3.6004ZM6.68811 2.88877C6.09273 2.68624 5.44537 3.00524 5.24295 3.60032L7.1364 4.24439C6.98321 4.69474 6.49468 4.93551 6.04402 4.78222L6.68811 2.88877ZM11.7846 4.62171L6.68799 2.88873L6.04414 4.78226L11.1408 6.51524L11.7846 4.62171ZM12.4962 6.0671C12.6991 5.47116 12.3795 4.8238 11.7843 4.62162L11.141 6.51534C10.6908 6.36239 10.4493 5.87365 10.6029 5.42251L12.4962 6.0671ZM12.2854 6.68702L12.4963 6.06674L10.6028 5.42286L10.3919 6.04314L12.2854 6.68702ZM10.84 7.39855C11.4356 7.60135 12.0828 7.28213 12.2853 6.68738L10.392 6.04278C10.5452 5.59282 11.0337 5.35176 11.4846 5.50527L10.84 7.39855ZM10.6825 7.34507L10.8407 7.39878L11.4839 5.50503L11.3258 5.45132L10.6825 7.34507ZM11.5578 7.87628L11.9509 6.72014L10.0574 6.07625L9.66424 7.23239L11.5578 7.87628ZM6.91293 9.82756L8.03443 11.1704L9.5695 9.88842L8.448 8.54555L6.91293 9.82756ZM6.6889 8.62376C6.54834 9.03719 6.63393 9.49259 6.91208 9.82655L8.44884 8.54656C8.61529 8.7464 8.6668 9.01945 8.58246 9.26753L6.6889 8.62376ZM6.89462 8.01867L6.6889 8.62376L8.58246 9.26753L8.78818 8.66244L6.89462 8.01867ZM7.81389 7.19914C7.38556 7.29187 7.03617 7.60242 6.89464 8.0186L8.78815 8.66251C8.70324 8.91222 8.49376 9.09828 8.2371 9.15385L7.81389 7.19914ZM9.41726 6.84388C9.42404 6.84192 9.37874 6.85341 9.25081 6.88265C9.14 6.90799 8.99447 6.94056 8.83167 6.97663C8.50646 7.04868 8.11836 7.13332 7.8142 7.19907L8.2368 9.15391C8.81534 9.02884 9.81926 8.80962 9.97343 8.76499L9.41726 6.84388ZM9.40709 6.84688L9.40705 6.84689L9.98364 8.76198L9.98367 8.76197L9.40709 6.84688ZM9.1904 7.07147C9.19058 7.07096 9.19951 7.04519 9.22627 7.00731C9.2542 6.96778 9.29186 6.92878 9.33693 6.89565C9.41787 6.83614 9.49597 6.8211 9.41741 6.84384L9.97335 8.76502C10.0362 8.74682 10.2818 8.68331 10.5216 8.50699C10.7848 8.31354 10.9727 8.04256 11.084 7.715L9.1904 7.07147ZM9.58365 5.9151L9.19047 7.07127L11.084 7.71519L11.4772 6.55902L9.58365 5.9151ZM6.37561 5.8806L10.2085 7.18383L10.8523 5.29029L7.01944 3.98706L6.37561 5.8806ZM7.24407 6.43291L7.6443 5.25572L5.75074 4.61194L5.35052 5.78913L7.24407 6.43291ZM7.20921 6.21255C7.23182 6.30687 7.23285 6.38133 7.23171 6.41987C7.2305 6.46057 7.22597 6.48713 7.22466 6.49436C7.22248 6.50642 7.22466 6.48997 7.24399 6.43315L5.3506 5.7889C5.31434 5.89545 5.27884 6.0154 5.25658 6.13848C5.23782 6.24223 5.20877 6.44713 5.26432 6.67881L7.20921 6.21255ZM7.1482 6.01543C7.12652 5.98946 7.11275 5.97285 7.10242 5.96002C7.09188 5.94693 7.0918 5.94627 7.09659 5.95303C7.10113 5.95941 7.11889 5.98477 7.13951 6.0244C7.16098 6.06569 7.1894 6.1297 7.20934 6.21311L5.26418 6.67825C5.31469 6.88945 5.41591 7.04054 5.46559 7.11053C5.51655 7.18234 5.57688 7.25404 5.61325 7.29758L7.1482 6.01543ZM7.1559 6.02474L7.15251 6.02062L5.60894 7.29239L5.61234 7.29651L7.1559 6.02474ZM8.26977 7.35848L7.15166 6.01963L5.61658 7.30162L6.73468 8.64047L8.26977 7.35848ZM8.49401 8.56167C8.63385 8.14955 8.54956 7.69366 8.26993 7.35866L6.73453 8.64029C6.56674 8.43927 6.51632 8.16587 6.60007 7.91903L8.49401 8.56167ZM8.28802 9.16745L8.4938 8.56229L6.60028 7.91841L6.3945 8.52356L8.28802 9.16745ZM7.36862 9.98695C7.7979 9.89414 8.14682 9.58283 8.28805 9.16735L6.39447 8.52366C6.47916 8.27452 6.6883 8.08783 6.94597 8.03212L7.36862 9.98695ZM5.76502 10.3423C5.75846 10.3442 5.80397 10.3326 5.93183 10.3034C6.04267 10.2781 6.18822 10.2455 6.35105 10.2095C6.67629 10.1374 7.06444 10.0528 7.36872 9.98693L6.94587 8.03214C6.36728 8.1573 5.36358 8.37643 5.20967 8.42092L5.76502 10.3423ZM5.99211 10.1148C5.99192 10.1153 5.98298 10.1411 5.95623 10.1789C5.92832 10.2184 5.89069 10.2574 5.84568 10.2905C5.76486 10.3499 5.68689 10.3649 5.76538 10.3422L5.20932 8.42102C5.14641 8.43923 4.90088 8.50275 4.66113 8.67898C4.39809 8.87234 4.21004 9.14321 4.09863 9.4708L5.99211 10.1148ZM5.65378 11.1101L5.99216 10.1146L4.09858 9.47095L3.7602 10.4664L5.65378 11.1101ZM8.86169 11.1447L5.02891 9.84146L4.38507 11.735L8.21785 13.0382L8.86169 11.1447ZM7.93858 10.753L7.59298 11.7696L9.48656 12.4133L9.83215 11.3967L7.93858 10.753ZM7.9736 10.9738C7.95085 10.8792 7.94984 10.8044 7.95099 10.7659C7.95221 10.7251 7.95675 10.6985 7.95806 10.6913C7.96023 10.6793 7.95803 10.6959 7.93867 10.7527L9.83206 11.397C9.86826 11.2906 9.90377 11.1707 9.92605 11.0477C9.94479 10.9442 9.97405 10.7388 9.91826 10.5066L7.9736 10.9738ZM8.03437 11.1704C8.05606 11.1963 8.06983 11.213 8.08018 11.2258C8.09075 11.2389 8.09086 11.2396 8.08611 11.2329C8.08162 11.2266 8.0639 11.2013 8.04333 11.1618C8.0219 11.1207 7.9935 11.0568 7.97353 10.9735L9.91833 10.5069C9.86774 10.2961 9.76662 10.1452 9.71705 10.0753C9.66616 10.0037 9.60591 9.93203 9.56956 9.8885L8.03437 11.1704ZM13.3576 4.15283C13.4804 4.15283 13.6056 4.21258 13.6817 4.3258L12.0216 5.44118C12.3327 5.90428 12.8429 6.15283 13.3576 6.15283V4.15283ZM13.1387 4.2194C13.2049 4.1749 13.2822 4.15283 13.3576 4.15283V6.15283C13.6665 6.15283 13.9801 6.06374 14.2547 5.87913L13.1387 4.2194ZM13.0324 4.76194C12.912 4.58275 12.9596 4.33977 13.1389 4.21929L14.2545 5.87925C14.992 5.38358 15.1881 4.38396 14.6925 3.64644L13.0324 4.76194ZM12.7994 4.43723C12.8796 4.54179 12.958 4.65124 13.0326 4.76221L14.6923 3.64618C14.5956 3.50243 14.4931 3.35928 14.3867 3.22045L12.7994 4.43723ZM13.3469 4.50949C13.1757 4.64047 12.9301 4.60816 12.7987 4.43628L14.3874 3.22141C13.8474 2.51519 12.8375 2.38125 12.132 2.92083L13.3469 4.50949ZM13.42 3.96101C13.5514 4.13267 13.5186 4.37817 13.3471 4.50936L12.1318 2.92096C11.4261 3.46088 11.2916 4.47085 11.8318 5.17666L13.42 3.96101ZM13.6815 4.32553C13.5985 4.20211 13.5107 4.07975 13.4203 3.96144L11.8315 5.17623C11.8973 5.26228 11.9614 5.35167 12.0218 5.44144L13.6815 4.32553ZM12.6725 6.7873C12.7054 6.89011 12.7358 6.99623 12.7629 7.10228L14.7008 6.60797C14.6641 6.46392 14.6226 6.31928 14.5773 6.17753L12.6725 6.7873ZM13.7141 4.76435C12.868 5.03538 12.4015 5.94104 12.6725 6.78742L14.5772 6.17741C14.6431 6.38321 14.5297 6.60322 14.3242 6.66903L13.7141 4.76435ZM15.7372 5.80621C15.4664 4.95988 14.5605 4.49316 13.7141 4.76437L14.3243 6.669C14.1183 6.73499 13.8981 6.62145 13.8323 6.41569L15.7372 5.80621ZM15.8812 6.30742C15.8383 6.13929 15.7899 5.97063 15.737 5.80561L13.8325 6.41629C13.8729 6.5423 13.9101 6.67199 13.9431 6.80128L15.8812 6.30742ZM14.7193 8.26388C15.5804 8.04447 16.1007 7.16841 15.8811 6.30732L13.9431 6.80138C13.8897 6.592 14.0162 6.37912 14.2255 6.32579L14.7193 8.26388ZM14.3216 8.31385C14.4539 8.31385 14.5876 8.29744 14.7194 8.26385L14.2254 6.32582C14.2563 6.31793 14.2887 6.31385 14.3216 6.31385V8.31385ZM12.7629 7.10213C12.9487 7.83127 13.6037 8.31385 14.3216 8.31385V6.31385C14.4958 6.31385 14.6555 6.42994 14.7009 6.60812L12.7629 7.10213ZM13.1344 13.2417C12.9931 13.4051 12.7462 13.4228 12.5831 13.2819L13.8908 11.7686C13.2187 11.1878 12.2029 11.2613 11.6216 11.9335L13.1344 13.2417ZM12.8308 13.572C12.9352 13.4653 13.0371 13.3542 13.1345 13.2417L11.6216 11.9335C11.5505 12.0158 11.4761 12.0967 11.4008 12.1738L12.8308 13.572ZM12.8247 13.0189C12.979 13.1696 12.982 13.4172 12.831 13.5717L11.4006 12.174C10.7794 12.8097 10.7914 13.8283 11.4269 14.4493L12.8247 13.0189ZM12.5513 12.9075C12.6486 12.9075 12.7489 12.9448 12.8247 13.0189L11.4269 14.4493C11.7396 14.7549 12.1472 14.9075 12.5513 14.9075V12.9075ZM12.2717 13.0253C12.3481 12.947 12.4513 12.9075 12.5513 12.9075V14.9075C12.9679 14.9075 13.3873 14.7453 13.7022 14.423L12.2717 13.0253ZM12.5425 12.7306C12.456 12.8308 12.3647 12.9301 12.2716 13.0253L13.7023 14.4229C13.8232 14.2991 13.9422 14.1698 14.0561 14.0379L12.5425 12.7306ZM12.5829 13.2817C12.4193 13.1402 12.4018 12.8935 12.5426 12.7305L14.056 14.0381C14.6366 13.3661 14.5633 12.3502 13.8911 11.7689L12.5829 13.2817ZM14.5851 7.03198C13.6957 7.00526 12.9549 7.70457 12.9287 8.59243L14.9278 8.65161C14.9214 8.8672 14.741 9.03757 14.5251 9.03108L14.5851 7.03198ZM16.1452 8.68793C16.1714 7.80057 15.4737 7.05854 14.585 7.03198L14.5252 9.03108C14.3089 9.02462 14.1397 8.84415 14.146 8.62893L16.1452 8.68793ZM16.1133 9.21182C16.1292 9.03866 16.14 8.86265 16.1452 8.688L14.146 8.62887C14.1421 8.76165 14.1339 8.89638 14.1217 9.02894L16.1133 9.21182ZM14.5119 10.6737C15.3347 10.6737 16.0368 10.0475 16.1134 9.21156L14.1217 9.0292C14.1404 8.82524 14.3111 8.6737 14.5119 8.6737V10.6737ZM14.3635 10.6669C14.4142 10.6716 14.4637 10.6737 14.5119 10.6737V8.6737C14.5226 8.6737 14.5346 8.67418 14.5474 8.67537L14.3635 10.6669ZM12.9089 8.91762C12.8276 9.80251 13.4792 10.5857 14.3641 10.6669L14.5469 8.67532C14.7619 8.69506 14.9202 8.88534 14.9005 9.10046L12.9089 8.91762ZM12.9286 8.5926C12.9255 8.70038 12.9188 8.80982 12.9089 8.9173L14.9005 9.10078C14.9142 8.95215 14.9234 8.80115 14.9278 8.65144L12.9286 8.5926ZM14.4265 11.1032C14.3478 11.3043 14.1208 11.4035 13.9198 11.3248L14.649 9.46249C13.8214 9.13846 12.888 9.54668 12.5641 10.3742L14.4265 11.1032ZM14.2502 11.5162C14.313 11.3806 14.3722 11.2417 14.4265 11.1033L12.5641 10.3742C12.5245 10.4753 12.4812 10.5767 12.4357 10.6749L14.2502 11.5162ZM14.0599 10.9967C14.2557 11.0874 14.3411 11.3198 14.2503 11.5159L12.4356 10.6752C12.062 11.4815 12.4129 12.4378 13.2191 12.8113L14.0599 10.9967ZM13.8951 10.9606C13.9517 10.9606 14.0084 10.9728 14.0598 10.9966L13.2192 12.8114C13.4365 12.912 13.6672 12.9606 13.8951 12.9606V10.9606ZM13.5407 11.187C13.6075 11.043 13.75 10.9606 13.8951 10.9606V12.9606C14.5002 12.9606 15.0826 12.6165 15.3554 12.0279L13.5407 11.187ZM13.698 10.8186C13.6499 10.9418 13.5968 11.0659 13.5406 11.1873L15.3555 12.0277C15.4282 11.8706 15.4973 11.7091 15.5607 11.5469L13.698 10.8186ZM13.9197 11.3248C13.7187 11.2461 13.6195 11.0193 13.6983 10.8181L15.5605 11.5474C15.8846 10.72 15.4764 9.78656 14.6491 9.46254L13.9197 11.3248ZM13.0141 3.78925C13.5429 3.07515 13.3928 2.06749 12.6785 1.53863L11.4884 3.14602C11.3147 3.01745 11.2783 2.7725 11.4068 2.59906L13.0141 3.78925ZM11.7207 4.44076C12.2103 4.44076 12.6982 4.21595 13.0142 3.78907L11.4066 2.59924C11.4838 2.49495 11.6037 2.44076 11.7207 2.44076V4.44076ZM10.7638 4.12496C11.0506 4.33723 11.3876 4.44076 11.7207 4.44076V2.44076C11.8017 2.44076 11.8847 2.4664 11.9537 2.51741L10.7638 4.12496ZM10.4954 3.93858C10.5859 3.99739 10.6763 4.06017 10.7637 4.12488L11.9538 2.51748C11.8343 2.42904 11.7104 2.34294 11.5849 2.26138L10.4954 3.93858ZM10.0233 1.71248C9.53916 2.45717 9.74992 3.45365 10.4949 3.93823L11.5854 2.26173C11.7666 2.37956 11.8176 2.62171 11.7001 2.80254L10.0233 1.71248ZM12.2492 1.24058C11.5045 0.756412 10.5078 0.967189 10.0233 1.71245L11.7001 2.80256C11.5822 2.98389 11.3399 3.03492 11.1591 2.91738L12.2492 1.24058ZM12.6787 1.5388C12.539 1.43529 12.3946 1.33517 12.2494 1.2407L11.1589 2.91725C11.2708 2.99004 11.3817 3.06701 11.4881 3.14585L12.6787 1.5388Z" fill="#092B84" mask="url(#path-1-inside-1_1623_4459)"/>
</svg>
