<svg width="15" height="16" viewBox="0 0 15 16" fill="#092b84" xmlns="http://www.w3.org/2000/svg">
<path d="M9.55908 6.75C9.62813 6.75 9.68408 6.80595 9.68408 6.875C9.68408 6.94405 9.62813 7 9.55908 7H3.12158C3.05254 7 2.99658 6.94405 2.99658 6.875C2.99658 6.80595 3.05254 6.75 3.12158 6.75H9.55908Z" fill="white" stroke="#092B84"/>
<path d="M2.99658 9.375C2.99658 9.30595 3.05254 9.25 3.12158 9.25H7.0313C7.10035 9.25 7.1563 9.30595 7.1563 9.375C7.1563 9.44405 7.10035 9.5 7.0313 9.5H3.12158C3.05254 9.5 2.99658 9.44405 2.99658 9.375Z" fill="white" stroke="#092B84"/>
<path d="M2.5 15.25H4.59028C4.65933 15.25 4.71528 15.306 4.71528 15.375C4.71528 15.444 4.65933 15.5 4.59028 15.5H2.5C1.39764 15.5 0.5 14.6024 0.5 13.5V2.5C0.5 1.39764 1.39764 0.5 2.5 0.5H10.184C11.2864 0.5 12.184 1.39764 12.184 2.5V6.34375C12.184 6.4128 12.1281 6.46875 12.059 6.46875C11.99 6.46875 11.934 6.4128 11.934 6.34375V2.5C11.934 1.53461 11.1494 0.75 10.184 0.75H2.5C1.53461 0.75 0.75 1.53461 0.75 2.5V13.5C0.75 14.4654 1.53461 15.25 2.5 15.25Z" fill="white" stroke="#092B84"/>
<path d="M11.4934 9.40142L11.4931 9.40182L8.06173 12.8256C8.06172 12.8256 8.06172 12.8256 8.06171 12.8256C8.04718 12.8401 8.03641 12.858 8.03038 12.8778L7.28313 15.3379C7.28313 15.3379 7.28313 15.3379 7.28313 15.3379C7.26986 15.3816 7.28142 15.4289 7.31324 15.4615L11.4934 9.40142ZM11.4934 9.40142C12.0287 8.86619 12.9016 8.86603 13.4375 9.40192C13.9733 9.93773 13.9733 10.8105 13.4377 11.3463C13.4377 11.3464 13.4376 11.3464 13.4375 11.3465L10.0137 14.7639L10.0137 14.7639C9.99845 14.7791 9.97955 14.7901 9.95879 14.7959L9.95877 14.7959L7.43611 15.4947L7.43595 15.4947M11.4934 9.40142L7.43595 15.4947M7.43595 15.4947C7.42491 15.4978 7.41376 15.4992 7.40277 15.4992C7.36942 15.4992 7.33705 15.4859 7.31324 15.4615L7.43595 15.4947ZM9.73366 14.5989L9.86035 14.5638L9.9534 14.4709L12.255 12.1736L12.6092 11.82L12.2554 11.4661L11.3713 10.5821L11.0181 10.2289L10.6646 10.5817L8.3493 12.8918L8.2605 12.9804L8.22404 13.1005L7.85263 14.3232L7.58842 15.1931L8.46453 14.9504L9.73366 14.5989ZM13.2608 11.1697L13.2612 11.1693C13.6999 10.7306 13.6995 10.0175 13.2608 9.57876C12.8218 9.13981 12.1087 9.13981 11.6698 9.57876L11.5495 9.69883L11.1952 10.0524L11.5491 10.4063L12.433 11.2902L12.7862 11.6434L13.1397 11.2906L13.2608 11.1697Z" fill="white" stroke="#092B84"/>
<path d="M3.12158 4.25H9.55908C9.62813 4.25 9.68408 4.30595 9.68408 4.375C9.68408 4.44405 9.62813 4.5 9.55908 4.5H3.12158C3.05254 4.5 2.99658 4.44405 2.99658 4.375C2.99658 4.30595 3.05254 4.25 3.12158 4.25Z" fill="white" stroke="#092B84"/>
</svg>
