<svg width="13" height="16" viewBox="0 0 13 16" fill="none" xmlns="http://www.w3.org/2000/svg">
<path d="M2.34375 16H11.7188C11.9776 16 12.1875 15.7901 12.1875 15.5312V2.375C12.1875 2.11613 11.9776 1.90625 11.7188 1.90625H10.3125V0.46875C10.3125 0.209875 10.1026 0 9.84375 0H0.46875C0.209875 0 0 0.209875 0 0.46875V13.6562C0 13.9151 0.209875 14.125 0.46875 14.125H1.875V15.5312C1.875 15.7901 2.08488 16 2.34375 16ZM10.3125 13.6562V2.84375H11.25V15.0625H2.8125V14.125H9.84375C10.1026 14.125 10.3125 13.9151 10.3125 13.6562ZM0.9375 13.1875V0.9375H9.375V13.1875H0.9375Z" fill="black"/>
<path d="M2.34375 3.78125H5.15625C5.41512 3.78125 5.625 3.57138 5.625 3.3125C5.625 3.05362 5.41512 2.84375 5.15625 2.84375H2.34375C2.08487 2.84375 1.875 3.05362 1.875 3.3125C1.875 3.57138 2.08487 3.78125 2.34375 3.78125Z" fill="black"/>
<path d="M7.96875 4.71875H2.34375C2.08487 4.71875 1.875 4.92862 1.875 5.1875C1.875 5.44638 2.08487 5.65625 2.34375 5.65625H7.96875C8.22762 5.65625 8.4375 5.44638 8.4375 5.1875C8.4375 4.92862 8.22762 4.71875 7.96875 4.71875Z" fill="black"/>
<path d="M7.96875 6.59375H2.34375C2.08487 6.59375 1.875 6.80362 1.875 7.0625C1.875 7.32138 2.08487 7.53125 2.34375 7.53125H7.96875C8.22762 7.53125 8.4375 7.32138 8.4375 7.0625C8.4375 6.80362 8.22762 6.59375 7.96875 6.59375Z" fill="black"/>
<path d="M7.96875 8.46875H2.34375C2.08487 8.46875 1.875 8.67862 1.875 8.9375C1.875 9.19638 2.08487 9.40625 2.34375 9.40625H7.96875C8.22762 9.40625 8.4375 9.19638 8.4375 8.9375C8.4375 8.67862 8.22762 8.46875 7.96875 8.46875Z" fill="black"/>
<path d="M7.96875 10.3438H6.09375C5.83487 10.3438 5.625 10.5536 5.625 10.8125C5.625 11.0714 5.83487 11.2812 6.09375 11.2812H7.96875C8.22762 11.2812 8.4375 11.0714 8.4375 10.8125C8.4375 10.5536 8.22762 10.3438 7.96875 10.3438Z" fill="black"/>
</svg>
