<svg width="13" height="16" viewBox="0 0 13 16" fill="none" xmlns="http://www.w3.org/2000/svg">
<mask id="path-1-inside-1_712_775" fill="white">
<path d="M11.6499 3.32087L8.63672 0.470219C8.31622 0.167 7.89672 0 7.45553 0H1.71875C0.771031 0 0 0.771031 0 1.71875V14.2812C0 15.229 0.771031 16 1.71875 16H10.4688C11.4165 16 12.1875 15.229 12.1875 14.2812V4.56944C12.1875 4.09916 11.9916 3.64406 11.6499 3.32087ZM10.7394 3.75H8.40625C8.32009 3.75 8.25 3.67991 8.25 3.59375V1.39491L10.7394 3.75ZM10.4688 15.0625H1.71875C1.28797 15.0625 0.9375 14.712 0.9375 14.2812V1.71875C0.9375 1.28797 1.28797 0.9375 1.71875 0.9375H7.3125V3.59375C7.3125 4.19684 7.80316 4.6875 8.40625 4.6875H11.25V14.2812C11.25 14.712 10.8995 15.0625 10.4688 15.0625Z"/>
</mask>
<path d="M11.6499 3.32087L8.63672 0.470219C8.31622 0.167 7.89672 0 7.45553 0H1.71875C0.771031 0 0 0.771031 0 1.71875V14.2812C0 15.229 0.771031 16 1.71875 16H10.4688C11.4165 16 12.1875 15.229 12.1875 14.2812V4.56944C12.1875 4.09916 11.9916 3.64406 11.6499 3.32087ZM10.7394 3.75H8.40625C8.32009 3.75 8.25 3.67991 8.25 3.59375V1.39491L10.7394 3.75ZM10.4688 15.0625H1.71875C1.28797 15.0625 0.9375 14.712 0.9375 14.2812V1.71875C0.9375 1.28797 1.28797 0.9375 1.71875 0.9375H7.3125V3.59375C7.3125 4.19684 7.80316 4.6875 8.40625 4.6875H11.25V14.2812C11.25 14.712 10.8995 15.0625 10.4688 15.0625Z" fill="white"/>
<path d="M11.6499 3.32087L10.9627 4.04731L10.9627 4.04731L11.6499 3.32087ZM8.63672 0.470219L7.94947 1.19664L7.94948 1.19665L8.63672 0.470219ZM10.7394 3.75V4.75H13.2515L11.4266 3.02357L10.7394 3.75ZM8.25 1.39491L8.93724 0.668479L7.25 -0.927751V1.39491H8.25ZM7.3125 0.9375H8.3125V-0.0625H7.3125V0.9375ZM11.25 4.6875H12.25V3.6875H11.25V4.6875ZM12.3372 2.59444L9.32396 -0.256212L7.94948 1.19665L10.9627 4.04731L12.3372 2.59444ZM9.32397 -0.256201C8.81779 -0.735093 8.15236 -1 7.45553 -1V1C7.64107 1 7.81465 1.06909 7.94947 1.19664L9.32397 -0.256201ZM7.45553 -1H1.71875V1H7.45553V-1ZM1.71875 -1C0.218747 -1 -1 0.218747 -1 1.71875H1C1 1.32332 1.32332 1 1.71875 1V-1ZM-1 1.71875V14.2812H1V1.71875H-1ZM-1 14.2812C-1 15.7813 0.218747 17 1.71875 17V15C1.32332 15 1 14.6767 1 14.2812H-1ZM1.71875 17H10.4688V15H1.71875V17ZM10.4688 17C11.9688 17 13.1875 15.7813 13.1875 14.2812H11.1875C11.1875 14.6767 10.8642 15 10.4688 15V17ZM13.1875 14.2812V4.56944H11.1875V14.2812H13.1875ZM13.1875 4.56944C13.1875 3.82433 12.8785 3.10651 12.3372 2.59444L10.9627 4.04731C11.1047 4.18162 11.1875 4.37399 11.1875 4.56944H13.1875ZM10.7394 2.75H8.40625V4.75H10.7394V2.75ZM8.40625 2.75C8.87238 2.75 9.25 3.12762 9.25 3.59375H7.25C7.25 4.23219 7.76781 4.75 8.40625 4.75V2.75ZM9.25 3.59375V1.39491H7.25V3.59375H9.25ZM7.56276 2.12133L10.0521 4.47643L11.4266 3.02357L8.93724 0.668479L7.56276 2.12133ZM10.4688 14.0625H1.71875V16.0625H10.4688V14.0625ZM1.71875 14.0625C1.84025 14.0625 1.9375 14.1597 1.9375 14.2812H-0.0625C-0.0625 15.2643 0.735684 16.0625 1.71875 16.0625V14.0625ZM1.9375 14.2812V1.71875H-0.0625V14.2812H1.9375ZM1.9375 1.71875C1.9375 1.84025 1.84025 1.9375 1.71875 1.9375V-0.0625C0.735684 -0.0625 -0.0625 0.735684 -0.0625 1.71875H1.9375ZM1.71875 1.9375H7.3125V-0.0625H1.71875V1.9375ZM6.3125 0.9375V3.59375H8.3125V0.9375H6.3125ZM6.3125 3.59375C6.3125 4.74913 7.25087 5.6875 8.40625 5.6875V3.6875C8.35544 3.6875 8.3125 3.64456 8.3125 3.59375H6.3125ZM8.40625 5.6875H11.25V3.6875H8.40625V5.6875ZM10.25 4.6875V14.2812H12.25V4.6875H10.25ZM10.25 14.2812C10.25 14.1597 10.3472 14.0625 10.4688 14.0625V16.0625C11.4518 16.0625 12.25 15.2643 12.25 14.2812H10.25Z" fill="#092B84" mask="url(#path-1-inside-1_712_775)"/>
<mask id="path-3-inside-2_712_775" fill="white">
<path d="M3.28125 4.21875V5.15625C3.28125 5.41512 3.49112 5.625 3.75 5.625C4.00887 5.625 4.21875 5.41512 4.21875 5.15625V4.21875H5.15625C5.41512 4.21875 5.625 4.00887 5.625 3.75C5.625 3.49112 5.41512 3.28125 5.15625 3.28125H4.21875V2.34375C4.21875 2.08487 4.00887 1.875 3.75 1.875C3.49112 1.875 3.28125 2.08487 3.28125 2.34375V3.28125H2.34375C2.08487 3.28125 1.875 3.49112 1.875 3.75C1.875 4.00887 2.08487 4.21875 2.34375 4.21875H3.28125Z"/>
</mask>
<path d="M3.28125 4.21875V5.15625C3.28125 5.41512 3.49112 5.625 3.75 5.625C4.00887 5.625 4.21875 5.41512 4.21875 5.15625V4.21875H5.15625C5.41512 4.21875 5.625 4.00887 5.625 3.75C5.625 3.49112 5.41512 3.28125 5.15625 3.28125H4.21875V2.34375C4.21875 2.08487 4.00887 1.875 3.75 1.875C3.49112 1.875 3.28125 2.08487 3.28125 2.34375V3.28125H2.34375C2.08487 3.28125 1.875 3.49112 1.875 3.75C1.875 4.00887 2.08487 4.21875 2.34375 4.21875H3.28125Z" fill="white"/>
<path d="M3.28125 4.21875H4.28125V3.21875H3.28125V4.21875ZM4.21875 4.21875V3.21875H3.21875V4.21875H4.21875ZM4.21875 3.28125H3.21875V4.28125H4.21875V3.28125ZM3.28125 3.28125V4.28125H4.28125V3.28125H3.28125ZM2.28125 4.21875V5.15625H4.28125V4.21875H2.28125ZM2.28125 5.15625C2.28125 5.96741 2.93884 6.625 3.75 6.625V4.625C4.04341 4.625 4.28125 4.86284 4.28125 5.15625H2.28125ZM3.75 6.625C4.56116 6.625 5.21875 5.96741 5.21875 5.15625H3.21875C3.21875 4.86284 3.45659 4.625 3.75 4.625V6.625ZM5.21875 5.15625V4.21875H3.21875V5.15625H5.21875ZM4.21875 5.21875H5.15625V3.21875H4.21875V5.21875ZM5.15625 5.21875C5.96741 5.21875 6.625 4.56116 6.625 3.75H4.625C4.625 3.45659 4.86284 3.21875 5.15625 3.21875V5.21875ZM6.625 3.75C6.625 2.93884 5.96741 2.28125 5.15625 2.28125V4.28125C4.86284 4.28125 4.625 4.04341 4.625 3.75H6.625ZM5.15625 2.28125H4.21875V4.28125H5.15625V2.28125ZM5.21875 3.28125V2.34375H3.21875V3.28125H5.21875ZM5.21875 2.34375C5.21875 1.53259 4.56116 0.875 3.75 0.875V2.875C3.45659 2.875 3.21875 2.63716 3.21875 2.34375H5.21875ZM3.75 0.875C2.93884 0.875 2.28125 1.53259 2.28125 2.34375H4.28125C4.28125 2.63716 4.04341 2.875 3.75 2.875V0.875ZM2.28125 2.34375V3.28125H4.28125V2.34375H2.28125ZM3.28125 2.28125H2.34375V4.28125H3.28125V2.28125ZM2.34375 2.28125C1.53259 2.28125 0.875 2.93884 0.875 3.75H2.875C2.875 4.04341 2.63716 4.28125 2.34375 4.28125V2.28125ZM0.875 3.75C0.875 4.56116 1.53259 5.21875 2.34375 5.21875V3.21875C2.63716 3.21875 2.875 3.45659 2.875 3.75H0.875ZM2.34375 5.21875H3.28125V3.21875H2.34375V5.21875Z" fill="#092B84" mask="url(#path-3-inside-2_712_775)"/>
<mask id="path-5-inside-3_712_775" fill="white">
<path d="M9.4375 7.1875H2.5625C2.30362 7.1875 2.09375 7.39737 2.09375 7.65625C2.09375 7.91513 2.30362 8.125 2.5625 8.125H9.4375C9.69637 8.125 9.90625 7.91513 9.90625 7.65625C9.90625 7.39737 9.69637 7.1875 9.4375 7.1875Z"/>
</mask>
<path d="M9.4375 7.1875H2.5625C2.30362 7.1875 2.09375 7.39737 2.09375 7.65625C2.09375 7.91513 2.30362 8.125 2.5625 8.125H9.4375C9.69637 8.125 9.90625 7.91513 9.90625 7.65625C9.90625 7.39737 9.69637 7.1875 9.4375 7.1875Z" fill="white"/>
<path d="M9.4375 6.1875H2.5625V8.1875H9.4375V6.1875ZM2.5625 6.1875C1.75134 6.1875 1.09375 6.84509 1.09375 7.65625H3.09375C3.09375 7.94966 2.85591 8.1875 2.5625 8.1875V6.1875ZM1.09375 7.65625C1.09375 8.46741 1.75134 9.125 2.5625 9.125V7.125C2.85591 7.125 3.09375 7.36284 3.09375 7.65625H1.09375ZM2.5625 9.125H9.4375V7.125H2.5625V9.125ZM9.4375 9.125C10.2487 9.125 10.9062 8.46741 10.9062 7.65625H8.90625C8.90625 7.36284 9.14409 7.125 9.4375 7.125V9.125ZM10.9062 7.65625C10.9062 6.84509 10.2487 6.1875 9.4375 6.1875V8.1875C9.14409 8.1875 8.90625 7.94966 8.90625 7.65625H10.9062Z" fill="#092B84" mask="url(#path-5-inside-3_712_775)"/>
<mask id="path-7-inside-4_712_775" fill="white">
<path d="M9.4375 9.6875H2.5625C2.30362 9.6875 2.09375 9.89737 2.09375 10.1562C2.09375 10.4151 2.30362 10.625 2.5625 10.625H9.4375C9.69637 10.625 9.90625 10.4151 9.90625 10.1562C9.90625 9.89737 9.69637 9.6875 9.4375 9.6875Z"/>
</mask>
<path d="M9.4375 9.6875H2.5625C2.30362 9.6875 2.09375 9.89737 2.09375 10.1562C2.09375 10.4151 2.30362 10.625 2.5625 10.625H9.4375C9.69637 10.625 9.90625 10.4151 9.90625 10.1562C9.90625 9.89737 9.69637 9.6875 9.4375 9.6875Z" fill="white"/>
<path d="M9.4375 8.6875H2.5625V10.6875H9.4375V8.6875ZM2.5625 8.6875C1.75134 8.6875 1.09375 9.34509 1.09375 10.1562H3.09375C3.09375 10.4497 2.85591 10.6875 2.5625 10.6875V8.6875ZM1.09375 10.1562C1.09375 10.9674 1.75134 11.625 2.5625 11.625V9.625C2.85591 9.625 3.09375 9.86284 3.09375 10.1562H1.09375ZM2.5625 11.625H9.4375V9.625H2.5625V11.625ZM9.4375 11.625C10.2487 11.625 10.9062 10.9674 10.9062 10.1562H8.90625C8.90625 9.86284 9.14409 9.625 9.4375 9.625V11.625ZM10.9062 10.1562C10.9062 9.34509 10.2487 8.6875 9.4375 8.6875V10.6875C9.14409 10.6875 8.90625 10.4497 8.90625 10.1562H10.9062Z" fill="#092B84" mask="url(#path-7-inside-4_712_775)"/>
<mask id="path-9-inside-5_712_775" fill="white">
<path d="M4.835 12.1875H2.5625C2.30362 12.1875 2.09375 12.3974 2.09375 12.6562C2.09375 12.9151 2.30362 13.125 2.5625 13.125H4.835C5.09387 13.125 5.30375 12.9151 5.30375 12.6562C5.30375 12.3974 5.09387 12.1875 4.835 12.1875Z"/>
</mask>
<path d="M4.835 12.1875H2.5625C2.30362 12.1875 2.09375 12.3974 2.09375 12.6562C2.09375 12.9151 2.30362 13.125 2.5625 13.125H4.835C5.09387 13.125 5.30375 12.9151 5.30375 12.6562C5.30375 12.3974 5.09387 12.1875 4.835 12.1875Z" fill="white"/>
<path d="M4.835 11.1875H2.5625V13.1875H4.835V11.1875ZM2.5625 11.1875C1.75134 11.1875 1.09375 11.8451 1.09375 12.6562H3.09375C3.09375 12.9497 2.85591 13.1875 2.5625 13.1875V11.1875ZM1.09375 12.6562C1.09375 13.4674 1.75134 14.125 2.5625 14.125V12.125C2.85591 12.125 3.09375 12.3628 3.09375 12.6562H1.09375ZM2.5625 14.125H4.835V12.125H2.5625V14.125ZM4.835 14.125C5.64616 14.125 6.30375 13.4674 6.30375 12.6562H4.30375C4.30375 12.3628 4.54159 12.125 4.835 12.125V14.125ZM6.30375 12.6562C6.30375 11.8451 5.64616 11.1875 4.835 11.1875V13.1875C4.54159 13.1875 4.30375 12.9497 4.30375 12.6562H6.30375Z" fill="#092B84" mask="url(#path-9-inside-5_712_775)"/>
</svg>
