<svg width="46" height="42" viewBox="0 0 46 42" fill="none" xmlns="http://www.w3.org/2000/svg">
<path d="M13.3226 10.4H32.6774C33.7339 10.4 34.6 11.2661 34.6 12.3226C34.6 13.3791 33.7339 14.2452 32.6774 14.2452H13.3226C12.2661 14.2452 11.4 13.3791 11.4 12.3226C11.4 11.2661 12.2661 10.4 13.3226 10.4Z" fill="#1AA38C" stroke="white" stroke-width="0.8"/>
<path d="M13.3226 18.9162H32.6774C33.7339 18.9162 34.6 19.7823 34.6 20.8388C34.6 21.8953 33.7339 22.7614 32.6774 22.7614H13.3226C12.2661 22.7614 11.4 21.8953 11.4 20.8388C11.4 19.7823 12.2661 18.9162 13.3226 18.9162Z" fill="#1AA38C" stroke="white" stroke-width="0.8"/>
<path d="M13.3226 27.4326H24.6774C25.7339 27.4326 26.6 28.2987 26.6 29.3552C26.6 30.4117 25.7339 31.2778 24.6774 31.2778H13.3226C12.2661 31.2778 11.4 30.4117 11.4 29.3552C11.4 28.2987 12.2661 27.4326 13.3226 27.4326Z" fill="#1AA38C" stroke="white" stroke-width="0.8"/>
</svg>
