<svg width="14" height="14" viewBox="0 0 14 14" fill="none" xmlns="http://www.w3.org/2000/svg">
<path d="M7 0C5.61553 0 4.26216 0.410543 3.11101 1.17971C1.95987 1.94888 1.06266 3.04213 0.532846 4.32122C0.00303306 5.6003 -0.13559 7.00776 0.134506 8.36563C0.404603 9.7235 1.07129 10.9708 2.05026 11.9497C3.02922 12.9287 4.2765 13.5954 5.63437 13.8655C6.99224 14.1356 8.3997 13.997 9.67879 13.4672C10.9579 12.9373 12.0511 12.0401 12.8203 10.889C13.5895 9.73785 14 8.38447 14 7C13.9979 5.14413 13.2597 3.36487 11.9474 2.05257C10.6351 0.740272 8.85587 0.00209975 7 0ZM7 13.0667C6.03634 13.0667 5.0274 11.8244 4.52667 9.8H9.47333C8.9726 11.8244 7.96367 13.0667 7 13.0667ZM4.3372 8.86666C4.15427 7.62894 4.15427 6.37105 4.3372 5.13333H9.6628C9.75536 5.75122 9.80122 6.37521 9.8 7C9.80122 7.62478 9.75536 8.24877 9.6628 8.86666H4.3372ZM0.933336 7C0.933674 6.36606 1.03383 5.73612 1.23014 5.13333H3.40014C3.22218 6.37141 3.22218 7.62858 3.40014 8.86666H1.23014C1.03383 8.26388 0.933674 7.63394 0.933336 7ZM7 0.933333C7.96367 0.933333 8.9726 2.1756 9.47333 4.2H4.52667C5.0274 2.1756 6.03634 0.933333 7 0.933333ZM10.5999 5.13333H12.7699C13.1655 6.34633 13.1655 7.65366 12.7699 8.86666H10.5999C10.6884 8.24837 10.733 7.62459 10.7333 7C10.733 6.37541 10.6884 5.75162 10.5999 5.13333ZM12.3765 4.2H10.4319C10.2242 3.18501 9.817 2.22137 9.23394 1.365C10.5864 1.90437 11.7011 2.91003 12.3765 4.2ZM4.76607 1.365C4.183 2.22137 3.77581 3.18501 3.56814 4.2H1.62354C2.29886 2.91003 3.4136 1.90437 4.76607 1.365ZM1.62354 9.8H3.56814C3.77581 10.815 4.183 11.7786 4.76607 12.635C3.4136 12.0956 2.29886 11.09 1.62354 9.8ZM9.23394 12.635C9.817 11.7786 10.2242 10.815 10.4319 9.8H12.3765C11.7011 11.09 10.5864 12.0956 9.23394 12.635Z" fill="#092B84"/>
</svg>
