<svg width="16" height="11" viewBox="0 0 16 11" fill="none" xmlns="http://www.w3.org/2000/svg">
<path d="M15.5313 0.502075H15.0292C14.9048 0.502075 14.7857 0.551513 14.6978 0.639404L12.3246 3.01245H11.8806L11.4673 1.35925C11.4152 1.15051 11.2277 1.00415 11.0126 1.00415H9.97511V0.46875C9.97511 0.209839 9.76515 0 9.50636 0H1.47291C1.27113 0 1.09205 0.12915 1.02821 0.320556L0.0240599 3.33301C0.000988641 3.40198 -0.00560317 3.47546 0.00477283 3.54748L0.506848 7.06213C0.524426 7.18518 0.590222 7.29626 0.689587 7.37085L2.69801 8.87707C2.77906 8.93786 2.87782 8.97082 2.97926 8.97082H4.79334L5.15809 9.33557C5.2461 9.42346 5.36524 9.4729 5.48963 9.4729H6.24293L7.10792 10.7704C7.19483 10.9008 7.3412 10.9791 7.49793 10.9791H8.50208C8.70387 10.9791 8.88294 10.8501 8.94679 10.6586L9.34205 9.4729H9.75733C9.93482 9.4729 10.0972 9.37255 10.1765 9.21374L10.2981 8.97082H11.8225L13.1915 10.3398C13.3745 10.5228 13.6713 10.5228 13.8544 10.3398L14.8585 9.33557C15.0166 9.17761 15.041 8.93005 14.9171 8.74414L14.2554 7.75146C14.1804 7.63904 14.1953 7.4884 14.2909 7.39282L14.8585 6.82519C14.9464 6.7373 14.9959 6.61804 14.9959 6.49377V5.09814L15.9506 3.18884C15.9832 3.12366 16 3.05188 16 2.97913V0.970825C16 0.711914 15.7902 0.502075 15.5313 0.502075ZM15.0625 2.86853L14.1078 4.77783C14.0752 4.84302 14.0584 4.91467 14.0584 4.98755V6.29956L13.6282 6.72973C13.2174 7.14013 13.1532 7.78857 13.4753 8.27148L13.924 8.94446L13.523 9.34546L12.3482 8.17065C12.2603 8.08276 12.141 8.03332 12.0166 8.03332H10.0083C9.83082 8.03332 9.66847 8.13366 9.589 8.29248L9.46754 8.5354H9.00416C8.80238 8.5354 8.6233 8.66455 8.55946 8.85595L8.16419 10.0417H7.74879L6.8838 8.74414C6.79688 8.61377 6.65052 8.5354 6.49378 8.5354H5.68373L5.31898 8.17065C5.23109 8.08276 5.11183 8.03332 4.98756 8.03332H3.13539L1.40748 6.7373L0.948498 3.52453L1.8108 0.9375H9.03749V1.4729C9.03749 1.73181 9.24745 1.94165 9.50623 1.94165H10.6465L11.0598 3.59497C11.1119 3.80359 11.2994 3.94995 11.5145 3.94995H12.5188C12.6431 3.94995 12.7623 3.90063 12.8502 3.81274L15.0625 1.60034V2.86853Z" fill="black"/>
</svg>
