<svg width="16" height="16" viewBox="0 0 16 16" fill="none" xmlns="http://www.w3.org/2000/svg">
<rect x="0.5" y="0.5" width="15" height="15" rx="2.5" stroke="black"/>
<path d="M4.55343 5C3.14551 5 2 6.14542 2 7.55343C2 8.96144 3.14542 10.1069 4.55343 10.1069C5.96144 10.1069 7.10686 8.96144 7.10686 7.55343C7.10686 6.14542 5.96135 5 4.55343 5ZM4.55343 9.50664C3.4763 9.50664 2.60009 8.63026 2.60009 7.5533C2.60009 6.47617 3.47632 5.59996 4.55343 5.59996C5.63054 5.59996 6.50694 6.47619 6.50694 7.5533C6.50694 8.63041 5.63056 9.50664 4.55343 9.50664Z" fill="black"/>
<path d="M5.40444 6.68893L4.30749 7.81428L3.6623 7.35356C3.52745 7.2573 3.34012 7.28852 3.24386 7.42337C3.1476 7.55822 3.17882 7.74555 3.31367 7.84181L4.16848 8.45209C4.17065 8.45369 4.17291 8.45461 4.17492 8.45595C4.18045 8.45963 4.18622 8.46289 4.192 8.46616C4.20196 8.47218 4.21217 8.47754 4.22272 8.48214C4.22875 8.48466 4.2346 8.48717 4.24071 8.48943C4.2521 8.49353 4.26373 8.49688 4.27554 8.49947C4.28073 8.50081 4.28583 8.50215 4.29111 8.50307C4.30818 8.50608 4.32534 8.50801 4.34258 8.50801H4.34267H4.34275C4.36443 8.50801 4.38594 8.50516 4.40729 8.50048C4.41365 8.49905 4.41951 8.49663 4.42579 8.49487C4.44052 8.49068 4.45492 8.48574 4.46898 8.47913C4.47626 8.47578 4.48304 8.47168 4.48999 8.46783C4.50221 8.46088 4.51384 8.45318 4.52514 8.44456C4.53209 8.43912 4.53879 8.43368 4.54532 8.42749C4.54925 8.42389 4.55369 8.42112 4.55754 8.41727L5.83421 7.1078C5.94981 6.9891 5.94738 6.79918 5.82877 6.68349C5.70999 6.56798 5.52015 6.57032 5.40446 6.68893L5.40444 6.68893Z" fill="black"/>
<path d="M11.4467 5C10.0388 5 8.89331 6.14542 8.89331 7.55343C8.89331 8.96144 10.0388 10.1069 11.4467 10.1069C12.8546 10.1069 14 8.96144 14 7.55343C14 6.14542 12.8545 5 11.4467 5ZM11.4467 9.50664C10.3695 9.50664 9.49322 8.63026 9.49322 7.5533C9.49322 6.47617 10.3696 5.59996 11.4467 5.59996C12.5239 5.59996 13.4 6.47619 13.4 7.5533C13.4 8.63041 12.5238 9.50664 11.4467 9.50664Z" fill="black"/>
<path d="M12.4985 6.50146C12.3813 6.38436 12.1914 6.38436 12.0743 6.50146L11.4467 7.12917L10.8191 6.50146C10.7018 6.38419 10.5119 6.38436 10.3948 6.50146C10.2776 6.61874 10.2776 6.80866 10.3948 6.92577L11.0225 7.55348L10.3948 8.18119C10.2776 8.29846 10.2776 8.48839 10.3948 8.60541C10.4534 8.664 10.5302 8.69322 10.607 8.69322C10.6839 8.69322 10.7605 8.66392 10.8192 8.60541L11.4468 7.9777L12.0745 8.60541C12.1331 8.664 12.2098 8.69322 12.2867 8.69322C12.3635 8.69322 12.4402 8.66392 12.4989 8.60541C12.6161 8.4883 12.6161 8.29829 12.4989 8.18119L11.8712 7.55348L12.4989 6.92577C12.6158 6.8085 12.6158 6.61857 12.4985 6.50146Z" fill="black"/>
</svg>
