<svg width="16" height="15" viewBox="0 0 16 15" fill="none" xmlns="http://www.w3.org/2000/svg">
<path d="M14.4496 11.3719V7.99748C14.4496 6.60195 13.997 5.24406 13.1597 4.12771C12.3224 3.01136 11.1456 2.19663 9.80589 1.80585C9.80589 1.16066 9.46163 0.564522 8.90294 0.241938C8.34425 -0.080646 7.65574 -0.080646 7.09705 0.241938C6.53836 0.564522 6.19411 1.16066 6.19411 1.80585C4.85442 2.19663 3.67759 3.01136 2.84031 4.12771C2.00302 5.24406 1.55039 6.60195 1.55039 7.99748V11.3719C1.10547 11.4355 0.700305 11.6627 0.413987 12.009C0.127671 12.3555 -0.0191617 12.7961 0.00200782 13.2451C0.0233147 13.694 0.211161 14.1189 0.528915 14.4366C0.846664 14.7544 1.27156 14.9422 1.72048 14.9635C2.16943 14.9847 2.61007 14.8379 2.9565 14.5516C3.30282 14.2652 3.53006 13.8601 3.59362 13.4152H12.4064C12.4699 13.8601 12.6972 14.2652 13.0435 14.5516C13.3899 14.8379 13.8306 14.9847 14.2795 14.9635C14.7285 14.9422 15.1533 14.7544 15.4711 14.4366C15.7888 14.1189 15.9767 13.694 15.998 13.2451C16.0192 12.7961 15.8723 12.3555 15.586 12.009C15.2997 11.6627 14.8945 11.4355 14.4496 11.3719ZM9.72864 2.32182C10.9453 2.69232 12.0106 3.44383 12.7678 4.46575C13.5251 5.48766 13.9337 6.72563 13.9338 7.99763V11.3721C13.5814 11.4234 13.252 11.5778 12.987 11.8158L9.54802 8.94182C9.86497 8.42276 9.89941 7.77903 9.63947 7.2291C9.37964 6.67917 8.86045 6.29702 8.25809 6.21238V3.59131C8.59866 3.54179 8.91803 3.3961 9.17855 3.17117C9.43906 2.94635 9.62992 2.65175 9.7286 2.322L9.72864 2.32182ZM3.35657 12.2131L6.79558 9.33909C7.1268 9.63567 7.55582 9.79978 8.00038 9.79978C8.44494 9.79978 8.87396 9.63566 9.20518 9.33909L12.6442 12.2131C12.5122 12.4218 12.4243 12.6554 12.3862 12.8993H3.59409C3.56219 12.6568 3.48146 12.4234 3.35673 12.2131H3.35657ZM3.81576 3.8028C4.50102 3.1158 5.34432 2.60732 6.2718 2.32191C6.3705 2.65166 6.56134 2.94626 6.82185 3.17108C7.08237 3.39601 7.40174 3.54169 7.74231 3.59122V6.21229C7.13995 6.29694 6.62077 6.67908 6.36093 7.22901C6.10098 7.77895 6.13542 8.42264 6.45237 8.94173L3.01337 11.8157C2.74836 11.5777 2.41897 11.4233 2.06655 11.372V7.99754C2.06471 7.21804 2.21743 6.44607 2.51583 5.72601C2.81435 5.00595 3.25257 4.35223 3.80539 3.80277L3.81576 3.8028Z" fill="black"/>
</svg>
