<svg width="16" height="16" viewBox="0 0 16 16" fill="none" xmlns="http://www.w3.org/2000/svg">
<path d="M15 12V14C15 14.5515 14.5515 15 14 15H2C1.4485 15 1 14.5515 1 14V12C1 11.724 1.2235 11.5 1.5 11.5C1.7765 11.5 2 11.724 2 12V14H14V12C14 11.724 14.2235 11.5 14.5 11.5C14.7765 11.5 15 11.724 15 12Z" fill="#787878"/>
<path d="M4.1465 5.35256C3.951 5.15706 3.951 4.84106 4.1465 4.64556L7.646 1.14606C7.8415 0.950064 8.161 0.952564 8.354 1.14606L11.8535 4.64556C12.049 4.84106 12.049 5.15706 11.8535 5.35256C11.756 5.45006 11.628 5.49906 11.5 5.49906C11.372 5.49906 11.244 5.45006 11.1465 5.35256L8.5 2.70606V11.4991C8.5 11.7751 8.2765 11.9991 8 11.9991C7.7235 11.9991 7.5 11.7751 7.5 11.4991V2.70606L4.8535 5.35256C4.658 5.54806 4.342 5.54806 4.1465 5.35256Z" fill="#787878"/>
</svg>
