<svg width="16" height="16" viewBox="0 0 16 16" fill="none" xmlns="http://www.w3.org/2000/svg">
<path fill-rule="evenodd" clip-rule="evenodd" d="M7.49997 8.48849V11.5445C7.49997 11.8205 7.72397 12.0445 7.99997 12.0445C8.27597 12.0445 8.49997 11.8205 8.49997 11.5445V8.48849L9.65047 9.61349C9.84797 9.80599 10.1645 9.80249 10.3575 9.60499C10.5505 9.40799 10.547 9.09099 10.3495 8.89799L8.69897 7.285C8.31047 6.905 7.68947 6.905 7.30097 7.285L5.65047 8.89799C5.45297 9.09099 5.44947 9.40799 5.64247 9.60499C5.83547 9.80249 6.15197 9.80599 6.34947 9.61349L7.49997 8.48849Z" fill="#0D0D0D"/>
<path fill-rule="evenodd" clip-rule="evenodd" d="M14 5.58549V5C14 4.1715 13.3285 3.5 12.5 3.5H7.298C7.037 3.0475 6.6125 2.72051 6.121 2.57851C6.098 2.57201 6.0755 2.56701 6.052 2.56351L5.636 2.505C5.613 2.5015 5.5895 2.5 5.566 2.5C4.693 2.5 3.3935 2.5 2.5 2.5C2.102 2.5 1.7205 2.658 1.4395 2.9395C1.158 3.2205 1 3.602 1 4V12C1 12.398 1.158 12.7795 1.4395 13.0605C1.7205 13.342 2.102 13.5 2.5 13.5H13.5C14.3285 13.5 15 12.8285 15 12V7C15 6.347 14.5825 5.791 14 5.58549ZM5.8755 3.549C6.128 3.6315 6.3425 3.81251 6.4635 4.05901L7.2515 5.662C7.504 6.175 8.026 6.5 8.5975 6.5H13.5C13.776 6.5 14 6.724 14 7V12C14 12.276 13.776 12.5 13.5 12.5H2.5C2.3675 12.5 2.24 12.4475 2.1465 12.3535C2.0525 12.26 2 12.1325 2 12V4C2 3.8675 2.0525 3.74 2.1465 3.6465C2.24 3.5525 2.3675 3.5 2.5 3.5H5.531L5.8735 3.54849L5.8755 3.549ZM7.7945 4.5L8.149 5.2205C8.233 5.3915 8.407 5.5 8.5975 5.5H13V5C13 4.724 12.776 4.5 12.5 4.5H7.7945Z" fill="#0D0D0D"/>
</svg>
