<svg width="16" height="16" viewBox="0 0 16 16" fill="none" xmlns="http://www.w3.org/2000/svg">
<g clip-path="url(#clip0_1115_900)">
<path d="M12.875 3.75C13.9089 3.75 14.75 2.90887 14.75 1.875C14.75 0.841125 13.9089 0 12.875 0C11.8411 0 11 0.841125 11 1.875C11 2.90887 11.8411 3.75 12.875 3.75ZM12.875 1.25C13.2196 1.25 13.5 1.53038 13.5 1.875C13.5 2.21962 13.2196 2.5 12.875 2.5C12.5304 2.5 12.25 2.21962 12.25 1.875C12.25 1.53038 12.5304 1.25 12.875 1.25Z" fill="black"/>
<path d="M9.125 14.75H1.25V10.2188H7.875C8.22019 10.2188 8.5 9.93894 8.5 9.59375C8.5 9.24856 8.22019 8.96875 7.875 8.96875H2.375V6.375C2.375 6.03038 2.65538 5.75 3 5.75H5.5C5.84462 5.75 6.125 6.03038 6.125 6.375V7.09375C6.125 7.43894 6.40481 7.71875 6.75 7.71875C7.09519 7.71875 7.375 7.43894 7.375 7.09375V6.375C7.375 5.34113 6.53387 4.5 5.5 4.5H3C1.96613 4.5 1.125 5.34113 1.125 6.375V8.96875H0.625C0.279813 8.96875 0 9.24856 0 9.59375V16H9.125C9.47019 16 9.75 15.7202 9.75 15.375C9.75 15.0298 9.47019 14.75 9.125 14.75Z" fill="black"/>
<path d="M4.40625 3.78125C5.44012 3.78125 6.28125 2.94012 6.28125 1.90625C6.28125 0.872375 5.44012 0.03125 4.40625 0.03125C3.37238 0.03125 2.53125 0.872375 2.53125 1.90625C2.53125 2.94012 3.37238 3.78125 4.40625 3.78125ZM4.40625 1.28125C4.75087 1.28125 5.03125 1.56163 5.03125 1.90625C5.03125 2.25087 4.75087 2.53125 4.40625 2.53125C4.06163 2.53125 3.78125 2.25087 3.78125 1.90625C3.78125 1.56163 4.06163 1.28125 4.40625 1.28125Z" fill="black"/>
<path d="M14.125 4.34375H11.625C10.5911 4.34375 9.75 5.18488 9.75 6.21875V9.625C9.75 10.4398 10.2725 11.135 11 11.3929V15.375C11 15.7202 11.2798 16 11.625 16C11.9702 16 12.25 15.7202 12.25 15.375V10.875C12.25 10.5298 11.9702 10.25 11.625 10.25C11.2804 10.25 11 9.96962 11 9.625V6.21875C11 5.87413 11.2804 5.59375 11.625 5.59375H14.125C14.4696 5.59375 14.75 5.87413 14.75 6.21875V9.625C14.75 9.96962 14.4696 10.25 14.125 10.25C13.7798 10.25 13.5 10.5298 13.5 10.875V15.375C13.5 15.7202 13.7798 16 14.125 16C14.4702 16 14.75 15.7202 14.75 15.375V11.3929C15.4775 11.1349 16 10.4398 16 9.625V6.21875C16 5.18488 15.1589 4.34375 14.125 4.34375Z" fill="black"/>
</g>
<defs>
<clipPath id="clip0_1115_900">
<rect width="16" height="16" fill="white"/>
</clipPath>
</defs>
</svg>
